SplineFontDB: 3.0
FontName: Muli-LightItalic
FullName: Muli Light Italic
FamilyName: Muli
Weight: Light
Copyright: Copyright (c) 2011 by vernon adams. All rights reserved.
Version: 1.000
ItalicAngle: 0
UnderlinePosition: -119
UnderlineWidth: 119
Ascent: 1638
Descent: 410
sfntRevision: 0x00010000
LayerCount: 2
Layer: 0 1 "Back"  1
Layer: 1 1 "Fore"  0
XUID: [1021 759 1887733602 6963328]
FSType: 0
OS2Version: 2
OS2_WeightWidthSlopeOnly: 0
OS2_UseTypoMetrics: 1
CreationTime: 1305713760
ModificationTime: 1305891074
PfmFamily: 17
TTFWeight: 300
TTFWidth: 5
LineGap: 0
VLineGap: 0
Panose: 2 0 5 3 4 0 0 2 0 4
OS2TypoAscent: 341
OS2TypoAOffset: 1
OS2TypoDescent: -131
OS2TypoDOffset: 1
OS2TypoLinegap: 0
OS2WinAscent: 0
OS2WinAOffset: 1
OS2WinDescent: 0
OS2WinDOffset: 1
HheadAscent: 0
HheadAOffset: 1
HheadDescent: 0
HheadDOffset: 1
OS2SubXSize: 2937
OS2SubYSize: 2726
OS2SubXOff: 0
OS2SubYOff: 580
OS2SupXSize: 2937
OS2SupYSize: 2726
OS2SupXOff: 0
OS2SupYOff: 2001
OS2StrikeYSize: 102
OS2StrikeYPos: 512
OS2FamilyClass: 2053
OS2Vendor: 'newt'
OS2CodePages: 00000001.00000000
OS2UnicodeRanges: 800000ef.4000204b.00000000.00000000
Lookup: 258 0 0 "'kern' Horizontal Kerning in Latin lookup 0"  {"'kern' Horizontal Kerning in Latin lookup 0 subtable"  } ['kern' ('DFLT' <'dflt' > 'latn' <'dflt' > ) ]
MarkAttachClasses: 1
DEI: 91125
TtTable: prep
PUSHW_1
 0
CALL
SVTCA[y-axis]
PUSHW_3
 1
 4
 2
CALL
SVTCA[x-axis]
PUSHW_3
 5
 4
 2
CALL
SVTCA[x-axis]
PUSHW_8
 5
 67
 59
 56
 41
 25
 0
 8
CALL
PUSHW_8
 6
 76
 59
 56
 41
 25
 0
 8
CALL
PUSHW_8
 7
 87
 75
 56
 41
 25
 0
 8
CALL
PUSHW_8
 8
 97
 75
 56
 41
 25
 0
 8
CALL
SVTCA[y-axis]
PUSHW_8
 1
 83
 75
 56
 41
 25
 0
 8
CALL
PUSHW_8
 2
 92
 75
 56
 41
 25
 0
 8
CALL
PUSHW_8
 3
 99
 75
 56
 41
 25
 0
 8
CALL
PUSHW_8
 4
 113
 93
 72
 41
 25
 0
 8
CALL
SVTCA[y-axis]
PUSHW_3
 9
 4
 7
CALL
PUSHW_1
 0
DUP
RCVT
RDTG
ROUND[Black]
RTG
WCVTP
EndTTInstrs
TtTable: fpgm
PUSHW_1
 0
FDEF
MPPEM
PUSHW_1
 9
LT
IF
PUSHB_2
 1
 1
INSTCTRL
EIF
PUSHW_1
 511
SCANCTRL

StartChar: exclam
Encoding: 33 33 2
Width: 737
Flags: W
LayerCount: 2
Fore
SplineSet
299 152 m 1,0,-1
 477 152 l 1,1,-1
 460 -23 l 1,2,-1
 275 -23 l 1,3,-1
 299 152 l 1,0,-1
453 385 m 1,4,-1
 348 385 l 1,5,-1
 416 1467 l 1,6,-1
 564 1467 l 1,7,-1
 453 385 l 1,4,-1
EndSplineSet
EndChar

StartChar: quotedbl
Encoding: 34 34 3
Width: 720
Flags: W
LayerCount: 2
Fore
SplineSet
551 1026 m 1,0,-1
 551 1467 l 1,1,-1
 689 1467 l 1,2,-1
 641 1026 l 1,3,-1
 551 1026 l 1,0,-1
253 1026 m 1,4,-1
 253 1467 l 1,5,-1
 389 1467 l 1,6,-1
 340 1026 l 1,7,-1
 253 1026 l 1,4,-1
EndSplineSet
EndChar

StartChar: numbersign
Encoding: 35 35 4
Width: 1242
Flags: W
LayerCount: 2
Fore
SplineSet
472 917 m 1,0,-1
 199 917 l 1,1,-1
 215 1010 l 1,2,-1
 497 1010 l 1,3,-1
 612 1436 l 1,4,-1
 711 1436 l 1,5,-1
 595 1010 l 1,6,-1
 918 1010 l 1,7,-1
 1034 1436 l 1,8,-1
 1130 1436 l 1,9,-1
 1016 1010 l 1,10,-1
 1269 1010 l 1,11,-1
 1252 917 l 1,12,-1
 993 917 l 1,13,-1
 908 595 l 1,14,-1
 1172 595 l 1,15,-1
 1151 504 l 1,16,-1
 882 504 l 1,17,-1
 763 63 l 1,18,-1
 664 63 l 1,19,-1
 784 504 l 1,20,-1
 460 504 l 1,21,-1
 339 63 l 1,22,-1
 243 63 l 1,23,-1
 363 504 l 1,24,-1
 99 504 l 1,25,-1
 113 595 l 1,26,-1
 388 595 l 1,27,-1
 472 917 l 1,0,-1
895 917 m 1,28,-1
 572 917 l 1,29,-1
 483 595 l 1,30,-1
 809 595 l 1,31,-1
 895 917 l 1,28,-1
EndSplineSet
EndChar

StartChar: dollar
Encoding: 36 36 5
Width: 1244
Flags: W
LayerCount: 2
Fore
SplineSet
452 -216 m 1,0,-1
 833 1655 l 1,1,-1
 897 1655 l 1,2,-1
 518 -216 l 1,3,-1
 451 -216 l 1,4,-1
 452 -216 l 1,0,-1
210 250 m 1,5,6
 255 195 255 195 302.5 163.5 c 128,-1,7
 350 132 350 132 398 116 c 128,-1,8
 446 100 446 100 494.5 95.5 c 128,-1,9
 543 91 543 91 591 91 c 0,10,11
 681 91 681 91 756.5 109 c 128,-1,12
 832 127 832 127 887 162.5 c 128,-1,13
 942 198 942 198 972.5 250.5 c 128,-1,14
 1003 303 1003 303 1003 372 c 256,15,16
 1003 441 1003 441 970 489 c 128,-1,17
 937 537 937 537 882.5 573 c 128,-1,18
 828 609 828 609 759 637 c 128,-1,19
 690 665 690 665 617.5 693 c 128,-1,20
 545 721 545 721 476 753 c 128,-1,21
 407 785 407 785 352.5 829.5 c 128,-1,22
 298 874 298 874 265 934.5 c 128,-1,23
 232 995 232 995 232 1080 c 0,24,25
 232 1146 232 1146 254 1201.5 c 128,-1,26
 276 1257 276 1257 314 1302 c 128,-1,27
 352 1347 352 1347 404 1381 c 128,-1,28
 456 1415 456 1415 517 1437.5 c 128,-1,29
 578 1460 578 1460 644.5 1471.5 c 128,-1,30
 711 1483 711 1483 779 1483 c 0,31,32
 827 1483 827 1483 877.5 1476.5 c 128,-1,33
 928 1470 928 1470 977 1455 c 128,-1,34
 1026 1440 1026 1440 1070.5 1414.5 c 128,-1,35
 1115 1389 1115 1389 1151 1351 c 1,36,-1
 1095 1258 l 1,37,38
 1063 1288 1063 1288 1024.5 1309 c 128,-1,39
 986 1330 986 1330 944 1343 c 128,-1,40
 902 1356 902 1356 857 1362 c 128,-1,41
 812 1368 812 1368 768 1368 c 0,42,43
 698 1368 698 1368 627.5 1353 c 128,-1,44
 557 1338 557 1338 500 1305.5 c 128,-1,45
 443 1273 443 1273 407.5 1222 c 128,-1,46
 372 1171 372 1171 372 1099 c 0,47,48
 372 1033 372 1033 405 986 c 128,-1,49
 438 939 438 939 492.5 902 c 128,-1,50
 547 865 547 865 616.5 835.5 c 128,-1,51
 686 806 686 806 758 776.5 c 128,-1,52
 830 747 830 747 899.5 713 c 128,-1,53
 969 679 969 679 1023.5 633.5 c 128,-1,54
 1078 588 1078 588 1111 527 c 128,-1,55
 1144 466 1144 466 1144 383 c 0,56,57
 1144 307 1144 307 1120 248 c 128,-1,58
 1096 189 1096 189 1053.5 143.5 c 128,-1,59
 1011 98 1011 98 954.5 66.5 c 128,-1,60
 898 35 898 35 833 15 c 128,-1,61
 768 -5 768 -5 698.5 -14 c 128,-1,62
 629 -23 629 -23 560 -23 c 0,63,64
 432 -23 432 -23 324.5 25.5 c 128,-1,65
 217 74 217 74 150 170 c 1,66,-1
 210 250 l 1,5,6
EndSplineSet
EndChar

StartChar: percent
Encoding: 37 37 6
Width: 1985
Flags: W
LayerCount: 2
Fore
SplineSet
1537 644 m 0,0,1
 1470 644 1470 644 1420 616 c 128,-1,2
 1370 588 1370 588 1337 542 c 128,-1,3
 1304 496 1304 496 1287.5 436.5 c 128,-1,4
 1271 377 1271 377 1271 315 c 0,5,6
 1271 260 1271 260 1283.5 212 c 128,-1,7
 1296 164 1296 164 1323 128.5 c 128,-1,8
 1350 93 1350 93 1392 72.5 c 128,-1,9
 1434 52 1434 52 1493 52 c 0,10,11
 1560 52 1560 52 1610 80 c 128,-1,12
 1660 108 1660 108 1693 154.5 c 128,-1,13
 1726 201 1726 201 1742.5 260.5 c 128,-1,14
 1759 320 1759 320 1759 383 c 0,15,16
 1759 437 1759 437 1746 485 c 128,-1,17
 1733 533 1733 533 1706 568 c 128,-1,18
 1679 603 1679 603 1637 623.5 c 128,-1,19
 1595 644 1595 644 1537 644 c 0,0,1
1550 726 m 0,20,21
 1625 726 1625 726 1682.5 700.5 c 128,-1,22
 1740 675 1740 675 1779 629.5 c 128,-1,23
 1818 584 1818 584 1837.5 521 c 128,-1,24
 1857 458 1857 458 1857 384 c 0,25,26
 1857 299 1857 299 1829.5 224 c 128,-1,27
 1802 149 1802 149 1752.5 93.5 c 128,-1,28
 1703 38 1703 38 1633.5 5.5 c 128,-1,29
 1564 -27 1564 -27 1481 -27 c 0,30,31
 1406 -27 1406 -27 1348 -1.5 c 128,-1,32
 1290 24 1290 24 1250.5 69.5 c 128,-1,33
 1211 115 1211 115 1191 177 c 128,-1,34
 1171 239 1171 239 1171 312 c 0,35,36
 1171 398 1171 398 1198.5 473.5 c 128,-1,37
 1226 549 1226 549 1276 605 c 128,-1,38
 1326 661 1326 661 1395.5 693.5 c 128,-1,39
 1465 726 1465 726 1550 726 c 0,20,21
643 1463 m 0,40,41
 719 1463 719 1463 777 1437.5 c 128,-1,42
 835 1412 835 1412 874 1366.5 c 128,-1,43
 913 1321 913 1321 933 1258.5 c 128,-1,44
 953 1196 953 1196 953 1122 c 0,45,46
 953 1036 953 1036 925.5 961.5 c 128,-1,47
 898 887 898 887 848.5 831 c 128,-1,48
 799 775 799 775 729.5 743 c 128,-1,49
 660 711 660 711 577 711 c 0,50,51
 501 711 501 711 443 737 c 128,-1,52
 385 763 385 763 346 808.5 c 128,-1,53
 307 854 307 854 287 916 c 128,-1,54
 267 978 267 978 267 1050 c 0,55,56
 267 1137 267 1137 294 1212.5 c 128,-1,57
 321 1288 321 1288 370.5 1343.5 c 128,-1,58
 420 1399 420 1399 489.5 1431 c 128,-1,59
 559 1463 559 1463 643 1463 c 0,40,41
1507 1452 m 1,60,-1
 1612 1452 l 1,61,-1
 582 -5 l 1,62,-1
 477 -5 l 1,63,-1
 1507 1452 l 1,60,-1
633 1385 m 0,64,65
 565 1385 565 1385 515 1357 c 128,-1,66
 465 1329 465 1329 431 1282.5 c 128,-1,67
 397 1236 397 1236 380.5 1177 c 128,-1,68
 364 1118 364 1118 364 1055 c 0,69,70
 364 1001 364 1001 377 952.5 c 128,-1,71
 390 904 390 904 418 868 c 128,-1,72
 446 832 446 832 488.5 811 c 128,-1,73
 531 790 531 790 590 790 c 0,74,75
 657 790 657 790 706.5 818 c 128,-1,76
 756 846 756 846 788.5 892 c 128,-1,77
 821 938 821 938 837 997.5 c 128,-1,78
 853 1057 853 1057 853 1120 c 0,79,80
 853 1174 853 1174 840.5 1222 c 128,-1,81
 828 1270 828 1270 801 1306.5 c 128,-1,82
 774 1343 774 1343 732.5 1364 c 128,-1,83
 691 1385 691 1385 633 1385 c 0,64,65
EndSplineSet
EndChar

StartChar: ampersand
Encoding: 38 38 7
Width: 1647
Flags: W
LayerCount: 2
Fore
SplineSet
162 370 m 0,0,1
 162 462 162 462 200.5 535.5 c 128,-1,2
 239 609 239 609 301 668 c 128,-1,3
 363 727 363 727 441 774 c 128,-1,4
 519 821 519 821 598 861 c 1,5,6
 565 897 565 897 532 932 c 128,-1,7
 499 967 499 967 473 1005.5 c 128,-1,8
 447 1044 447 1044 430.5 1087.5 c 128,-1,9
 414 1131 414 1131 414 1185 c 0,10,11
 414 1260 414 1260 444 1317 c 128,-1,12
 474 1374 474 1374 525 1412.5 c 128,-1,13
 576 1451 576 1451 644 1470 c 128,-1,14
 712 1489 712 1489 789 1489 c 0,15,16
 854 1489 854 1489 915.5 1473.5 c 128,-1,17
 977 1458 977 1458 1024.5 1426 c 128,-1,18
 1072 1394 1072 1394 1101 1345 c 128,-1,19
 1130 1296 1130 1296 1130 1230 c 256,20,21
 1130 1164 1130 1164 1100.5 1107 c 128,-1,22
 1071 1050 1071 1050 1021.5 1001.5 c 128,-1,23
 972 953 972 953 907 912.5 c 128,-1,24
 842 872 842 872 772 838 c 1,25,-1
 1199 372 l 1,26,27
 1250 435 1250 435 1291.5 510 c 128,-1,28
 1333 585 1333 585 1362.5 666.5 c 128,-1,29
 1392 748 1392 748 1408.5 832.5 c 128,-1,30
 1425 917 1425 917 1425 997 c 0,31,32
 1425 1011 1425 1011 1424.5 1016 c 128,-1,33
 1424 1021 1424 1021 1423 1032 c 1,34,-1
 1553 1032 l 1,35,36
 1553 938 1553 938 1534.5 838.5 c 128,-1,37
 1516 739 1516 739 1481.5 642 c 128,-1,38
 1447 545 1447 545 1396 454 c 128,-1,39
 1345 363 1345 363 1281 286 c 1,40,41
 1326 235 1326 235 1363.5 197.5 c 128,-1,42
 1401 160 1401 160 1439 133 c 128,-1,43
 1477 106 1477 106 1519.5 88.5 c 128,-1,44
 1562 71 1562 71 1616 61 c 1,45,-1
 1513 -9 l 1,46,47
 1471 -3 1471 -3 1436.5 13 c 128,-1,48
 1402 29 1402 29 1368.5 54.5 c 128,-1,49
 1335 80 1335 80 1297.5 117 c 128,-1,50
 1260 154 1260 154 1212 202 c 1,51,52
 1161 154 1161 154 1103 112 c 128,-1,53
 1045 70 1045 70 977.5 39.5 c 128,-1,54
 910 9 910 9 832.5 -9 c 128,-1,55
 755 -27 755 -27 665 -27 c 0,56,57
 556 -27 556 -27 463.5 -0.5 c 128,-1,58
 371 26 371 26 304 76.5 c 128,-1,59
 237 127 237 127 199.5 201 c 128,-1,60
 162 275 162 275 162 370 c 0,0,1
1131 282 m 0,61,62
 1132 282 1132 282 1112.5 303.5 c 128,-1,63
 1093 325 1093 325 1060.5 360 c 128,-1,64
 1028 395 1028 395 986 440.5 c 128,-1,65
 944 486 944 486 901 533 c 0,66,67
 799 643 799 643 669 784 c 1,68,69
 600 752 600 752 533 713.5 c 128,-1,70
 466 675 466 675 414 626.5 c 128,-1,71
 362 578 362 578 330 518 c 128,-1,72
 298 458 298 458 298 383 c 0,73,74
 298 319 298 319 325 264 c 128,-1,75
 352 209 352 209 401.5 168.5 c 128,-1,76
 451 128 451 128 520.5 105 c 128,-1,77
 590 82 590 82 676 82 c 0,78,79
 751 82 751 82 815 97.5 c 128,-1,80
 879 113 879 113 934.5 140 c 128,-1,81
 990 167 990 167 1038.5 203.5 c 128,-1,82
 1087 240 1087 240 1131 282 c 0,61,62
700 909 m 1,83,84
 755 937 755 937 809.5 969 c 128,-1,85
 864 1001 864 1001 906.5 1038 c 128,-1,86
 949 1075 949 1075 975.5 1118.5 c 128,-1,87
 1002 1162 1002 1162 1002 1214 c 0,88,89
 1002 1260 1002 1260 983 1293.5 c 128,-1,90
 964 1327 964 1327 933.5 1348.5 c 128,-1,91
 903 1370 903 1370 864.5 1380 c 128,-1,92
 826 1390 826 1390 787 1390 c 0,93,94
 739 1390 739 1390 694.5 1377.5 c 128,-1,95
 650 1365 650 1365 616.5 1339.5 c 128,-1,96
 583 1314 583 1314 562.5 1276.5 c 128,-1,97
 542 1239 542 1239 542 1190 c 0,98,99
 542 1148 542 1148 554 1111.5 c 128,-1,100
 566 1075 566 1075 587 1041 c 128,-1,101
 608 1007 608 1007 637 974.5 c 128,-1,102
 666 942 666 942 700 909 c 1,83,84
EndSplineSet
EndChar

StartChar: quotesingle
Encoding: 39 39 8
Width: 554
Flags: W
LayerCount: 2
Fore
SplineSet
318 1026 m 1,0,-1
 318 1467 l 1,1,-1
 455 1467 l 1,2,-1
 408 1026 l 1,3,-1
 318 1026 l 1,0,-1
EndSplineSet
EndChar

StartChar: parenleft
Encoding: 40 40 9
Width: 628
Flags: W
LayerCount: 2
Fore
SplineSet
434 -268 m 1,0,1
 389 -189 389 -189 350.5 -97.5 c 128,-1,2
 312 -6 312 -6 283 92 c 128,-1,3
 254 190 254 190 237.5 293 c 128,-1,4
 221 396 221 396 221 498 c 0,5,6
 221 636 221 636 246 762.5 c 128,-1,7
 271 889 271 889 317 1008.5 c 128,-1,8
 363 1128 363 1128 427.5 1242 c 128,-1,9
 492 1356 492 1356 572 1467 c 1,10,-1
 667 1467 l 1,11,12
 589 1355 589 1355 528.5 1240 c 128,-1,13
 468 1125 468 1125 426 1005 c 128,-1,14
 384 885 384 885 362 759 c 128,-1,15
 340 633 340 633 340 499 c 0,16,17
 340 403 340 403 352.5 302 c 128,-1,18
 365 201 365 201 389.5 101 c 128,-1,19
 414 1 414 1 450 -93 c 128,-1,20
 486 -187 486 -187 533 -268 c 1,21,-1
 434 -268 l 1,0,1
EndSplineSet
EndChar

StartChar: parenright
Encoding: 41 41 10
Width: 628
Flags: W
LayerCount: 2
Fore
SplineSet
168 -268 m 1,0,-1
 72 -268 l 1,1,2
 143 -167 143 -167 203 -56 c 128,-1,3
 263 55 263 55 306.5 176 c 128,-1,4
 350 297 350 297 374.5 428.5 c 128,-1,5
 399 560 399 560 399 701 c 0,6,7
 399 792 399 792 386.5 891 c 128,-1,8
 374 990 374 990 349.5 1089.5 c 128,-1,9
 325 1189 325 1189 288 1285 c 128,-1,10
 251 1381 251 1381 203 1467 c 1,11,-1
 304 1467 l 1,12,13
 350 1384 350 1384 389.5 1291.5 c 128,-1,14
 429 1199 429 1199 458 1100 c 128,-1,15
 487 1001 487 1001 503.5 898 c 128,-1,16
 520 795 520 795 520 693 c 0,17,18
 520 553 520 553 494 426.5 c 128,-1,19
 468 300 468 300 421.5 181.5 c 128,-1,20
 375 63 375 63 310.5 -48.5 c 128,-1,21
 246 -160 246 -160 168 -268 c 1,0,-1
EndSplineSet
EndChar

StartChar: asterisk
Encoding: 42 42 11
Width: 1065
Flags: W
LayerCount: 2
Fore
SplineSet
629 1065 m 1,0,-1
 435 782 l 1,1,-1
 352 836 l 1,2,-1
 578 1086 l 1,3,-1
 289 1170 l 1,4,-1
 315 1271 l 1,5,-1
 606 1139 l 1,6,-1
 588 1467 l 1,7,-1
 690 1467 l 1,8,-1
 657 1137 l 1,9,-1
 925 1274 l 1,10,-1
 967 1183 l 1,11,-1
 684 1089 l 1,12,-1
 872 826 l 1,13,-1
 778 774 l 1,14,-1
 629 1065 l 1,0,-1
EndSplineSet
EndChar

StartChar: plus
Encoding: 43 43 12
Width: 1458
Flags: W
LayerCount: 2
Fore
SplineSet
732 608 m 1,0,-1
 768 1047 l 1,1,-1
 872 1047 l 1,2,-1
 834 608 l 1,3,-1
 1303 608 l 1,4,-1
 1293 504 l 1,5,-1
 827 504 l 1,6,-1
 791 65 l 1,7,-1
 686 65 l 1,8,-1
 724 504 l 1,9,-1
 257 504 l 1,10,-1
 266 608 l 1,11,-1
 732 608 l 1,0,-1
EndSplineSet
EndChar

StartChar: comma
Encoding: 44 44 13
Width: 540
Flags: W
LayerCount: 2
Fore
SplineSet
226 176 m 1,0,-1
 366 176 l 1,1,-1
 177 -265 l 1,2,-1
 86 -265 l 1,3,-1
 226 176 l 1,0,-1
EndSplineSet
EndChar

StartChar: hyphen
Encoding: 45 45 14
Width: 728
Flags: W
LayerCount: 2
Fore
SplineSet
140 508 m 1,0,-1
 150 610 l 1,1,-1
 693 610 l 1,2,-1
 683 508 l 1,3,-1
 140 508 l 1,0,-1
EndSplineSet
EndChar

StartChar: period
Encoding: 46 46 15
Width: 540
Flags: W
LayerCount: 2
Fore
SplineSet
359 -11 m 1,0,-1
 187 -11 l 1,1,-1
 200 168 l 1,2,-1
 374 168 l 1,3,-1
 359 -11 l 1,0,-1
EndSplineSet
EndChar

StartChar: slash
Encoding: 47 47 16
Width: 717
Flags: W
LayerCount: 2
Fore
SplineSet
-39 -224 m 1,0,-1
 741 1467 l 1,1,-1
 862 1467 l 1,2,-1
 77 -224 l 1,3,-1
 -39 -224 l 1,0,-1
EndSplineSet
EndChar

StartChar: zero
Encoding: 48 48 17
Width: 1190
Flags: W
LayerCount: 2
Fore
SplineSet
727 1469 m 0,0,1
 846 1469 846 1469 929 1422.5 c 128,-1,2
 1012 1376 1012 1376 1064 1290 c 128,-1,3
 1116 1204 1116 1204 1139.5 1082.5 c 128,-1,4
 1163 961 1163 961 1163 810 c 0,5,6
 1163 623 1163 623 1125.5 469.5 c 128,-1,7
 1088 316 1088 316 1015.5 206.5 c 128,-1,8
 943 97 943 97 836.5 37 c 128,-1,9
 730 -23 730 -23 593 -23 c 0,10,11
 477 -23 477 -23 395 23 c 128,-1,12
 313 69 313 69 260.5 151.5 c 128,-1,13
 208 234 208 234 184 347.5 c 128,-1,14
 160 461 160 461 160 596 c 0,15,16
 160 798 160 798 197 960 c 128,-1,17
 234 1122 234 1122 305.5 1235 c 128,-1,18
 377 1348 377 1348 483 1408.5 c 128,-1,19
 589 1469 589 1469 727 1469 c 0,0,1
708 1359 m 0,20,21
 606 1359 606 1359 528.5 1304.5 c 128,-1,22
 451 1250 451 1250 399 1151.5 c 128,-1,23
 347 1053 347 1053 321 916.5 c 128,-1,24
 295 780 295 780 295 616 c 0,25,26
 295 549 295 549 301 483.5 c 128,-1,27
 307 418 307 418 321.5 359 c 128,-1,28
 336 300 336 300 359.5 249.5 c 128,-1,29
 383 199 383 199 418.5 162.5 c 128,-1,30
 454 126 454 126 502 105.5 c 128,-1,31
 550 85 550 85 613 85 c 0,32,33
 716 85 716 85 793 139.5 c 128,-1,34
 870 194 870 194 921 291.5 c 128,-1,35
 972 389 972 389 997.5 523.5 c 128,-1,36
 1023 658 1023 658 1023 819 c 0,37,38
 1023 922 1023 922 1009 1019.5 c 128,-1,39
 995 1117 995 1117 959.5 1192.5 c 128,-1,40
 924 1268 924 1268 863 1313.5 c 128,-1,41
 802 1359 802 1359 708 1359 c 0,20,21
EndSplineSet
EndChar

StartChar: one
Encoding: 49 49 18
Width: 1190
Flags: W
LayerCount: 2
Fore
SplineSet
401 1285 m 1,0,1
 476 1309 476 1309 549 1346 c 128,-1,2
 622 1383 622 1383 692 1427 c 1,3,-1
 824 1447 l 1,4,-1
 724 112 l 1,5,-1
 948 112 l 1,6,-1
 938 0 l 1,7,-1
 359 0 l 1,8,-1
 370 117 l 1,9,-1
 598 117 l 1,10,-1
 690 1310 l 1,11,12
 615 1265 615 1265 538.5 1228.5 c 128,-1,13
 462 1192 462 1192 390 1166 c 1,14,-1
 401 1285 l 1,0,1
EndSplineSet
EndChar

StartChar: two
Encoding: 50 50 19
Width: 1190
Flags: W
LayerCount: 2
Fore
SplineSet
118 0 m 1,0,-1
 129 131 l 1,1,2
 221 213 221 213 320.5 297 c 128,-1,3
 420 381 420 381 515.5 464.5 c 128,-1,4
 611 548 611 548 697 631 c 128,-1,5
 783 714 783 714 848 794.5 c 128,-1,6
 913 875 913 875 951 953 c 128,-1,7
 989 1031 989 1031 989 1105 c 0,8,9
 989 1161 989 1161 968 1207 c 128,-1,10
 947 1253 947 1253 908 1285.5 c 128,-1,11
 869 1318 869 1318 813.5 1336 c 128,-1,12
 758 1354 758 1354 688 1354 c 0,13,14
 625 1354 625 1354 567.5 1339 c 128,-1,15
 510 1324 510 1324 461 1296.5 c 128,-1,16
 412 1269 412 1269 373.5 1229 c 128,-1,17
 335 1189 335 1189 309 1140 c 1,18,-1
 238 1213 l 1,19,20
 266 1273 266 1273 313.5 1319.5 c 128,-1,21
 361 1366 361 1366 423 1398 c 128,-1,22
 485 1430 485 1430 559 1447 c 128,-1,23
 633 1464 633 1464 714 1464 c 0,24,25
 803 1464 803 1464 878 1440 c 128,-1,26
 953 1416 953 1416 1008 1372 c 128,-1,27
 1063 1328 1063 1328 1093.5 1264.5 c 128,-1,28
 1124 1201 1124 1201 1124 1122 c 0,29,30
 1124 1036 1124 1036 1093 955 c 128,-1,31
 1062 874 1062 874 1006 794 c 128,-1,32
 950 714 950 714 872 633.5 c 128,-1,33
 794 553 794 553 699 469.5 c 128,-1,34
 604 386 604 386 495.5 298 c 128,-1,35
 387 210 387 210 270 114 c 1,36,-1
 1047 114 l 1,37,-1
 1038 0 l 1,38,-1
 118 0 l 1,0,-1
EndSplineSet
EndChar

StartChar: three
Encoding: 51 51 20
Width: 1190
Flags: W
LayerCount: 2
Fore
SplineSet
263 1324 m 1,0,1
 299 1355 299 1355 345 1381 c 128,-1,2
 391 1407 391 1407 444 1425.5 c 128,-1,3
 497 1444 497 1444 555.5 1454.5 c 128,-1,4
 614 1465 614 1465 676 1465 c 0,5,6
 760 1465 760 1465 836.5 1443 c 128,-1,7
 913 1421 913 1421 971.5 1377.5 c 128,-1,8
 1030 1334 1030 1334 1065 1270.5 c 128,-1,9
 1100 1207 1100 1207 1100 1124 c 0,10,11
 1100 1049 1100 1049 1074.5 985 c 128,-1,12
 1049 921 1049 921 1000 873 c 128,-1,13
 951 825 951 825 880 795 c 128,-1,14
 809 765 809 765 718 758 c 1,15,-1
 718 754 l 1,16,17
 799 746 799 746 866.5 719.5 c 128,-1,18
 934 693 934 693 982.5 650 c 128,-1,19
 1031 607 1031 607 1057.5 547.5 c 128,-1,20
 1084 488 1084 488 1084 415 c 0,21,22
 1084 313 1084 313 1040 232 c 128,-1,23
 996 151 996 151 921.5 94.5 c 128,-1,24
 847 38 847 38 749.5 7.5 c 128,-1,25
 652 -23 652 -23 544 -23 c 0,26,27
 426 -23 426 -23 328 10.5 c 128,-1,28
 230 44 230 44 165 113 c 1,29,-1
 229 202 l 1,30,31
 287 145 287 145 368.5 115 c 128,-1,32
 450 85 450 85 547 85 c 0,33,34
 629 85 629 85 702.5 107 c 128,-1,35
 776 129 776 129 831 171 c 128,-1,36
 886 213 886 213 918 273.5 c 128,-1,37
 950 334 950 334 950 410 c 0,38,39
 950 488 950 488 920 542.5 c 128,-1,40
 890 597 890 597 834.5 631.5 c 128,-1,41
 779 666 779 666 699.5 681.5 c 128,-1,42
 620 697 620 697 521 697 c 0,43,44
 512 697 512 697 503 696.5 c 128,-1,45
 494 696 494 696 486 696 c 0,46,47
 477 695 477 695 469 695 c 1,48,-1
 479 808 l 1,49,50
 485 807 485 807 491 807 c 2,51,-1
 516 807 l 2,52,53
 614 807 614 807 695.5 822.5 c 128,-1,54
 777 838 777 838 835.5 874 c 128,-1,55
 894 910 894 910 926.5 968.5 c 128,-1,56
 959 1027 959 1027 959 1113 c 0,57,58
 959 1175 959 1175 937 1220 c 128,-1,59
 915 1265 915 1265 875.5 1294.5 c 128,-1,60
 836 1324 836 1324 781 1338.5 c 128,-1,61
 726 1353 726 1353 659 1353 c 0,62,63
 553 1353 553 1353 464 1320 c 128,-1,64
 375 1287 375 1287 309 1232 c 1,65,-1
 263 1324 l 1,0,1
EndSplineSet
EndChar

StartChar: four
Encoding: 52 52 21
Width: 1189
Flags: W
LayerCount: 2
Fore
SplineSet
769 0 m 1,0,-1
 795 363 l 1,1,-1
 69 363 l 1,2,-1
 79 469 l 1,3,-1
 833 1436 l 1,4,-1
 1009 1436 l 1,5,-1
 930 464 l 1,6,-1
 1155 464 l 1,7,-1
 1146 363 l 1,8,-1
 921 363 l 1,9,-1
 895 0 l 1,10,-1
 769 0 l 1,0,-1
801 464 m 1,11,-1
 868 1348 l 1,12,-1
 749 1180 l 1,13,-1
 187 464 l 1,14,-1
 801 464 l 1,11,-1
EndSplineSet
EndChar

StartChar: five
Encoding: 53 53 22
Width: 1190
Flags: W
LayerCount: 2
Fore
SplineSet
271 214 m 1,0,1
 328 148 328 148 402 116.5 c 128,-1,2
 476 85 476 85 564 85 c 0,3,4
 660 85 660 85 736.5 116.5 c 128,-1,5
 813 148 813 148 866 201.5 c 128,-1,6
 919 255 919 255 947 326.5 c 128,-1,7
 975 398 975 398 975 479 c 0,8,9
 975 542 975 542 955 598 c 128,-1,10
 935 654 935 654 896 695.5 c 128,-1,11
 857 737 857 737 799 761.5 c 128,-1,12
 741 786 741 786 665 786 c 0,13,14
 577 786 577 786 505.5 758.5 c 128,-1,15
 434 731 434 731 392 683 c 1,16,17
 378 683 378 683 355 682.5 c 128,-1,18
 332 682 332 682 310 682 c 2,19,-1
 256 682 l 1,20,-1
 337 1441 l 1,21,-1
 1108 1441 l 1,22,-1
 1098 1327 l 1,23,-1
 448 1327 l 1,24,-1
 393 811 l 1,25,26
 421 834 421 834 455 851 c 128,-1,27
 489 868 489 868 526.5 879.5 c 128,-1,28
 564 891 564 891 603.5 896.5 c 128,-1,29
 643 902 643 902 682 902 c 0,30,31
 783 902 783 902 862 871 c 128,-1,32
 941 840 941 840 996 784.5 c 128,-1,33
 1051 729 1051 729 1079.5 652 c 128,-1,34
 1108 575 1108 575 1108 484 c 0,35,36
 1108 376 1108 376 1069 283.5 c 128,-1,37
 1030 191 1030 191 958 123 c 128,-1,38
 886 55 886 55 784 16 c 128,-1,39
 682 -23 682 -23 555 -23 c 0,40,41
 457 -23 457 -23 368 9 c 128,-1,42
 279 41 279 41 214 110 c 1,43,-1
 271 214 l 1,0,1
EndSplineSet
EndChar

StartChar: six
Encoding: 54 54 23
Width: 1190
Flags: W
LayerCount: 2
Fore
SplineSet
1065 1273 m 1,0,1
 1016 1315 1016 1315 948.5 1337 c 128,-1,2
 881 1359 881 1359 795 1359 c 0,3,4
 711 1359 711 1359 641.5 1330 c 128,-1,5
 572 1301 572 1301 516.5 1250 c 128,-1,6
 461 1199 461 1199 419 1130 c 128,-1,7
 377 1061 377 1061 348.5 980.5 c 128,-1,8
 320 900 320 900 305 812.5 c 128,-1,9
 290 725 290 725 289 637 c 0,10,11
 289 635 289 635 289.5 634 c 128,-1,12
 290 633 290 633 290 632 c 0,13,14
 290 630 290 630 289 629 c 1,15,16
 320 700 320 700 365.5 753 c 128,-1,17
 411 806 411 806 468 841 c 128,-1,18
 525 876 525 876 591.5 893.5 c 128,-1,19
 658 911 658 911 733 911 c 0,20,21
 828 911 828 911 903.5 882 c 128,-1,22
 979 853 979 853 1032 798.5 c 128,-1,23
 1085 744 1085 744 1113 666.5 c 128,-1,24
 1141 589 1141 589 1141 492 c 0,25,26
 1141 382 1141 382 1103 288 c 128,-1,27
 1065 194 1065 194 996 125 c 128,-1,28
 927 56 927 56 831 16.5 c 128,-1,29
 735 -23 735 -23 619 -23 c 256,30,31
 503 -23 503 -23 417 21.5 c 128,-1,32
 331 66 331 66 274.5 147 c 128,-1,33
 218 228 218 228 190 342 c 128,-1,34
 162 456 162 456 162 594 c 0,35,36
 162 712 162 712 181 822.5 c 128,-1,37
 200 933 200 933 237.5 1030.5 c 128,-1,38
 275 1128 275 1128 330 1208.5 c 128,-1,39
 385 1289 385 1289 456.5 1347 c 128,-1,40
 528 1405 528 1405 615.5 1437 c 128,-1,41
 703 1469 703 1469 805 1469 c 0,42,43
 905 1469 905 1469 982.5 1438.5 c 128,-1,44
 1060 1408 1060 1408 1114 1352 c 1,45,-1
 1065 1273 l 1,0,1
693 806 m 0,46,47
 619 806 619 806 549 782 c 128,-1,48
 479 758 479 758 424.5 716 c 128,-1,49
 370 674 370 674 336.5 616.5 c 128,-1,50
 303 559 303 559 303 492 c 0,51,52
 303 412 303 412 319.5 338.5 c 128,-1,53
 336 265 336 265 374.5 209 c 128,-1,54
 413 153 413 153 477 119 c 128,-1,55
 541 85 541 85 636 85 c 0,56,57
 718 85 718 85 786 115 c 128,-1,58
 854 145 854 145 902 197.5 c 128,-1,59
 950 250 950 250 976.5 322 c 128,-1,60
 1003 394 1003 394 1003 477 c 0,61,62
 1003 548 1003 548 985 608.5 c 128,-1,63
 967 669 967 669 929 713 c 128,-1,64
 891 757 891 757 832.5 781.5 c 128,-1,65
 774 806 774 806 693 806 c 0,46,47
EndSplineSet
EndChar

StartChar: seven
Encoding: 55 55 24
Width: 1189
Flags: W
LayerCount: 2
Fore
SplineSet
1183 1436 m 1,0,-1
 1176 1363 l 1,1,-1
 470 0 l 1,2,-1
 327 0 l 1,3,-1
 1033 1322 l 1,4,-1
 216 1322 l 1,5,-1
 226 1436 l 1,6,-1
 1183 1436 l 1,0,-1
EndSplineSet
EndChar

StartChar: eight
Encoding: 56 56 25
Width: 1190
Flags: W
LayerCount: 2
Fore
SplineSet
140 333 m 0,0,1
 140 412 140 412 167 479.5 c 128,-1,2
 194 547 194 547 245 601 c 128,-1,3
 296 655 296 655 369 694 c 128,-1,4
 442 733 442 733 535 755 c 1,5,-1
 535 758 l 1,6,7
 463 773 463 773 407.5 802.5 c 128,-1,8
 352 832 352 832 313.5 874.5 c 128,-1,9
 275 917 275 917 255 971 c 128,-1,10
 235 1025 235 1025 235 1087 c 0,11,12
 235 1177 235 1177 276.5 1247.5 c 128,-1,13
 318 1318 318 1318 386.5 1367.5 c 128,-1,14
 455 1417 455 1417 544.5 1443 c 128,-1,15
 634 1469 634 1469 730 1469 c 0,16,17
 814 1469 814 1469 889.5 1447 c 128,-1,18
 965 1425 965 1425 1022 1383 c 128,-1,19
 1079 1341 1079 1341 1112.5 1279.5 c 128,-1,20
 1146 1218 1146 1218 1146 1139 c 0,21,22
 1146 1070 1146 1070 1120.5 1010.5 c 128,-1,23
 1095 951 1095 951 1048.5 902.5 c 128,-1,24
 1002 854 1002 854 937 817.5 c 128,-1,25
 872 781 872 781 792 759 c 1,26,-1
 792 756 l 1,27,28
 960 711 960 711 1043 622 c 128,-1,29
 1126 533 1126 533 1126 396 c 0,30,31
 1126 295 1126 295 1082.5 217 c 128,-1,32
 1039 139 1039 139 965 86 c 128,-1,33
 891 33 891 33 792.5 5 c 128,-1,34
 694 -23 694 -23 584 -23 c 0,35,36
 494 -23 494 -23 413 0.5 c 128,-1,37
 332 24 332 24 271.5 69 c 128,-1,38
 211 114 211 114 175.5 180.5 c 128,-1,39
 140 247 140 247 140 333 c 0,0,1
274 356 m 0,40,41
 274 290 274 290 299.5 239 c 128,-1,42
 325 188 325 188 370 154 c 128,-1,43
 415 120 415 120 476.5 102.5 c 128,-1,44
 538 85 538 85 610 85 c 0,45,46
 689 85 689 85 758 106.5 c 128,-1,47
 827 128 827 128 878 168 c 128,-1,48
 929 208 929 208 958 265.5 c 128,-1,49
 987 323 987 323 987 394 c 0,50,51
 987 463 987 463 963.5 515 c 128,-1,52
 940 567 940 567 896 603.5 c 128,-1,53
 852 640 852 640 790 663 c 128,-1,54
 728 686 728 686 652 698 c 1,55,56
 569 683 569 683 499.5 655 c 128,-1,57
 430 627 430 627 380 584.5 c 128,-1,58
 330 542 330 542 302 485 c 128,-1,59
 274 428 274 428 274 356 c 0,40,41
363 1093 m 0,60,61
 363 974 363 974 441 906 c 128,-1,62
 519 838 519 838 667 814 c 1,63,64
 837 837 837 837 927 913.5 c 128,-1,65
 1017 990 1017 990 1017 1120 c 0,66,67
 1017 1182 1017 1182 992.5 1228 c 128,-1,68
 968 1274 968 1274 926.5 1304 c 128,-1,69
 885 1334 885 1334 829.5 1349 c 128,-1,70
 774 1364 774 1364 712 1364 c 0,71,72
 648 1364 648 1364 585.5 1346.5 c 128,-1,73
 523 1329 523 1329 473.5 1294.5 c 128,-1,74
 424 1260 424 1260 393.5 1209.5 c 128,-1,75
 363 1159 363 1159 363 1093 c 0,60,61
EndSplineSet
EndChar

StartChar: nine
Encoding: 57 57 26
Width: 1190
Flags: W
LayerCount: 2
Fore
SplineSet
258 184 m 1,0,1
 299 133 299 133 368 104 c 128,-1,2
 437 75 437 75 532 75 c 0,3,4
 612 75 612 75 679.5 103.5 c 128,-1,5
 747 132 747 132 802.5 182 c 128,-1,6
 858 232 858 232 900.5 301 c 128,-1,7
 943 370 943 370 972.5 451.5 c 128,-1,8
 1002 533 1002 533 1018 623.5 c 128,-1,9
 1034 714 1034 714 1036 808 c 1,10,11
 973 684 973 684 860 618 c 128,-1,12
 747 552 747 552 596 552 c 0,13,14
 500 552 500 552 423.5 582.5 c 128,-1,15
 347 613 347 613 293.5 668 c 128,-1,16
 240 723 240 723 211.5 798.5 c 128,-1,17
 183 874 183 874 183 964 c 0,18,19
 183 1071 183 1071 221 1163 c 128,-1,20
 259 1255 259 1255 328 1323 c 128,-1,21
 397 1391 397 1391 493.5 1430 c 128,-1,22
 590 1469 590 1469 707 1469 c 0,23,24
 817 1469 817 1469 902 1429.5 c 128,-1,25
 987 1390 987 1390 1044.5 1314.5 c 128,-1,26
 1102 1239 1102 1239 1131.5 1127.5 c 128,-1,27
 1161 1016 1161 1016 1161 872 c 0,28,29
 1161 675 1161 675 1117.5 510.5 c 128,-1,30
 1074 346 1074 346 991.5 227.5 c 128,-1,31
 909 109 909 109 789.5 43 c 128,-1,32
 670 -23 670 -23 518 -23 c 0,33,34
 412 -23 412 -23 335.5 10 c 128,-1,35
 259 43 259 43 214 105 c 1,36,-1
 258 184 l 1,0,1
634 661 m 0,37,38
 700 661 700 661 759.5 679 c 128,-1,39
 819 697 819 697 869 728.5 c 128,-1,40
 919 760 919 760 957 804 c 128,-1,41
 995 848 995 848 1017 900 c 1,42,43
 1020 921 1020 921 1022 930 c 128,-1,44
 1024 939 1024 939 1025 943.5 c 128,-1,45
 1026 948 1026 948 1026 951 c 128,-1,46
 1026 954 1026 954 1026 962 c 0,47,48
 1026 1041 1026 1041 1007 1112.5 c 128,-1,49
 988 1184 988 1184 947.5 1239 c 128,-1,50
 907 1294 907 1294 843 1326.5 c 128,-1,51
 779 1359 779 1359 688 1359 c 0,52,53
 606 1359 606 1359 538 1330 c 128,-1,54
 470 1301 470 1301 420.5 1250 c 128,-1,55
 371 1199 371 1199 343.5 1129.5 c 128,-1,56
 316 1060 316 1060 316 979 c 0,57,58
 316 910 316 910 334.5 851.5 c 128,-1,59
 353 793 353 793 392 751 c 128,-1,60
 431 709 431 709 491 685 c 128,-1,61
 551 661 551 661 634 661 c 0,37,38
EndSplineSet
EndChar

StartChar: less
Encoding: 60 60 27
Width: 1458
Flags: W
LayerCount: 2
Fore
SplineSet
441 552 m 1,0,-1
 1244 178 l 1,1,-1
 1236 64 l 1,2,-1
 277 514 l 1,3,-1
 288 589 l 1,4,-1
 1316 1055 l 1,5,-1
 1308 939 l 1,6,-1
 441 552 l 1,0,-1
EndSplineSet
EndChar

StartChar: equal
Encoding: 61 61 28
Width: 1458
Flags: W
LayerCount: 2
Fore
SplineSet
1285 398 m 1,0,-1
 1275 292 l 1,1,-1
 241 292 l 1,2,-1
 250 398 l 1,3,-1
 1285 398 l 1,0,-1
1318 821 m 1,4,-1
 1309 714 l 1,5,-1
 272 714 l 1,6,-1
 284 821 l 1,7,-1
 1318 821 l 1,4,-1
EndSplineSet
EndChar

StartChar: greater
Encoding: 62 62 29
Width: 1458
Flags: W
LayerCount: 2
Fore
SplineSet
1126 552 m 1,0,-1
 315 951 l 1,1,-1
 324 1066 l 1,2,-1
 1282 588 l 1,3,-1
 1271 517 l 1,4,-1
 243 77 l 1,5,-1
 251 187 l 1,6,-1
 1126 552 l 1,0,-1
EndSplineSet
EndChar

StartChar: question
Encoding: 63 63 30
Width: 1032
Flags: W
LayerCount: 2
Fore
SplineSet
419 380 m 1,0,-1
 419 557 l 2,1,2
 419 614 419 614 452 662.5 c 128,-1,3
 485 711 485 711 534 755.5 c 128,-1,4
 583 800 583 800 641 843.5 c 128,-1,5
 699 887 699 887 748 935 c 128,-1,6
 797 983 797 983 830 1038.5 c 128,-1,7
 863 1094 863 1094 863 1162 c 0,8,9
 863 1222 863 1222 841.5 1264.5 c 128,-1,10
 820 1307 820 1307 784.5 1334 c 128,-1,11
 749 1361 749 1361 703 1373.5 c 128,-1,12
 657 1386 657 1386 608 1386 c 0,13,14
 561 1386 561 1386 520 1379.5 c 128,-1,15
 479 1373 479 1373 442 1363 c 128,-1,16
 405 1353 405 1353 372.5 1342 c 128,-1,17
 340 1331 340 1331 311 1322 c 1,18,-1
 319 1428 l 1,19,20
 386 1463 386 1463 456 1478.5 c 128,-1,21
 526 1494 526 1494 589 1494 c 0,22,23
 674 1494 674 1494 747 1475 c 128,-1,24
 820 1456 820 1456 874 1417 c 128,-1,25
 928 1378 928 1378 958.5 1319 c 128,-1,26
 989 1260 989 1260 989 1181 c 0,27,28
 989 1128 989 1128 976.5 1082.5 c 128,-1,29
 964 1037 964 1037 942 998 c 128,-1,30
 920 959 920 959 889.5 926.5 c 128,-1,31
 859 894 859 894 823 866 c 0,32,33
 806 853 806 853 793.5 843 c 128,-1,34
 781 833 781 833 767 821 c 0,35,36
 715 776 715 776 677 744.5 c 128,-1,37
 639 713 639 713 612.5 687.5 c 128,-1,38
 586 662 586 662 569 639 c 128,-1,39
 552 616 552 616 542.5 589.5 c 128,-1,40
 533 563 533 563 529.5 529.5 c 128,-1,41
 526 496 526 496 526 449 c 2,42,-1
 526 380 l 1,43,-1
 419 380 l 1,0,-1
548 -11 m 1,44,-1
 376 -11 l 1,45,-1
 389 168 l 1,46,-1
 563 168 l 1,47,-1
 548 -11 l 1,44,-1
EndSplineSet
EndChar

StartChar: at
Encoding: 64 64 31
Width: 1895
Flags: W
LayerCount: 2
Fore
SplineSet
1316 975 m 1,0,-1
 1318 975 l 1,1,-1
 1362 1114 l 1,2,-1
 1481 1123 l 1,3,4
 1434 987 1434 987 1394 869 c 0,5,6
 1377 819 1377 819 1359.5 767.5 c 128,-1,7
 1342 716 1342 716 1326.5 670 c 128,-1,8
 1311 624 1311 624 1299 587 c 128,-1,9
 1287 550 1287 550 1281 528 c 0,10,11
 1272 498 1272 498 1267.5 474 c 128,-1,12
 1263 450 1263 450 1263 424 c 0,13,14
 1263 377 1263 377 1286 351 c 128,-1,15
 1309 325 1309 325 1368 325 c 0,16,17
 1414 325 1414 325 1460 345 c 128,-1,18
 1506 365 1506 365 1547 400.5 c 128,-1,19
 1588 436 1588 436 1623 485 c 128,-1,20
 1658 534 1658 534 1684 591.5 c 128,-1,21
 1710 649 1710 649 1724.5 713.5 c 128,-1,22
 1739 778 1739 778 1739 844 c 0,23,24
 1739 968 1739 968 1692.5 1071.5 c 128,-1,25
 1646 1175 1646 1175 1561.5 1249.5 c 128,-1,26
 1477 1324 1477 1324 1358.5 1365.5 c 128,-1,27
 1240 1407 1240 1407 1095 1407 c 0,28,29
 984 1407 984 1407 882.5 1379 c 128,-1,30
 781 1351 781 1351 693 1300.5 c 128,-1,31
 605 1250 605 1250 533 1179 c 128,-1,32
 461 1108 461 1108 409.5 1022 c 128,-1,33
 358 936 358 936 330 837.5 c 128,-1,34
 302 739 302 739 302 634 c 0,35,36
 302 492 302 492 350.5 371 c 128,-1,37
 399 250 399 250 488 162 c 128,-1,38
 577 74 577 74 704 24.5 c 128,-1,39
 831 -25 831 -25 989 -25 c 0,40,41
 1148 -25 1148 -25 1290 20.5 c 128,-1,42
 1432 66 1432 66 1538 152 c 1,43,-1
 1585 106 l 1,44,45
 1532 56 1532 56 1464 16 c 128,-1,46
 1396 -24 1396 -24 1317.5 -52.5 c 128,-1,47
 1239 -81 1239 -81 1152 -96.5 c 128,-1,48
 1065 -112 1065 -112 975 -112 c 0,49,50
 802 -112 802 -112 658 -56.5 c 128,-1,51
 514 -1 514 -1 411 98 c 128,-1,52
 308 197 308 197 251 333 c 128,-1,53
 194 469 194 469 194 630 c 0,54,55
 194 751 194 751 227 862 c 128,-1,56
 260 973 260 973 320.5 1068.5 c 128,-1,57
 381 1164 381 1164 465 1242.5 c 128,-1,58
 549 1321 549 1321 650.5 1376.5 c 128,-1,59
 752 1432 752 1432 868.5 1462 c 128,-1,60
 985 1492 985 1492 1109 1492 c 0,61,62
 1267 1492 1267 1492 1402 1444 c 128,-1,63
 1537 1396 1537 1396 1635.5 1309.5 c 128,-1,64
 1734 1223 1734 1223 1790 1104 c 128,-1,65
 1846 985 1846 985 1846 843 c 0,66,67
 1846 758 1846 758 1825 680 c 128,-1,68
 1804 602 1804 602 1767 534.5 c 128,-1,69
 1730 467 1730 467 1680.5 411.5 c 128,-1,70
 1631 356 1631 356 1574 316.5 c 128,-1,71
 1517 277 1517 277 1455.5 255.5 c 128,-1,72
 1394 234 1394 234 1334 234 c 0,73,74
 1291 234 1291 234 1256 248 c 128,-1,75
 1221 262 1221 262 1195.5 288 c 128,-1,76
 1170 314 1170 314 1156 351 c 128,-1,77
 1142 388 1142 388 1141 434 c 1,78,79
 1083 349 1083 349 1004 307.5 c 128,-1,80
 925 266 925 266 846 266 c 0,81,82
 792 266 792 266 742 286 c 128,-1,83
 692 306 692 306 654 345.5 c 128,-1,84
 616 385 616 385 593 444 c 128,-1,85
 570 503 570 503 570 582 c 0,86,87
 570 654 570 654 591 723.5 c 128,-1,88
 612 793 612 793 648.5 855 c 128,-1,89
 685 917 685 917 734.5 969.5 c 128,-1,90
 784 1022 784 1022 842 1060 c 128,-1,91
 900 1098 900 1098 963 1119.5 c 128,-1,92
 1026 1141 1026 1141 1090 1141 c 0,93,94
 1136 1141 1136 1141 1175 1129.5 c 128,-1,95
 1214 1118 1214 1118 1244 1096 c 128,-1,96
 1274 1074 1274 1074 1292.5 1043.5 c 128,-1,97
 1311 1013 1311 1013 1316 975 c 1,0,-1
681 560 m 0,98,99
 681 517 681 517 693.5 480.5 c 128,-1,100
 706 444 706 444 730.5 417 c 128,-1,101
 755 390 755 390 791 375 c 128,-1,102
 827 360 827 360 873 360 c 0,103,104
 925 360 925 360 973.5 380.5 c 128,-1,105
 1022 401 1022 401 1064.5 436.5 c 128,-1,106
 1107 472 1107 472 1142.5 520.5 c 128,-1,107
 1178 569 1178 569 1203.5 625 c 128,-1,108
 1229 681 1229 681 1243 743 c 128,-1,109
 1257 805 1257 805 1257 867 c 0,110,111
 1257 905 1257 905 1247.5 937.5 c 128,-1,112
 1238 970 1238 970 1216.5 993.5 c 128,-1,113
 1195 1017 1195 1017 1161 1030.5 c 128,-1,114
 1127 1044 1127 1044 1078 1044 c 0,115,116
 1023 1044 1023 1044 972.5 1023 c 128,-1,117
 922 1002 922 1002 878 966 c 128,-1,118
 834 930 834 930 797.5 882 c 128,-1,119
 761 834 761 834 735 780 c 128,-1,120
 709 726 709 726 695 669.5 c 128,-1,121
 681 613 681 613 681 560 c 0,98,99
EndSplineSet
EndChar

StartChar: A
Encoding: 65 65 32
Width: 1425
Flags: W
LayerCount: 2
Fore
SplineSet
177 0 m 1,0,-1
 38 0 l 1,1,-1
 760 1456 l 1,2,-1
 911 1456 l 1,3,-1
 1401 0 l 1,4,-1
 1260 0 l 1,5,-1
 1114 426 l 1,6,-1
 380 426 l 1,7,-1
 177 0 l 1,0,-1
422 520 m 1,8,-1
 1087 520 l 1,9,-1
 892 1168 l 1,10,-1
 830 1389 l 1,11,-1
 736 1168 l 1,12,-1
 422 520 l 1,8,-1
EndSplineSet
EndChar

StartChar: B
Encoding: 66 66 33
Width: 1352
Flags: W
LayerCount: 2
Fore
SplineSet
224 0 m 1,0,-1
 343 1456 l 1,1,-1
 614 1456 l 2,2,3
 675 1456 675 1456 744.5 1454.5 c 128,-1,4
 814 1453 814 1453 882.5 1444 c 128,-1,5
 951 1435 951 1435 1014 1416 c 128,-1,6
 1077 1397 1077 1397 1125 1361.5 c 128,-1,7
 1173 1326 1173 1326 1201.5 1271.5 c 128,-1,8
 1230 1217 1230 1217 1230 1137 c 0,9,10
 1230 1064 1230 1064 1202 1001.5 c 128,-1,11
 1174 939 1174 939 1125.5 891 c 128,-1,12
 1077 843 1077 843 1012 810 c 128,-1,13
 947 777 947 777 874 763 c 1,14,15
 958 760 958 760 1026 736 c 128,-1,16
 1094 712 1094 712 1142.5 668.5 c 128,-1,17
 1191 625 1191 625 1217.5 563.5 c 128,-1,18
 1244 502 1244 502 1244 424 c 0,19,20
 1244 340 1244 340 1211.5 263.5 c 128,-1,21
 1179 187 1179 187 1115 128.5 c 128,-1,22
 1051 70 1051 70 957 35 c 128,-1,23
 863 0 863 0 739 0 c 2,24,-1
 224 0 l 1,0,-1
408 699 m 1,25,-1
 360 114 l 1,26,-1
 679 114 l 2,27,28
 781 114 781 114 861 132.5 c 128,-1,29
 941 151 941 151 996 189 c 128,-1,30
 1051 227 1051 227 1080 285 c 128,-1,31
 1109 343 1109 343 1109 423 c 0,32,33
 1109 502 1109 502 1079.5 555 c 128,-1,34
 1050 608 1050 608 993 640 c 128,-1,35
 936 672 936 672 852.5 685.5 c 128,-1,36
 769 699 769 699 661 699 c 2,37,-1
 408 699 l 1,25,-1
416 812 m 1,38,-1
 642 812 l 2,39,40
 725 812 725 812 806 825 c 128,-1,41
 887 838 887 838 950.5 871 c 128,-1,42
 1014 904 1014 904 1053.5 961 c 128,-1,43
 1093 1018 1093 1018 1093 1106 c 0,44,45
 1093 1181 1093 1181 1062.5 1227 c 128,-1,46
 1032 1273 1032 1273 978 1298.5 c 128,-1,47
 924 1324 924 1324 851.5 1333 c 128,-1,48
 779 1342 779 1342 695 1342 c 2,49,-1
 460 1342 l 1,50,-1
 416 812 l 1,38,-1
EndSplineSet
EndChar

StartChar: C
Encoding: 67 67 34
Width: 1399
Flags: W
LayerCount: 2
Fore
SplineSet
1302 1266 m 1,0,1
 1240 1317 1240 1317 1152.5 1342.5 c 128,-1,2
 1065 1368 1065 1368 954 1368 c 0,3,4
 848 1368 848 1368 760 1339.5 c 128,-1,5
 672 1311 672 1311 601.5 1261 c 128,-1,6
 531 1211 531 1211 478.5 1143 c 128,-1,7
 426 1075 426 1075 390.5 995.5 c 128,-1,8
 355 916 355 916 337.5 829 c 128,-1,9
 320 742 320 742 320 655 c 0,10,11
 320 540 320 540 349.5 437.5 c 128,-1,12
 379 335 379 335 441.5 258 c 128,-1,13
 504 181 504 181 601 136 c 128,-1,14
 698 91 698 91 833 91 c 0,15,16
 965 91 965 91 1076.5 122 c 128,-1,17
 1188 153 1188 153 1263 215 c 1,18,-1
 1298 118 l 1,19,20
 1207 49 1207 49 1078.5 13 c 128,-1,21
 950 -23 950 -23 792 -23 c 0,22,23
 641 -23 641 -23 526.5 29 c 128,-1,24
 412 81 412 81 335.5 171.5 c 128,-1,25
 259 262 259 262 220 384 c 128,-1,26
 181 506 181 506 181 647 c 0,27,28
 181 758 181 758 205.5 863 c 128,-1,29
 230 968 230 968 276 1061 c 128,-1,30
 322 1154 322 1154 389 1231.5 c 128,-1,31
 456 1309 456 1309 541 1365 c 128,-1,32
 626 1421 626 1421 728 1452 c 128,-1,33
 830 1483 830 1483 947 1483 c 0,34,35
 1078 1483 1078 1483 1177 1449.5 c 128,-1,36
 1276 1416 1276 1416 1356 1341 c 1,37,-1
 1302 1266 l 1,0,1
EndSplineSet
EndChar

StartChar: D
Encoding: 68 68 35
Width: 1546
Flags: W
LayerCount: 2
Fore
SplineSet
330 1456 m 1,0,-1
 629 1456 l 2,1,2
 757 1456 757 1456 871 1445 c 128,-1,3
 985 1434 985 1434 1081 1405.5 c 128,-1,4
 1177 1377 1177 1377 1253 1328.5 c 128,-1,5
 1329 1280 1329 1280 1382.5 1205.5 c 128,-1,6
 1436 1131 1436 1131 1464 1028 c 128,-1,7
 1492 925 1492 925 1492 787 c 0,8,9
 1492 608 1492 608 1431.5 462.5 c 128,-1,10
 1371 317 1371 317 1257.5 214 c 128,-1,11
 1144 111 1144 111 981.5 55.5 c 128,-1,12
 819 0 819 0 616 0 c 2,13,-1
 211 0 l 1,14,-1
 330 1456 l 1,0,-1
349 114 m 1,15,-1
 644 114 l 2,16,17
 824 114 824 114 957.5 163.5 c 128,-1,18
 1091 213 1091 213 1179 301 c 128,-1,19
 1267 389 1267 389 1310 511 c 128,-1,20
 1353 633 1353 633 1353 777 c 0,21,22
 1353 935 1353 935 1306.5 1043 c 128,-1,23
 1260 1151 1260 1151 1169.5 1217.5 c 128,-1,24
 1079 1284 1079 1284 945.5 1313 c 128,-1,25
 812 1342 812 1342 638 1342 c 2,26,-1
 449 1342 l 1,27,-1
 349 114 l 1,15,-1
EndSplineSet
EndChar

StartChar: E
Encoding: 69 69 36
Width: 1218
Flags: W
LayerCount: 2
Fore
SplineSet
1105 114 m 1,0,-1
 1096 0 l 1,1,-1
 226 0 l 1,2,-1
 345 1456 l 1,3,-1
 1181 1456 l 1,4,-1
 1172 1342 l 1,5,-1
 462 1342 l 1,6,-1
 420 804 l 1,7,-1
 1091 804 l 1,8,-1
 1081 691 l 1,9,-1
 410 691 l 1,10,-1
 362 114 l 1,11,-1
 1105 114 l 1,0,-1
EndSplineSet
EndChar

StartChar: F
Encoding: 70 70 37
Width: 1137
Flags: W
LayerCount: 2
Fore
SplineSet
344 0 m 1,0,-1
 218 0 l 1,1,-1
 337 1456 l 1,2,-1
 1149 1456 l 1,3,-1
 1140 1342 l 1,4,-1
 454 1342 l 1,5,-1
 412 799 l 1,6,-1
 1062 799 l 1,7,-1
 1052 686 l 1,8,-1
 403 686 l 1,9,-1
 344 0 l 1,0,-1
EndSplineSet
EndChar

StartChar: G
Encoding: 71 71 38
Width: 1530
Flags: W
LayerCount: 2
Fore
SplineSet
905 624 m 1,0,-1
 915 738 l 1,1,-1
 1413 738 l 1,2,-1
 1358 75 l 1,3,4
 1242 21 1242 21 1114.5 -1 c 128,-1,5
 987 -23 987 -23 859 -23 c 0,6,7
 692 -23 692 -23 566.5 24 c 128,-1,8
 441 71 441 71 357 156.5 c 128,-1,9
 273 242 273 242 230.5 363 c 128,-1,10
 188 484 188 484 188 631 c 0,11,12
 188 747 188 747 212.5 855 c 128,-1,13
 237 963 237 963 284 1058 c 128,-1,14
 331 1153 331 1153 399 1231 c 128,-1,15
 467 1309 467 1309 554.5 1365 c 128,-1,16
 642 1421 642 1421 747 1452 c 128,-1,17
 852 1483 852 1483 973 1483 c 0,18,19
 1054 1483 1054 1483 1127.5 1469 c 128,-1,20
 1201 1455 1201 1455 1260.5 1427 c 128,-1,21
 1320 1399 1320 1399 1361.5 1357 c 128,-1,22
 1403 1315 1403 1315 1420 1259 c 1,23,-1
 1358 1189 l 1,24,25
 1337 1235 1337 1235 1298 1268.5 c 128,-1,26
 1259 1302 1259 1302 1206 1324 c 128,-1,27
 1153 1346 1153 1346 1089 1357 c 128,-1,28
 1025 1368 1025 1368 953 1368 c 0,29,30
 852 1368 852 1368 766 1340.5 c 128,-1,31
 680 1313 680 1313 610 1264 c 128,-1,32
 540 1215 540 1215 486.5 1148 c 128,-1,33
 433 1081 433 1081 396.5 1002 c 128,-1,34
 360 923 360 923 341.5 835.5 c 128,-1,35
 323 748 323 748 323 658 c 0,36,37
 323 530 323 530 357.5 425 c 128,-1,38
 392 320 392 320 462 246 c 128,-1,39
 532 172 532 172 637.5 131.5 c 128,-1,40
 743 91 743 91 885 91 c 0,41,42
 982 91 982 91 1071 106 c 128,-1,43
 1160 121 1160 121 1239 157 c 1,44,-1
 1277 624 l 1,45,-1
 905 624 l 1,0,-1
EndSplineSet
EndChar

StartChar: H
Encoding: 72 72 39
Width: 1555
Flags: W
LayerCount: 2
Fore
SplineSet
349 0 m 1,0,-1
 220 0 l 1,1,-1
 339 1456 l 1,2,-1
 468 1456 l 1,3,-1
 414 806 l 1,4,-1
 1286 806 l 1,5,-1
 1338 1456 l 1,6,-1
 1466 1456 l 1,7,-1
 1347 0 l 1,8,-1
 1219 0 l 1,9,-1
 1277 693 l 1,10,-1
 405 693 l 1,11,-1
 349 0 l 1,0,-1
EndSplineSet
EndChar

StartChar: I
Encoding: 73 73 40
Width: 591
Flags: W
LayerCount: 2
Fore
SplineSet
364 0 m 1,0,-1
 235 0 l 1,1,-1
 354 1456 l 1,2,-1
 483 1456 l 1,3,-1
 364 0 l 1,0,-1
EndSplineSet
EndChar

StartChar: J
Encoding: 74 74 41
Width: 939
Flags: W
LayerCount: 2
Fore
SplineSet
177 126 m 1,0,1
 232 91 232 91 339 91 c 0,2,3
 415 91 415 91 470.5 118.5 c 128,-1,4
 526 146 526 146 563.5 197 c 128,-1,5
 601 248 601 248 622 320.5 c 128,-1,6
 643 393 643 393 651 482 c 2,7,-1
 733 1456 l 1,8,-1
 861 1456 l 1,9,-1
 782 493 l 2,10,11
 771 361 771 361 735 264 c 128,-1,12
 699 167 699 167 640.5 103 c 128,-1,13
 582 39 582 39 502 8 c 128,-1,14
 422 -23 422 -23 323 -23 c 0,15,16
 266 -23 266 -23 222.5 -9 c 128,-1,17
 179 5 179 5 147 31 c 1,18,-1
 177 126 l 1,0,1
EndSplineSet
EndChar

StartChar: K
Encoding: 75 75 42
Width: 1294
Flags: W
LayerCount: 2
Fore
SplineSet
419 769 m 1,0,-1
 1171 1456 l 1,1,-1
 1332 1456 l 1,2,-1
 592 758 l 1,3,-1
 1271 0 l 1,4,-1
 1088 0 l 1,5,-1
 419 759 l 1,6,-1
 356 0 l 1,7,-1
 228 0 l 1,8,-1
 347 1456 l 1,9,-1
 475 1456 l 1,10,-1
 419 769 l 1,0,-1
EndSplineSet
EndChar

StartChar: L
Encoding: 76 76 43
Width: 1120
Flags: W
LayerCount: 2
Fore
SplineSet
1067 0 m 1,0,-1
 224 0 l 1,1,-1
 343 1456 l 1,2,-1
 469 1456 l 1,3,-1
 362 114 l 1,4,-1
 1077 114 l 1,5,-1
 1067 0 l 1,0,-1
EndSplineSet
EndChar

StartChar: M
Encoding: 77 77 44
Width: 2002
Flags: W
LayerCount: 2
Fore
SplineSet
342 0 m 1,0,-1
 216 0 l 1,1,-1
 335 1456 l 1,2,-1
 537 1456 l 1,3,-1
 931 396 l 1,4,-1
 1023 135 l 1,5,-1
 1154 395 l 1,6,-1
 1721 1456 l 1,7,-1
 1921 1456 l 1,8,-1
 1802 0 l 1,9,-1
 1676 0 l 1,10,-1
 1750 940 l 1,11,-1
 1804 1390 l 1,12,-1
 1672 1149 l 1,13,-1
 1057 0 l 1,14,-1
 962 0 l 1,15,-1
 542 1124 l 1,16,-1
 453 1380 l 1,17,-1
 413 937 l 1,18,-1
 342 0 l 1,0,-1
EndSplineSet
EndChar

StartChar: N
Encoding: 78 78 45
Width: 1594
Flags: W
LayerCount: 2
Fore
SplineSet
446 1322 m 1,0,-1
 425 1056 l 1,1,-1
 339 0 l 1,2,-1
 212 0 l 1,3,-1
 331 1456 l 1,4,-1
 502 1456 l 1,5,-1
 1170 323 l 1,6,-1
 1287 102 l 1,7,-1
 1308 442 l 1,8,-1
 1388 1456 l 1,9,-1
 1514 1456 l 1,10,-1
 1395 0 l 1,11,-1
 1221 0 l 1,12,-1
 550 1132 l 1,13,-1
 446 1322 l 1,0,-1
EndSplineSet
EndChar

StartChar: O
Encoding: 79 79 46
Width: 1663
Flags: W
LayerCount: 2
Fore
SplineSet
1609 801 m 0,0,1
 1609 621 1609 621 1555 469.5 c 128,-1,2
 1501 318 1501 318 1400.5 208.5 c 128,-1,3
 1300 99 1300 99 1157 38 c 128,-1,4
 1014 -23 1014 -23 836 -23 c 0,5,6
 683 -23 683 -23 562.5 25 c 128,-1,7
 442 73 442 73 358.5 161.5 c 128,-1,8
 275 250 275 250 231.5 375.5 c 128,-1,9
 188 501 188 501 188 656 c 0,10,11
 188 836 188 836 242 987.5 c 128,-1,12
 296 1139 296 1139 396.5 1249 c 128,-1,13
 497 1359 497 1359 641 1421 c 128,-1,14
 785 1483 785 1483 965 1483 c 0,15,16
 1117 1483 1117 1483 1236.5 1434.5 c 128,-1,17
 1356 1386 1356 1386 1439 1297 c 128,-1,18
 1522 1208 1522 1208 1565.5 1082 c 128,-1,19
 1609 956 1609 956 1609 801 c 0,0,1
325 669 m 0,20,21
 325 546 325 546 358 440.5 c 128,-1,22
 391 335 391 335 456 257.5 c 128,-1,23
 521 180 521 180 619 135.5 c 128,-1,24
 717 91 717 91 846 91 c 0,25,26
 998 91 998 91 1114 145.5 c 128,-1,27
 1230 200 1230 200 1308 296 c 128,-1,28
 1386 392 1386 392 1425.5 522.5 c 128,-1,29
 1465 653 1465 653 1465 805 c 0,30,31
 1465 923 1465 923 1433.5 1026 c 128,-1,32
 1402 1129 1402 1129 1337.5 1205 c 128,-1,33
 1273 1281 1273 1281 1176 1325 c 128,-1,34
 1079 1369 1079 1369 947 1369 c 0,35,36
 798 1369 798 1369 682 1311 c 128,-1,37
 566 1253 566 1253 486.5 1156 c 128,-1,38
 407 1059 407 1059 366 932.5 c 128,-1,39
 325 806 325 806 325 669 c 0,20,21
EndSplineSet
EndChar

StartChar: P
Encoding: 80 80 47
Width: 1274
Flags: W
LayerCount: 2
Fore
SplineSet
350 0 m 1,0,-1
 224 0 l 1,1,-1
 343 1456 l 1,2,-1
 665 1456 l 2,3,4
 746 1456 746 1456 822.5 1449 c 128,-1,5
 899 1442 899 1442 967.5 1425 c 128,-1,6
 1036 1408 1036 1408 1093 1379 c 128,-1,7
 1150 1350 1150 1350 1191 1306.5 c 128,-1,8
 1232 1263 1232 1263 1255 1202 c 128,-1,9
 1278 1141 1278 1141 1278 1061 c 0,10,11
 1278 939 1278 939 1226 852.5 c 128,-1,12
 1174 766 1174 766 1087 710.5 c 128,-1,13
 1000 655 1000 655 886.5 629 c 128,-1,14
 773 603 773 603 649 603 c 2,15,-1
 403 603 l 1,16,-1
 350 0 l 1,0,-1
413 717 m 1,17,-1
 703 717 l 2,18,19
 798 717 798 717 878 736.5 c 128,-1,20
 958 756 958 756 1016.5 797 c 128,-1,21
 1075 838 1075 838 1108 901 c 128,-1,22
 1141 964 1141 964 1141 1051 c 256,23,24
 1141 1138 1141 1138 1109 1194.5 c 128,-1,25
 1077 1251 1077 1251 1019 1283.5 c 128,-1,26
 961 1316 961 1316 879.5 1329 c 128,-1,27
 798 1342 798 1342 700 1342 c 2,28,-1
 460 1342 l 1,29,-1
 413 717 l 1,17,-1
EndSplineSet
EndChar

StartChar: Q
Encoding: 81 81 48
Width: 1664
Flags: W
LayerCount: 2
Fore
SplineSet
325 669 m 0,0,1
 325 547 325 547 357.5 441.5 c 128,-1,2
 390 336 390 336 455.5 258 c 128,-1,3
 521 180 521 180 618.5 135.5 c 128,-1,4
 716 91 716 91 846 91 c 0,5,6
 998 91 998 91 1114 145.5 c 128,-1,7
 1230 200 1230 200 1308 296 c 128,-1,8
 1386 392 1386 392 1425.5 522.5 c 128,-1,9
 1465 653 1465 653 1465 805 c 0,10,11
 1465 923 1465 923 1433.5 1026 c 128,-1,12
 1402 1129 1402 1129 1337.5 1205 c 128,-1,13
 1273 1281 1273 1281 1176 1324.5 c 128,-1,14
 1079 1368 1079 1368 947 1368 c 0,15,16
 847 1368 847 1368 762.5 1341.5 c 128,-1,17
 678 1315 678 1315 609 1268 c 128,-1,18
 540 1221 540 1221 487 1155.5 c 128,-1,19
 434 1090 434 1090 398 1012.5 c 128,-1,20
 362 935 362 935 343.5 847.5 c 128,-1,21
 325 760 325 760 325 669 c 0,0,1
1590 -188 m 1,22,23
 1562 -193 1562 -193 1521.5 -195.5 c 128,-1,24
 1481 -198 1481 -198 1443 -198 c 0,25,26
 1332 -198 1332 -198 1253.5 -192 c 128,-1,27
 1175 -186 1175 -186 1119 -174.5 c 128,-1,28
 1063 -163 1063 -163 1025 -146.5 c 128,-1,29
 987 -130 987 -130 958 -110 c 128,-1,30
 929 -90 929 -90 903.5 -67 c 128,-1,31
 878 -44 878 -44 847 -18 c 1,32,33
 698 -18 698 -18 577.5 30 c 128,-1,34
 457 78 457 78 372 168.5 c 128,-1,35
 287 259 287 259 241 388.5 c 128,-1,36
 195 518 195 518 195 681 c 0,37,38
 195 856 195 856 250 1003.5 c 128,-1,39
 305 1151 305 1151 406 1257.5 c 128,-1,40
 507 1364 507 1364 649 1423.5 c 128,-1,41
 791 1483 791 1483 966 1483 c 0,42,43
 1118 1483 1118 1483 1237.5 1434 c 128,-1,44
 1357 1385 1357 1385 1439.5 1296 c 128,-1,45
 1522 1207 1522 1207 1565.5 1083.5 c 128,-1,46
 1609 960 1609 960 1609 810 c 0,47,48
 1609 658 1609 658 1568 518.5 c 128,-1,49
 1527 379 1527 379 1447 268 c 128,-1,50
 1367 157 1367 157 1249.5 83.5 c 128,-1,51
 1132 10 1132 10 980 -10 c 1,52,53
 1015 -36 1015 -36 1075.5 -50 c 128,-1,54
 1136 -64 1136 -64 1204 -71 c 128,-1,55
 1272 -78 1272 -78 1338 -79.5 c 128,-1,56
 1404 -81 1404 -81 1451 -81 c 0,57,58
 1495 -81 1495 -81 1534 -78.5 c 128,-1,59
 1573 -76 1573 -76 1599 -72 c 1,60,-1
 1590 -188 l 1,22,23
EndSplineSet
EndChar

StartChar: R
Encoding: 82 82 49
Width: 1377
Flags: W
LayerCount: 2
Fore
SplineSet
1139 0 m 1,0,-1
 1019 416 l 2,1,2
 998 489 998 489 974.5 537.5 c 128,-1,3
 951 586 951 586 916.5 615 c 128,-1,4
 882 644 882 644 832 656 c 128,-1,5
 782 668 782 668 707 668 c 2,6,-1
 409 668 l 1,7,-1
 353 0 l 1,8,-1
 227 0 l 1,9,-1
 346 1456 l 1,10,-1
 682 1456 l 2,11,12
 739 1456 739 1456 805.5 1454 c 128,-1,13
 872 1452 872 1452 939 1442 c 128,-1,14
 1006 1432 1006 1432 1068 1411 c 128,-1,15
 1130 1390 1130 1390 1178 1351.5 c 128,-1,16
 1226 1313 1226 1313 1255 1254 c 128,-1,17
 1284 1195 1284 1195 1284 1110 c 0,18,19
 1284 1030 1284 1030 1256.5 965.5 c 128,-1,20
 1229 901 1229 901 1179 852 c 128,-1,21
 1129 803 1129 803 1060 770.5 c 128,-1,22
 991 738 991 738 907 724 c 1,23,24
 905 718 905 718 905 713 c 1,25,26
 975 699 975 699 1017.5 664.5 c 128,-1,27
 1060 630 1060 630 1090.5 570 c 128,-1,28
 1121 510 1121 510 1147.5 421 c 128,-1,29
 1174 332 1174 332 1214 209 c 1,30,-1
 1278 0 l 1,31,-1
 1139 0 l 1,0,-1
421 783 m 1,32,-1
 715 783 l 2,33,34
 791 783 791 783 867.5 796.5 c 128,-1,35
 944 810 944 810 1005.5 844.5 c 128,-1,36
 1067 879 1067 879 1106 938 c 128,-1,37
 1145 997 1145 997 1145 1088 c 0,38,39
 1145 1164 1145 1164 1116.5 1213.5 c 128,-1,40
 1088 1263 1088 1263 1037.5 1291.5 c 128,-1,41
 987 1320 987 1320 917.5 1331 c 128,-1,42
 848 1342 848 1342 766 1342 c 2,43,-1
 465 1342 l 1,44,-1
 421 783 l 1,32,-1
EndSplineSet
EndChar

StartChar: S
Encoding: 83 83 50
Width: 1244
Flags: W
LayerCount: 2
Fore
SplineSet
226 250 m 1,0,1
 271 195 271 195 318.5 163.5 c 128,-1,2
 366 132 366 132 414 116 c 128,-1,3
 462 100 462 100 510.5 95.5 c 128,-1,4
 559 91 559 91 607 91 c 0,5,6
 697 91 697 91 772.5 109 c 128,-1,7
 848 127 848 127 903 162.5 c 128,-1,8
 958 198 958 198 988.5 250.5 c 128,-1,9
 1019 303 1019 303 1019 372 c 256,10,11
 1019 441 1019 441 986 489 c 128,-1,12
 953 537 953 537 898.5 573 c 128,-1,13
 844 609 844 609 775 637 c 128,-1,14
 706 665 706 665 633.5 693 c 128,-1,15
 561 721 561 721 492 753 c 128,-1,16
 423 785 423 785 368.5 829.5 c 128,-1,17
 314 874 314 874 281 934.5 c 128,-1,18
 248 995 248 995 248 1080 c 0,19,20
 248 1146 248 1146 270 1201.5 c 128,-1,21
 292 1257 292 1257 330 1302 c 128,-1,22
 368 1347 368 1347 420 1381 c 128,-1,23
 472 1415 472 1415 533 1437.5 c 128,-1,24
 594 1460 594 1460 660.5 1471.5 c 128,-1,25
 727 1483 727 1483 795 1483 c 0,26,27
 843 1483 843 1483 893.5 1476.5 c 128,-1,28
 944 1470 944 1470 993 1455 c 128,-1,29
 1042 1440 1042 1440 1086.5 1414.5 c 128,-1,30
 1131 1389 1131 1389 1167 1351 c 1,31,-1
 1111 1258 l 1,32,33
 1079 1288 1079 1288 1040.5 1309 c 128,-1,34
 1002 1330 1002 1330 960 1343 c 128,-1,35
 918 1356 918 1356 873 1362 c 128,-1,36
 828 1368 828 1368 784 1368 c 0,37,38
 714 1368 714 1368 643.5 1353 c 128,-1,39
 573 1338 573 1338 516 1305.5 c 128,-1,40
 459 1273 459 1273 423.5 1222 c 128,-1,41
 388 1171 388 1171 388 1099 c 0,42,43
 388 1033 388 1033 421 986 c 128,-1,44
 454 939 454 939 508.5 902 c 128,-1,45
 563 865 563 865 632.5 835.5 c 128,-1,46
 702 806 702 806 774 776.5 c 128,-1,47
 846 747 846 747 915.5 713 c 128,-1,48
 985 679 985 679 1039.5 633.5 c 128,-1,49
 1094 588 1094 588 1127 527 c 128,-1,50
 1160 466 1160 466 1160 383 c 0,51,52
 1160 307 1160 307 1136 248 c 128,-1,53
 1112 189 1112 189 1069.5 143.5 c 128,-1,54
 1027 98 1027 98 970.5 66.5 c 128,-1,55
 914 35 914 35 849 15 c 128,-1,56
 784 -5 784 -5 714.5 -14 c 128,-1,57
 645 -23 645 -23 576 -23 c 0,58,59
 448 -23 448 -23 340.5 25.5 c 128,-1,60
 233 74 233 74 166 170 c 1,61,-1
 226 250 l 1,0,1
EndSplineSet
EndChar

StartChar: T
Encoding: 84 84 51
Width: 1174
Flags: W
LayerCount: 2
Fore
SplineSet
530 0 m 1,0,-1
 638 1342 l 1,1,-1
 157 1342 l 1,2,-1
 166 1456 l 1,3,-1
 1254 1456 l 1,4,-1
 1245 1342 l 1,5,-1
 769 1342 l 1,6,-1
 657 0 l 1,7,-1
 530 0 l 1,0,-1
EndSplineSet
EndChar

StartChar: U
Encoding: 85 85 52
Width: 1532
Flags: W
LayerCount: 2
Fore
SplineSet
1326 1456 m 1,0,-1
 1452 1456 l 1,1,-1
 1376 548 l 2,2,3
 1365 414 1365 414 1321 308 c 128,-1,4
 1277 202 1277 202 1200.5 128.5 c 128,-1,5
 1124 55 1124 55 1014.5 16 c 128,-1,6
 905 -23 905 -23 763 -23 c 0,7,8
 632 -23 632 -23 535.5 10.5 c 128,-1,9
 439 44 439 44 375 107.5 c 128,-1,10
 311 171 311 171 279.5 263 c 128,-1,11
 248 355 248 355 248 472 c 0,12,13
 248 489 248 489 248 502 c 128,-1,14
 248 515 248 515 250 532 c 2,15,-1
 328 1456 l 1,16,-1
 453 1456 l 1,17,-1
 379 543 l 2,18,19
 378 535 378 535 378 529.5 c 128,-1,20
 378 524 378 524 378 519 c 0,21,22
 378 307 378 307 477 199 c 128,-1,23
 576 91 576 91 782 91 c 0,24,25
 888 91 888 91 970.5 116 c 128,-1,26
 1053 141 1053 141 1111.5 194 c 128,-1,27
 1170 247 1170 247 1204 331 c 128,-1,28
 1238 415 1238 415 1248 533 c 2,29,-1
 1326 1456 l 1,0,-1
EndSplineSet
EndChar

StartChar: V
Encoding: 86 86 53
Width: 1336
Flags: W
LayerCount: 2
Fore
SplineSet
686 100 m 1,0,-1
 774 301 l 1,1,-1
 1297 1456 l 1,2,-1
 1433 1456 l 1,3,-1
 750 0 l 1,4,-1
 595 0 l 1,5,-1
 149 1456 l 1,6,-1
 291 1456 l 1,7,-1
 630 300 l 1,8,-1
 686 100 l 1,9,-1
 686 100 l 1,0,-1
EndSplineSet
EndChar

StartChar: W
Encoding: 87 87 54
Width: 2103
Flags: W
LayerCount: 2
Fore
SplineSet
1589 67 m 1,0,-1
 1666 316 l 1,1,-1
 2074 1456 l 1,2,-1
 2201 1456 l 1,3,-1
 1663 0 l 1,4,-1
 1489 0 l 1,5,-1
 1174 1325 l 1,6,-1
 645 0 l 1,7,-1
 463 0 l 1,8,-1
 152 1456 l 1,9,-1
 294 1456 l 1,10,-1
 518 337 l 1,11,-1
 568 58 l 1,12,-1
 657 318 l 1,13,-1
 1110 1456 l 1,14,-1
 1260 1456 l 1,15,-1
 1530 333 l 1,16,-1
 1589 67 l 1,0,-1
EndSplineSet
EndChar

StartChar: X
Encoding: 88 88 55
Width: 1304
Flags: W
LayerCount: 2
Fore
SplineSet
640 741 m 1,0,-1
 196 1456 l 1,1,-1
 362 1456 l 1,2,-1
 655 952 l 1,3,-1
 732 820 l 1,4,-1
 840 953 l 1,5,-1
 1228 1456 l 1,6,-1
 1374 1456 l 1,7,-1
 806 742 l 1,8,-1
 1269 0 l 1,9,-1
 1106 0 l 1,10,-1
 791 534 l 1,11,-1
 715 664 l 1,12,-1
 615 537 l 1,13,-1
 199 0 l 1,14,-1
 45 0 l 1,15,-1
 640 741 l 1,0,-1
EndSplineSet
EndChar

StartChar: Y
Encoding: 89 89 56
Width: 1266
Flags: W
LayerCount: 2
Fore
SplineSet
752 588 m 1,0,-1
 701 0 l 1,1,-1
 574 0 l 1,2,-1
 625 582 l 1,3,-1
 156 1456 l 1,4,-1
 300 1456 l 1,5,-1
 696 691 l 1,6,-1
 1219 1456 l 1,7,-1
 1357 1456 l 1,8,-1
 752 588 l 1,0,-1
EndSplineSet
EndChar

StartChar: Z
Encoding: 90 90 57
Width: 1222
Flags: W
LayerCount: 2
Fore
SplineSet
1143 0 m 1,0,-1
 76 0 l 1,1,-1
 84 70 l 1,2,-1
 1087 1342 l 1,3,-1
 217 1342 l 1,4,-1
 227 1456 l 1,5,-1
 1270 1456 l 1,6,-1
 1262 1390 l 1,7,-1
 254 114 l 1,8,-1
 1152 114 l 1,9,-1
 1143 0 l 1,0,-1
EndSplineSet
EndChar

StartChar: bracketleft
Encoding: 91 91 58
Width: 628
Flags: W
LayerCount: 2
Fore
SplineSet
515 -268 m 1,0,-1
 199 -268 l 1,1,-1
 333 1467 l 1,2,-1
 650 1467 l 1,3,-1
 642 1379 l 1,4,-1
 443 1379 l 1,5,-1
 324 -181 l 1,6,-1
 523 -181 l 1,7,-1
 515 -268 l 1,0,-1
EndSplineSet
EndChar

StartChar: backslash
Encoding: 92 92 59
Width: 706
Flags: W
LayerCount: 2
Fore
SplineSet
644 -122 m 1,0,-1
 72 1467 l 1,1,-1
 190 1467 l 1,2,-1
 761 -122 l 1,3,-1
 644 -122 l 1,0,-1
EndSplineSet
EndChar

StartChar: bracketright
Encoding: 93 93 60
Width: 628
Flags: W
LayerCount: 2
Fore
SplineSet
242 1467 m 1,0,-1
 542 1467 l 1,1,-1
 405 -268 l 1,2,-1
 90 -268 l 1,3,-1
 98 -181 l 1,4,-1
 295 -181 l 1,5,-1
 416 1379 l 1,6,-1
 217 1379 l 1,7,-1
 242 1467 l 1,0,-1
EndSplineSet
EndChar

StartChar: asciicircum
Encoding: 94 94 61
Width: 1457
Flags: W
LayerCount: 2
Fore
SplineSet
261 569 m 1,0,-1
 808 1448 l 1,1,-1
 878 1448 l 1,2,-1
 1298 569 l 1,3,-1
 1190 569 l 1,4,-1
 840 1318 l 1,5,-1
 833 1318 l 1,6,-1
 367 569 l 1,7,-1
 261 569 l 1,0,-1
EndSplineSet
EndChar

StartChar: underscore
Encoding: 95 95 62
Width: 998
Flags: W
LayerCount: 2
Fore
SplineSet
980 -282 m 1,0,-1
 -9 -282 l 1,1,-1
 0 -189 l 1,2,-1
 989 -189 l 1,3,-1
 980 -282 l 1,0,-1
EndSplineSet
EndChar

StartChar: grave
Encoding: 96 96 63
Width: 593
Flags: W
LayerCount: 2
Fore
SplineSet
165 1508 m 1,0,-1
 323 1508 l 1,1,-1
 529 1216 l 1,2,-1
 447 1216 l 1,3,-1
 165 1508 l 1,0,-1
EndSplineSet
EndChar

StartChar: a
Encoding: 97 97 64
Width: 1244
Flags: W
LayerCount: 2
Fore
SplineSet
677 1051 m 0,0,1
 749 1051 749 1051 805.5 1035.5 c 128,-1,2
 862 1020 862 1020 907.5 991.5 c 128,-1,3
 953 963 953 963 989 922 c 128,-1,4
 1025 881 1025 881 1057 829 c 1,5,-1
 1077 1026 l 1,6,-1
 1200 1026 l 1,7,-1
 1178 782 l 1,8,-1
 1115 0 l 1,9,-1
 992 0 l 1,10,-1
 1011 219 l 1,11,12
 994 178 994 178 956 135.5 c 128,-1,13
 918 93 918 93 862.5 57.5 c 128,-1,14
 807 22 807 22 738 -0.5 c 128,-1,15
 669 -23 669 -23 591 -23 c 0,16,17
 473 -23 473 -23 389 21.5 c 128,-1,18
 305 66 305 66 251.5 137.5 c 128,-1,19
 198 209 198 209 173 299.5 c 128,-1,20
 148 390 148 390 148 482 c 0,21,22
 148 552 148 552 163 621.5 c 128,-1,23
 178 691 178 691 208 754.5 c 128,-1,24
 238 818 238 818 282 872 c 128,-1,25
 326 926 326 926 385 966 c 128,-1,26
 444 1006 444 1006 517 1028.5 c 128,-1,27
 590 1051 590 1051 677 1051 c 0,0,1
1037 525 m 1,28,29
 1037 606 1037 606 1021.5 682.5 c 128,-1,30
 1006 759 1006 759 966 819 c 128,-1,31
 926 879 926 879 856.5 915 c 128,-1,32
 787 951 787 951 679 951 c 256,33,34
 571 951 571 951 492.5 908 c 128,-1,35
 414 865 414 865 364 797 c 128,-1,36
 314 729 314 729 290 645.5 c 128,-1,37
 266 562 266 562 266 482 c 0,38,39
 266 404 266 404 281.5 331 c 128,-1,40
 297 258 297 258 337 201 c 128,-1,41
 377 144 377 144 445.5 109.5 c 128,-1,42
 514 75 514 75 619 75 c 0,43,44
 698 75 698 75 771 101 c 128,-1,45
 844 127 844 127 901 180 c 128,-1,46
 958 233 958 233 994 313 c 128,-1,47
 1030 393 1030 393 1036 500 c 1,48,-1
 1037 525 l 1,28,29
EndSplineSet
EndChar

StartChar: b
Encoding: 98 98 65
Width: 1239
Flags: W
LayerCount: 2
Fore
SplineSet
293 0 m 1,0,-1
 172 0 l 1,1,-1
 194 261 l 1,2,-1
 295 1508 l 1,3,-1
 416 1508 l 1,4,-1
 364 816 l 1,5,6
 399 875 399 875 445.5 919 c 128,-1,7
 492 963 492 963 546.5 992.5 c 128,-1,8
 601 1022 601 1022 662 1036.5 c 128,-1,9
 723 1051 723 1051 787 1051 c 0,10,11
 893 1051 893 1051 968.5 1013.5 c 128,-1,12
 1044 976 1044 976 1092 912.5 c 128,-1,13
 1140 849 1140 849 1162.5 764 c 128,-1,14
 1185 679 1185 679 1185 583 c 0,15,16
 1185 460 1185 460 1152.5 350 c 128,-1,17
 1120 240 1120 240 1056 157 c 128,-1,18
 992 74 992 74 897 25.5 c 128,-1,19
 802 -23 802 -23 678 -23 c 0,20,21
 553 -23 553 -23 462 31.5 c 128,-1,22
 371 86 371 86 314 193 c 1,23,-1
 293 0 l 1,0,-1
738 951 m 0,24,25
 662 951 662 951 602.5 931 c 128,-1,26
 543 911 543 911 498.5 875 c 128,-1,27
 454 839 454 839 422.5 789.5 c 128,-1,28
 391 740 391 740 371.5 682 c 128,-1,29
 352 624 352 624 343 559 c 128,-1,30
 334 494 334 494 334 427 c 0,31,32
 334 355 334 355 355 291 c 128,-1,33
 376 227 376 227 417.5 179 c 128,-1,34
 459 131 459 131 521 103 c 128,-1,35
 583 75 583 75 665 75 c 0,36,37
 737 75 737 75 794.5 96 c 128,-1,38
 852 117 852 117 895.5 153.5 c 128,-1,39
 939 190 939 190 970.5 239.5 c 128,-1,40
 1002 289 1002 289 1021.5 345 c 128,-1,41
 1041 401 1041 401 1050.5 461 c 128,-1,42
 1060 521 1060 521 1060 580 c 0,43,44
 1060 657 1060 657 1041 724.5 c 128,-1,45
 1022 792 1022 792 982.5 842.5 c 128,-1,46
 943 893 943 893 882.5 922 c 128,-1,47
 822 951 822 951 738 951 c 0,24,25
EndSplineSet
EndChar

StartChar: c
Encoding: 99 99 66
Width: 1046
Flags: W
LayerCount: 2
Fore
SplineSet
969 848 m 1,0,1
 931 899 931 899 862 925 c 128,-1,2
 793 951 793 951 705 951 c 0,3,4
 607 951 607 951 528.5 912.5 c 128,-1,5
 450 874 450 874 394.5 808.5 c 128,-1,6
 339 743 339 743 309 655.5 c 128,-1,7
 279 568 279 568 279 470 c 0,8,9
 279 385 279 385 299.5 312.5 c 128,-1,10
 320 240 320 240 363.5 187.5 c 128,-1,11
 407 135 407 135 474.5 105 c 128,-1,12
 542 75 542 75 635 75 c 0,13,14
 820 75 820 75 945 175 c 1,15,-1
 968 78 l 1,16,17
 898 24 898 24 808 0.5 c 128,-1,18
 718 -23 718 -23 612 -23 c 0,19,20
 495 -23 495 -23 408.5 14 c 128,-1,21
 322 51 322 51 264 115.5 c 128,-1,22
 206 180 206 180 177.5 266.5 c 128,-1,23
 149 353 149 353 149 452 c 0,24,25
 149 574 149 574 186.5 683 c 128,-1,26
 224 792 224 792 295.5 873.5 c 128,-1,27
 367 955 367 955 469.5 1003 c 128,-1,28
 572 1051 572 1051 701 1051 c 0,29,30
 817 1051 817 1051 900 1017.5 c 128,-1,31
 983 984 983 984 1027 924 c 1,32,-1
 969 848 l 1,0,1
EndSplineSet
EndChar

StartChar: d
Encoding: 100 100 67
Width: 1240
Flags: W
LayerCount: 2
Fore
SplineSet
1077 1508 m 1,0,-1
 1198 1508 l 1,1,-1
 1097 247 l 2,2,3
 1092 182 1092 182 1089.5 123.5 c 128,-1,4
 1087 65 1087 65 1085 0 c 1,5,-1
 962 0 l 1,6,-1
 972 206 l 1,7,8
 895 86 895 86 793 31.5 c 128,-1,9
 691 -23 691 -23 564 -23 c 0,10,11
 456 -23 456 -23 378 13.5 c 128,-1,12
 300 50 300 50 249.5 114 c 128,-1,13
 199 178 199 178 174.5 264.5 c 128,-1,14
 150 351 150 351 150 452 c 0,15,16
 150 570 150 570 183 678.5 c 128,-1,17
 216 787 216 787 280.5 869.5 c 128,-1,18
 345 952 345 952 440 1001.5 c 128,-1,19
 535 1051 535 1051 659 1051 c 0,20,21
 790 1051 790 1051 884 994 c 128,-1,22
 978 937 978 937 1023 821 c 1,23,-1
 1077 1508 l 1,0,-1
600 75 m 0,24,25
 691 75 691 75 762.5 108 c 128,-1,26
 834 141 834 141 883.5 193.5 c 128,-1,27
 933 246 933 246 960.5 312 c 128,-1,28
 988 378 988 378 992 444 c 1,29,-1
 999 533 l 2,30,31
 1007 632 1007 632 1007 635 c 0,32,33
 1007 697 1007 697 984.5 754 c 128,-1,34
 962 811 962 811 919 855 c 128,-1,35
 876 899 876 899 815 925 c 128,-1,36
 754 951 754 951 676 951 c 0,37,38
 573 951 573 951 498 910.5 c 128,-1,39
 423 870 423 870 374.5 801.5 c 128,-1,40
 326 733 326 733 302.5 643.5 c 128,-1,41
 279 554 279 554 279 456 c 0,42,43
 279 380 279 380 296 311 c 128,-1,44
 313 242 313 242 351 189.5 c 128,-1,45
 389 137 389 137 450 106 c 128,-1,46
 511 75 511 75 600 75 c 0,24,25
EndSplineSet
EndChar

StartChar: e
Encoding: 101 101 68
Width: 1173
Flags: W
LayerCount: 2
Fore
SplineSet
314 593 m 1,0,-1
 1001 593 l 1,1,-1
 1001 595 l 1,2,-1
 1001 588 l 1,3,4
 998 668 998 668 983 735 c 128,-1,5
 968 802 968 802 934 850 c 128,-1,6
 900 898 900 898 844 924.5 c 128,-1,7
 788 951 788 951 703 951 c 0,8,9
 620 951 620 951 553.5 922.5 c 128,-1,10
 487 894 487 894 438 845 c 128,-1,11
 389 796 389 796 358 731 c 128,-1,12
 327 666 327 666 314 593 c 1,0,-1
1017 202 m 1,13,-1
 1045 106 l 1,14,15
 965 38 965 38 862.5 7.5 c 128,-1,16
 760 -23 760 -23 636 -23 c 0,17,18
 525 -23 525 -23 438.5 12.5 c 128,-1,19
 352 48 352 48 293 112 c 128,-1,20
 234 176 234 176 203.5 265.5 c 128,-1,21
 173 355 173 355 173 462 c 0,22,23
 173 582 173 582 211 689 c 128,-1,24
 249 796 249 796 319.5 876.5 c 128,-1,25
 390 957 390 957 490.5 1004 c 128,-1,26
 591 1051 591 1051 715 1051 c 0,27,28
 821 1051 821 1051 898.5 1017 c 128,-1,29
 976 983 976 983 1026.5 921 c 128,-1,30
 1077 859 1077 859 1101.5 771.5 c 128,-1,31
 1126 684 1126 684 1126 577 c 0,32,33
 1126 548 1126 548 1125 527 c 128,-1,34
 1124 506 1124 506 1122 491 c 1,35,-1
 305 491 l 1,36,37
 304 482 304 482 303 472 c 0,38,39
 302 464 302 464 301.5 452.5 c 128,-1,40
 301 441 301 441 301 429 c 0,41,42
 301 349 301 349 326 284 c 128,-1,43
 351 219 351 219 397.5 172.5 c 128,-1,44
 444 126 444 126 509.5 100.5 c 128,-1,45
 575 75 575 75 657 75 c 0,46,47
 769 75 769 75 860.5 108 c 128,-1,48
 952 141 952 141 1017 202 c 1,13,-1
EndSplineSet
EndChar

StartChar: f
Encoding: 102 102 69
Width: 702
Flags: W
LayerCount: 2
Fore
SplineSet
392 0 m 1,0,-1
 272 0 l 1,1,-1
 350 944 l 1,2,-1
 141 944 l 1,3,-1
 148 1026 l 1,4,-1
 355 1026 l 1,5,-1
 364 1160 l 1,6,7
 368 1247 368 1247 387.5 1321 c 128,-1,8
 407 1395 407 1395 451 1443 c 0,9,10
 535 1533 535 1533 680 1533 c 0,11,12
 702 1533 702 1533 718 1532 c 128,-1,13
 734 1531 734 1531 746.5 1528.5 c 128,-1,14
 759 1526 759 1526 770.5 1522.5 c 128,-1,15
 782 1519 782 1519 796 1515 c 1,16,-1
 788 1419 l 1,17,18
 776 1423 776 1423 755 1426 c 128,-1,19
 734 1429 734 1429 698 1429 c 0,20,21
 638 1429 638 1429 599 1413.5 c 128,-1,22
 560 1398 560 1398 536 1367 c 128,-1,23
 512 1336 512 1336 501 1291 c 128,-1,24
 490 1246 490 1246 486 1187 c 2,25,-1
 476 1026 l 1,26,-1
 733 1026 l 1,27,-1
 726 944 l 1,28,-1
 472 944 l 1,29,-1
 392 0 l 1,0,-1
EndSplineSet
EndChar

StartChar: g
Encoding: 103 103 70
Width: 1241
Flags: W
LayerCount: 2
Fore
SplineSet
1043 1026 m 1,0,-1
 1167 1026 l 1,1,-1
 1144 782 l 1,2,-1
 1093 135 l 2,3,4
 1087 65 1087 65 1075 -4.5 c 128,-1,5
 1063 -74 1063 -74 1038 -138 c 128,-1,6
 1013 -202 1013 -202 973 -256.5 c 128,-1,7
 933 -311 933 -311 871.5 -351.5 c 128,-1,8
 810 -392 810 -392 724 -415 c 128,-1,9
 638 -438 638 -438 523 -438 c 0,10,11
 426 -438 426 -438 338 -419.5 c 128,-1,12
 250 -401 250 -401 178 -362 c 1,13,-1
 199 -246 l 1,14,15
 268 -288 268 -288 351 -308.5 c 128,-1,16
 434 -329 434 -329 522 -329 c 0,17,18
 717 -329 717 -329 828.5 -241.5 c 128,-1,19
 940 -154 940 -154 959 33 c 2,20,-1
 981 251 l 1,21,22
 915 125 915 125 806.5 62.5 c 128,-1,23
 698 0 698 0 569 0 c 0,24,25
 468 0 468 0 390 33 c 128,-1,26
 312 66 312 66 258.5 126 c 128,-1,27
 205 186 205 186 177 270 c 128,-1,28
 149 354 149 354 149 456 c 0,29,30
 149 576 149 576 182 684 c 128,-1,31
 215 792 215 792 280.5 873.5 c 128,-1,32
 346 955 346 955 442.5 1003 c 128,-1,33
 539 1051 539 1051 667 1051 c 0,34,35
 731 1051 731 1051 784.5 1034.5 c 128,-1,36
 838 1018 838 1018 882.5 988.5 c 128,-1,37
 927 959 927 959 962 917.5 c 128,-1,38
 997 876 997 876 1023 826 c 1,39,-1
 1043 1026 l 1,0,-1
1004 609 m 0,40,41
 1004 675 1004 675 982.5 737 c 128,-1,42
 961 799 961 799 919 846.5 c 128,-1,43
 877 894 877 894 816.5 922.5 c 128,-1,44
 756 951 756 951 678 951 c 0,45,46
 582 951 582 951 507.5 911.5 c 128,-1,47
 433 872 433 872 382.5 806 c 128,-1,48
 332 740 332 740 306 654 c 128,-1,49
 280 568 280 568 280 475 c 0,50,51
 280 386 280 386 297.5 317 c 128,-1,52
 315 248 315 248 354.5 200.5 c 128,-1,53
 394 153 394 153 457 128.5 c 128,-1,54
 520 104 520 104 610 104 c 0,55,56
 721 104 721 104 796 147.5 c 128,-1,57
 871 191 871 191 917.5 262 c 128,-1,58
 964 333 964 333 984 423.5 c 128,-1,59
 1004 514 1004 514 1004 609 c 0,40,41
EndSplineSet
EndChar

StartChar: h
Encoding: 104 104 71
Width: 1217
Flags: W
LayerCount: 2
Fore
SplineSet
430 1508 m 1,0,-1
 377 825 l 1,1,2
 451 943 451 943 549 997 c 128,-1,3
 647 1051 647 1051 777 1051 c 0,4,5
 877 1051 877 1051 941.5 1019.5 c 128,-1,6
 1006 988 1006 988 1043 936 c 128,-1,7
 1080 884 1080 884 1094 818 c 128,-1,8
 1108 752 1108 752 1108 683 c 1,9,-1
 1107 639 l 1,10,-1
 1056 0 l 1,11,-1
 935 0 l 1,12,-1
 978 530 l 2,13,14
 981 565 981 565 983.5 598.5 c 128,-1,15
 986 632 986 632 986 637 c 0,16,17
 989 791 989 791 925 871 c 128,-1,18
 861 951 861 951 721 951 c 0,19,20
 638 951 638 951 573.5 923 c 128,-1,21
 509 895 509 895 463.5 846 c 128,-1,22
 418 797 418 797 391 730.5 c 128,-1,23
 364 664 364 664 358 588 c 2,24,-1
 309 0 l 1,25,-1
 188 0 l 1,26,-1
 309 1508 l 1,27,-1
 430 1508 l 1,0,-1
EndSplineSet
EndChar

StartChar: i
Encoding: 105 105 72
Width: 503
Flags: W
LayerCount: 2
Fore
SplineSet
430 1478 m 1,0,-1
 419 1354 l 1,1,-1
 305 1354 l 1,2,-1
 318 1478 l 1,3,-1
 430 1478 l 1,0,-1
276 1026 m 1,4,-1
 397 1026 l 1,5,-1
 314 0 l 1,6,-1
 193 0 l 1,7,-1
 276 1026 l 1,4,-1
EndSplineSet
EndChar

StartChar: j
Encoding: 106 106 73
Width: 503
Flags: W
LayerCount: 2
Fore
SplineSet
-107 -323 m 1,0,1
 -89 -325 -89 -325 -74 -327.5 c 128,-1,2
 -59 -330 -59 -330 -43 -330 c 0,3,4
 18 -330 18 -330 61 -310 c 128,-1,5
 104 -290 104 -290 133 -248 c 128,-1,6
 162 -206 162 -206 178.5 -141.5 c 128,-1,7
 195 -77 195 -77 202 12 c 2,8,-1
 278 1026 l 1,9,-1
 400 1026 l 1,10,-1
 337 144 l 2,11,12
 329 26 329 26 312.5 -80.5 c 128,-1,13
 296 -187 296 -187 258.5 -268 c 128,-1,14
 221 -349 221 -349 155.5 -397 c 128,-1,15
 90 -445 90 -445 -15 -445 c 0,16,17
 -38 -445 -38 -445 -63 -442.5 c 128,-1,18
 -88 -440 -88 -440 -114 -435 c 1,19,-1
 -107 -323 l 1,0,1
432 1478 m 1,20,-1
 421 1354 l 1,21,-1
 307 1354 l 1,22,-1
 318 1478 l 1,23,-1
 432 1478 l 1,20,-1
EndSplineSet
EndChar

StartChar: k
Encoding: 107 107 74
Width: 1082
Flags: W
LayerCount: 2
Fore
SplineSet
1050 0 m 1,0,-1
 884 0 l 1,1,-1
 359 535 l 1,2,-1
 315 0 l 1,3,-1
 194 0 l 1,4,-1
 315 1508 l 1,5,-1
 436 1508 l 1,6,-1
 359 569 l 1,7,-1
 923 1026 l 1,8,-1
 1086 1026 l 1,9,-1
 501 545 l 1,10,-1
 1050 0 l 1,0,-1
EndSplineSet
EndChar

StartChar: l
Encoding: 108 108 75
Width: 503
Flags: W
LayerCount: 2
Fore
SplineSet
433 1508 m 1,0,-1
 314 0 l 1,1,-1
 193 0 l 1,2,-1
 314 1508 l 1,3,-1
 433 1508 l 1,0,-1
EndSplineSet
EndChar

StartChar: m
Encoding: 109 109 76
Width: 1901
Flags: W
LayerCount: 2
Fore
SplineSet
383 1026 m 1,0,-1
 373 829 l 1,1,2
 400 886 400 886 441.5 928 c 128,-1,3
 483 970 483 970 533.5 997 c 128,-1,4
 584 1024 584 1024 641 1037.5 c 128,-1,5
 698 1051 698 1051 757 1051 c 0,6,7
 821 1051 821 1051 875.5 1033 c 128,-1,8
 930 1015 930 1015 971.5 982.5 c 128,-1,9
 1013 950 1013 950 1039 904.5 c 128,-1,10
 1065 859 1065 859 1073 805 c 1,11,12
 1127 931 1127 931 1234 991 c 128,-1,13
 1341 1051 1341 1051 1483 1051 c 0,14,15
 1582 1051 1582 1051 1645 1019 c 128,-1,16
 1708 987 1708 987 1744 935 c 128,-1,17
 1780 883 1780 883 1793.5 817 c 128,-1,18
 1807 751 1807 751 1807.5 703.5 c 128,-1,19
 1808 656 1808 656 1806 639 c 2,20,-1
 1755 0 l 1,21,-1
 1633 0 l 1,22,-1
 1675 561 l 2,23,24
 1677 595 1677 595 1678 622 c 128,-1,25
 1679 649 1679 649 1679 680 c 0,26,27
 1679 746 1679 746 1665 796.5 c 128,-1,28
 1651 847 1651 847 1620 881.5 c 128,-1,29
 1589 916 1589 916 1540.5 933.5 c 128,-1,30
 1492 951 1492 951 1423 951 c 0,31,32
 1345 951 1345 951 1283.5 922 c 128,-1,33
 1222 893 1222 893 1178 844 c 128,-1,34
 1134 795 1134 795 1108.5 729 c 128,-1,35
 1083 663 1083 663 1077 590 c 2,36,-1
 1028 0 l 1,37,-1
 906 0 l 1,38,-1
 961 638 l 1,39,40
 962 666 962 666 962 677 c 0,41,42
 962 811 962 811 893 881 c 128,-1,43
 824 951 824 951 694 951 c 0,44,45
 616 951 616 951 555 923.5 c 128,-1,46
 494 896 494 896 451 847 c 128,-1,47
 408 798 408 798 383 732 c 128,-1,48
 358 666 358 666 352 590 c 2,49,-1
 303 0 l 1,50,-1
 184 0 l 1,51,-1
 247 770 l 2,52,53
 250 805 250 805 260 1026 c 1,54,-1
 383 1026 l 1,0,-1
EndSplineSet
EndChar

StartChar: n
Encoding: 110 110 77
Width: 1217
Flags: W
LayerCount: 2
Fore
SplineSet
308 0 m 1,0,-1
 187 0 l 1,1,-1
 252 788 l 2,2,3
 254 820 254 820 256.5 861 c 128,-1,4
 259 902 259 902 261 939 c 0,5,6
 263 982 263 982 265 1026 c 1,7,-1
 388 1026 l 1,8,-1
 378 825 l 1,9,10
 447 937 447 937 547.5 994 c 128,-1,11
 648 1051 648 1051 776 1051 c 0,12,13
 876 1051 876 1051 940.5 1018.5 c 128,-1,14
 1005 986 1005 986 1042.5 932.5 c 128,-1,15
 1080 879 1080 879 1094 812 c 128,-1,16
 1108 745 1108 745 1108 676 c 0,17,18
 1108 673 1108 673 1107 640.5 c 128,-1,19
 1106 608 1106 608 1082 333 c 1,20,-1
 1056 0 l 1,21,-1
 937 0 l 1,22,-1
 962 316 l 2,23,24
 976 494 976 494 980 542.5 c 128,-1,25
 984 591 984 591 986 624.5 c 128,-1,26
 988 658 988 658 988 667 c 0,27,28
 988 807 988 807 922.5 879 c 128,-1,29
 857 951 857 951 735 951 c 0,30,31
 679 951 679 951 630.5 936.5 c 128,-1,32
 582 922 582 922 541.5 898 c 128,-1,33
 501 874 501 874 470 843.5 c 128,-1,34
 439 813 439 813 416.5 780.5 c 128,-1,35
 394 748 394 748 381.5 717 c 128,-1,36
 369 686 369 686 367 661 c 2,37,-1
 308 0 l 1,0,-1
EndSplineSet
EndChar

StartChar: o
Encoding: 111 111 78
Width: 1238
Flags: W
LayerCount: 2
Fore
SplineSet
715 1051 m 0,0,1
 834 1051 834 1051 923 1013.5 c 128,-1,2
 1012 976 1012 976 1071 910 c 128,-1,3
 1130 844 1130 844 1159 754 c 128,-1,4
 1188 664 1188 664 1188 559 c 0,5,6
 1188 442 1188 442 1150 336 c 128,-1,7
 1112 230 1112 230 1039.5 150.5 c 128,-1,8
 967 71 967 71 862 24 c 128,-1,9
 757 -23 757 -23 623 -23 c 0,10,11
 506 -23 506 -23 417 14.5 c 128,-1,12
 328 52 328 52 268.5 117 c 128,-1,13
 209 182 209 182 178.5 271 c 128,-1,14
 148 360 148 360 148 462 c 0,15,16
 148 583 148 583 186 690 c 128,-1,17
 224 797 224 797 297 877.5 c 128,-1,18
 370 958 370 958 475.5 1004.5 c 128,-1,19
 581 1051 581 1051 715 1051 c 0,0,1
1058 550 m 0,20,21
 1058 633 1058 633 1037 706 c 128,-1,22
 1016 779 1016 779 972.5 833.5 c 128,-1,23
 929 888 929 888 861 919.5 c 128,-1,24
 793 951 793 951 700 951 c 0,25,26
 598 951 598 951 519 910.5 c 128,-1,27
 440 870 440 870 386.5 803.5 c 128,-1,28
 333 737 333 737 305 650.5 c 128,-1,29
 277 564 277 564 277 472 c 0,30,31
 277 392 277 392 299 320 c 128,-1,32
 321 248 321 248 366 193.5 c 128,-1,33
 411 139 411 139 479 107 c 128,-1,34
 547 75 547 75 638 75 c 0,35,36
 741 75 741 75 819.5 114.5 c 128,-1,37
 898 154 898 154 951 220 c 128,-1,38
 1004 286 1004 286 1031 372 c 128,-1,39
 1058 458 1058 458 1058 550 c 0,20,21
EndSplineSet
EndChar

StartChar: p
Encoding: 112 112 79
Width: 1239
Flags: W
LayerCount: 2
Fore
SplineSet
266 -443 m 1,0,-1
 145 -443 l 1,1,-1
 241 767 l 2,2,3
 246 823 246 823 254 1026 c 1,4,-1
 377 1026 l 1,5,-1
 364 818 l 1,6,7
 399 879 399 879 444.5 923.5 c 128,-1,8
 490 968 490 968 544 996 c 128,-1,9
 598 1024 598 1024 659 1037.5 c 128,-1,10
 720 1051 720 1051 787 1051 c 0,11,12
 890 1051 890 1051 965.5 1014.5 c 128,-1,13
 1041 978 1041 978 1090.5 914.5 c 128,-1,14
 1140 851 1140 851 1164 765.5 c 128,-1,15
 1188 680 1188 680 1188 582 c 0,16,17
 1188 464 1188 464 1155.5 355 c 128,-1,18
 1123 246 1123 246 1059 162 c 128,-1,19
 995 78 995 78 899.5 27.5 c 128,-1,20
 804 -23 804 -23 678 -23 c 0,21,22
 428 -23 428 -23 314 194 c 1,23,-1
 266 -443 l 1,0,-1
335 429 m 0,24,25
 335 357 335 357 356 292.5 c 128,-1,26
 377 228 377 228 419 180 c 128,-1,27
 461 132 461 132 522.5 103.5 c 128,-1,28
 584 75 584 75 665 75 c 0,29,30
 767 75 767 75 841 116.5 c 128,-1,31
 915 158 915 158 962.5 227 c 128,-1,32
 1010 296 1010 296 1033 386 c 128,-1,33
 1056 476 1056 476 1056 573 c 0,34,35
 1056 648 1056 648 1039.5 716 c 128,-1,36
 1023 784 1023 784 985.5 836.5 c 128,-1,37
 948 889 948 889 887 920 c 128,-1,38
 826 951 826 951 738 951 c 0,39,40
 624 951 624 951 546.5 907 c 128,-1,41
 469 863 469 863 422 790.5 c 128,-1,42
 375 718 375 718 355 623.5 c 128,-1,43
 335 529 335 529 335 429 c 0,24,25
EndSplineSet
EndChar

StartChar: q
Encoding: 113 113 80
Width: 1240
Flags: W
LayerCount: 2
Fore
SplineSet
973 210 m 1,0,1
 899 90 899 90 790.5 33.5 c 128,-1,2
 682 -23 682 -23 552 -23 c 0,3,4
 450 -23 450 -23 374.5 13 c 128,-1,5
 299 49 299 49 249 113 c 128,-1,6
 199 177 199 177 174.5 263.5 c 128,-1,7
 150 350 150 350 150 452 c 0,8,9
 150 531 150 531 164.5 606 c 128,-1,10
 179 681 179 681 208.5 747.5 c 128,-1,11
 238 814 238 814 281 870 c 128,-1,12
 324 926 324 926 380.5 966 c 128,-1,13
 437 1006 437 1006 507.5 1028.5 c 128,-1,14
 578 1051 578 1051 661 1051 c 0,15,16
 794 1051 794 1051 888 996.5 c 128,-1,17
 982 942 982 942 1025 839 c 1,18,-1
 1043 1026 l 1,19,-1
 1166 1026 l 1,20,21
 1146 860 1146 860 1144 825 c 2,22,-1
 1046 -442 l 1,23,-1
 925 -442 l 1,24,-1
 973 210 l 1,0,1
1004 610 m 0,25,26
 1004 680 1004 680 983 742 c 128,-1,27
 962 804 962 804 920.5 850.5 c 128,-1,28
 879 897 879 897 818 924 c 128,-1,29
 757 951 757 951 677 951 c 0,30,31
 576 951 576 951 501.5 911 c 128,-1,32
 427 871 427 871 377.5 803.5 c 128,-1,33
 328 736 328 736 303.5 645.5 c 128,-1,34
 279 555 279 555 279 455 c 0,35,36
 279 378 279 378 296.5 309 c 128,-1,37
 314 240 314 240 352.5 188 c 128,-1,38
 391 136 391 136 452 105.5 c 128,-1,39
 513 75 513 75 599 75 c 0,40,41
 678 75 678 75 738.5 97 c 128,-1,42
 799 119 799 119 844 157 c 128,-1,43
 889 195 889 195 920 246.5 c 128,-1,44
 951 298 951 298 969.5 357.5 c 128,-1,45
 988 417 988 417 996 481.5 c 128,-1,46
 1004 546 1004 546 1004 610 c 0,25,26
EndSplineSet
EndChar

StartChar: r
Encoding: 114 114 81
Width: 737
Flags: W
LayerCount: 2
Fore
SplineSet
310 0 m 1,0,-1
 189 0 l 1,1,-1
 254 788 l 2,2,3
 256 820 256 820 267 1026 c 1,4,-1
 390 1026 l 1,5,-1
 381 778 l 1,6,7
 401 850 401 850 433 901.5 c 128,-1,8
 465 953 465 953 506.5 986 c 128,-1,9
 548 1019 548 1019 598 1034.5 c 128,-1,10
 648 1050 648 1050 705 1050 c 0,11,12
 734 1050 734 1050 755.5 1049 c 128,-1,13
 777 1048 777 1048 790 1044 c 1,14,-1
 783 930 l 1,15,16
 774 934 774 934 750.5 937.5 c 128,-1,17
 727 941 727 941 689 941 c 0,18,19
 623 941 623 941 566.5 915.5 c 128,-1,20
 510 890 510 890 466.5 842 c 128,-1,21
 423 794 423 794 395.5 726 c 128,-1,22
 368 658 368 658 361 574 c 2,23,-1
 310 0 l 1,0,-1
EndSplineSet
EndChar

StartChar: s
Encoding: 115 115 82
Width: 1007
Flags: W
LayerCount: 2
Fore
SplineSet
869 894 m 1,0,1
 828 921 828 921 752 936 c 128,-1,2
 676 951 676 951 586 951 c 0,3,4
 530 951 530 951 483 939 c 128,-1,5
 436 927 436 927 402 904 c 128,-1,6
 368 881 368 881 348.5 848.5 c 128,-1,7
 329 816 329 816 329 775 c 0,8,9
 329 729 329 729 343.5 701.5 c 128,-1,10
 358 674 358 674 385.5 656 c 128,-1,11
 413 638 413 638 453 626.5 c 128,-1,12
 493 615 493 615 543.5 601.5 c 128,-1,13
 594 588 594 588 654 568 c 128,-1,14
 714 548 714 548 783 513 c 0,15,16
 808 501 808 501 833.5 483.5 c 128,-1,17
 859 466 859 466 880 440.5 c 128,-1,18
 901 415 901 415 914.5 380 c 128,-1,19
 928 345 928 345 928 298 c 0,20,21
 928 216 928 216 890 155.5 c 128,-1,22
 852 95 852 95 790 55.5 c 128,-1,23
 728 16 728 16 649.5 -3.5 c 128,-1,24
 571 -23 571 -23 490 -23 c 0,25,26
 437 -23 437 -23 386 -17.5 c 128,-1,27
 335 -12 335 -12 290 0.5 c 128,-1,28
 245 13 245 13 208 33 c 128,-1,29
 171 53 171 53 147 82 c 1,30,-1
 186 176 l 1,31,32
 207 150 207 150 240 131 c 128,-1,33
 273 112 273 112 314 99.5 c 128,-1,34
 355 87 355 87 401 81 c 128,-1,35
 447 75 447 75 494 75 c 0,36,37
 560 75 560 75 615.5 87.5 c 128,-1,38
 671 100 671 100 711.5 125 c 128,-1,39
 752 150 752 150 774.5 187.5 c 128,-1,40
 797 225 797 225 797 274 c 256,41,42
 797 323 797 323 774 355.5 c 128,-1,43
 751 388 751 388 710.5 411 c 128,-1,44
 670 434 670 434 614.5 451 c 128,-1,45
 559 468 559 468 495 486 c 1,46,47
 428 507 428 507 373.5 530 c 128,-1,48
 319 553 319 553 280 584 c 128,-1,49
 241 615 241 615 220 657.5 c 128,-1,50
 199 700 199 700 199 761 c 0,51,52
 199 835 199 835 233 889.5 c 128,-1,53
 267 944 267 944 322 980 c 128,-1,54
 377 1016 377 1016 447 1033.5 c 128,-1,55
 517 1051 517 1051 588 1051 c 0,56,57
 688 1051 688 1051 771 1033 c 128,-1,58
 854 1015 854 1015 905 973 c 1,59,-1
 869 894 l 1,0,1
EndSplineSet
EndChar

StartChar: t
Encoding: 116 116 83
Width: 729
Flags: W
LayerCount: 2
Fore
SplineSet
346 944 m 1,0,-1
 137 944 l 1,1,-1
 144 1026 l 1,2,-1
 351 1026 l 1,3,-1
 381 1314 l 1,4,-1
 499 1348 l 1,5,-1
 470 1026 l 1,6,-1
 738 1026 l 1,7,-1
 731 944 l 1,8,-1
 465 944 l 1,9,-1
 414 303 l 2,10,11
 409 243 409 243 410 199 c 128,-1,12
 411 155 411 155 425 126.5 c 128,-1,13
 439 98 439 98 470 84.5 c 128,-1,14
 501 71 501 71 557 71 c 0,15,16
 628 71 628 71 669 90 c 1,17,-1
 662 5 l 1,18,19
 639 -10 639 -10 609 -16.5 c 128,-1,20
 579 -23 579 -23 541 -23 c 0,21,22
 462 -23 462 -23 410.5 -5 c 128,-1,23
 359 13 359 13 330.5 49 c 128,-1,24
 302 85 302 85 293.5 140 c 128,-1,25
 285 195 285 195 291 270 c 2,26,-1
 346 944 l 1,0,-1
EndSplineSet
EndChar

StartChar: u
Encoding: 117 117 84
Width: 1217
Flags: W
LayerCount: 2
Fore
SplineSet
1006 1026 m 1,0,-1
 1126 1026 l 1,1,-1
 1063 237 l 2,2,3
 1060 205 1060 205 1049 0 c 1,4,-1
 925 0 l 1,5,-1
 940 203 l 1,6,7
 876 85 876 85 777 31 c 128,-1,8
 678 -23 678 -23 544 -23 c 0,9,10
 441 -23 441 -23 375 9.5 c 128,-1,11
 309 42 309 42 271.5 95.5 c 128,-1,12
 234 149 234 149 220 216 c 128,-1,13
 206 283 206 283 206 352 c 0,14,15
 206 363 206 363 206 374 c 128,-1,16
 206 385 206 385 207 396 c 2,17,-1
 260 1026 l 1,18,-1
 381 1026 l 1,19,-1
 326 405 l 2,20,21
 325 388 325 388 324.5 377 c 128,-1,22
 324 366 324 366 324 352 c 0,23,24
 324 216 324 216 389 145.5 c 128,-1,25
 454 75 454 75 595 75 c 0,26,27
 677 75 677 75 742.5 102.5 c 128,-1,28
 808 130 808 130 855 178 c 128,-1,29
 902 226 902 226 928.5 291.5 c 128,-1,30
 955 357 955 357 959 433 c 1,31,-1
 1006 1026 l 1,0,-1
EndSplineSet
EndChar

StartChar: v
Encoding: 118 118 85
Width: 1063
Flags: W
LayerCount: 2
Fore
SplineSet
992 1026 m 1,0,-1
 1122 1026 l 1,1,-1
 608 0 l 1,2,-1
 471 0 l 1,3,-1
 123 1026 l 1,4,-1
 255 1026 l 1,5,-1
 485 324 l 1,6,-1
 552 111 l 1,7,-1
 641 298 l 1,8,-1
 992 1026 l 1,0,-1
EndSplineSet
EndChar

StartChar: w
Encoding: 119 119 86
Width: 1695
Flags: W
LayerCount: 2
Fore
SplineSet
887 1026 m 1,0,-1
 1022 1026 l 1,1,-1
 1215 274 l 1,2,-1
 1256 81 l 1,3,-1
 1325 271 l 1,4,-1
 1629 1026 l 1,5,-1
 1758 1026 l 1,6,-1
 1309 0 l 1,7,-1
 1180 0 l 1,8,-1
 983 779 l 1,9,-1
 946 944 l 1,10,-1
 881 776 l 1,11,-1
 540 0 l 1,12,-1
 409 0 l 1,13,-1
 125 1026 l 1,14,-1
 254 1026 l 1,15,-1
 448 272 l 1,16,-1
 491 95 l 1,17,-1
 557 260 l 1,18,-1
 887 1026 l 1,0,-1
EndSplineSet
EndChar

StartChar: x
Encoding: 120 120 87
Width: 1043
Flags: W
LayerCount: 2
Fore
SplineSet
844 0 m 1,0,-1
 563 449 l 1,1,-1
 194 0 l 1,2,-1
 57 0 l 1,3,-1
 494 514 l 1,4,-1
 154 1026 l 1,5,-1
 311 1026 l 1,6,-1
 583 583 l 1,7,-1
 934 1026 l 1,8,-1
 1063 1026 l 1,9,-1
 645 518 l 1,10,-1
 999 0 l 1,11,-1
 844 0 l 1,0,-1
EndSplineSet
EndChar

StartChar: y
Encoding: 121 121 88
Width: 1069
Flags: W
LayerCount: 2
Fore
SplineSet
126 1026 m 1,0,-1
 257 1026 l 1,1,-1
 547 90 l 1,2,-1
 996 1026 l 1,3,-1
 1124 1026 l 1,4,-1
 575 -84 l 2,5,6
 542 -151 542 -151 500 -210.5 c 128,-1,7
 458 -270 458 -270 408 -316.5 c 128,-1,8
 358 -363 358 -363 299.5 -395 c 128,-1,9
 241 -427 241 -427 174 -439 c 1,10,-1
 113 -358 l 1,11,12
 196 -337 196 -337 251.5 -304 c 128,-1,13
 307 -271 307 -271 344 -232 c 128,-1,14
 381 -193 381 -193 404.5 -151 c 128,-1,15
 428 -109 428 -109 447 -71 c 2,16,-1
 477 -10 l 1,17,-1
 126 1026 l 1,0,-1
EndSplineSet
EndChar

StartChar: z
Encoding: 122 122 89
Width: 958
Flags: W
LayerCount: 2
Fore
SplineSet
84 67 m 1,0,-1
 793 922 l 1,1,-1
 178 922 l 1,2,-1
 187 1026 l 1,3,-1
 962 1026 l 1,4,-1
 955 961 l 1,5,-1
 250 103 l 1,6,-1
 907 103 l 1,7,-1
 879 0 l 1,8,-1
 78 0 l 1,9,-1
 84 67 l 1,0,-1
EndSplineSet
EndChar

StartChar: braceleft
Encoding: 123 123 90
Width: 627
Flags: W
LayerCount: 2
Fore
SplineSet
364 1172 m 2,0,1
 369 1242 369 1242 389 1296.5 c 128,-1,2
 409 1351 409 1351 447 1389 c 128,-1,3
 485 1427 485 1427 541.5 1447 c 128,-1,4
 598 1467 598 1467 675 1467 c 1,5,-1
 665 1375 l 1,6,7
 619 1373 619 1373 586.5 1367 c 128,-1,8
 554 1361 554 1361 533 1341.5 c 128,-1,9
 512 1322 512 1322 500.5 1284.5 c 128,-1,10
 489 1247 489 1247 484 1182 c 2,11,-1
 461 880 l 2,12,13
 455 807 455 807 432 755.5 c 128,-1,14
 409 704 409 704 379.5 670.5 c 128,-1,15
 350 637 350 637 318.5 619.5 c 128,-1,16
 287 602 287 602 265 598 c 1,17,18
 305 584 305 584 333.5 558.5 c 128,-1,19
 362 533 362 533 380.5 500 c 128,-1,20
 399 467 399 467 407.5 429 c 128,-1,21
 416 391 416 391 416 352 c 0,22,23
 416 344 416 344 416 336.5 c 128,-1,24
 416 329 416 329 415 321 c 2,25,-1
 389 -22 l 2,26,27
 388 -28 388 -28 388 -33 c 128,-1,28
 388 -38 388 -38 388 -43 c 0,29,30
 388 -115 388 -115 427 -146 c 128,-1,31
 466 -177 466 -177 546 -177 c 1,32,-1
 538 -268 l 1,33,34
 485 -268 485 -268 436.5 -256 c 128,-1,35
 388 -244 388 -244 350 -217.5 c 128,-1,36
 312 -191 312 -191 289.5 -147.5 c 128,-1,37
 267 -104 267 -104 267 -41 c 0,38,39
 267 -33 267 -33 267.5 -25 c 128,-1,40
 268 -17 268 -17 269 -8 c 2,41,-1
 294 265 l 2,42,43
 296 284 296 284 297 302 c 128,-1,44
 298 320 298 320 298 339 c 0,45,46
 298 378 298 378 291.5 413.5 c 128,-1,47
 285 449 285 449 268.5 477.5 c 128,-1,48
 252 506 252 506 223.5 525 c 128,-1,49
 195 544 195 544 150 550 c 1,50,-1
 159 647 l 1,51,52
 205 651 205 651 238 666.5 c 128,-1,53
 271 682 271 682 293 709.5 c 128,-1,54
 315 737 315 737 327 776.5 c 128,-1,55
 339 816 339 816 343 870 c 2,56,-1
 364 1172 l 2,0,1
EndSplineSet
EndChar

StartChar: bar
Encoding: 124 124 91
Width: 500
Flags: W
LayerCount: 2
Fore
SplineSet
155 -510 m 1,0,-1
 321 1564 l 1,1,-1
 435 1564 l 1,2,-1
 268 -510 l 1,3,-1
 155 -510 l 1,0,-1
EndSplineSet
EndChar

StartChar: braceright
Encoding: 125 125 92
Width: 627
Flags: W
LayerCount: 2
Fore
SplineSet
193 1375 m 1,0,-1
 201 1467 l 1,1,2
 264 1463 264 1463 314 1447.5 c 128,-1,3
 364 1432 364 1432 399 1403 c 128,-1,4
 434 1374 434 1374 452.5 1331 c 128,-1,5
 471 1288 471 1288 471 1230 c 0,6,7
 471 1224 471 1224 470.5 1217.5 c 128,-1,8
 470 1211 470 1211 470 1204 c 2,9,-1
 444 906 l 2,10,11
 441 876 441 876 441 846 c 0,12,13
 441 808 441 808 448 774 c 128,-1,14
 455 740 455 740 472 713.5 c 128,-1,15
 489 687 489 687 517.5 670 c 128,-1,16
 546 653 546 653 589 649 c 1,17,-1
 580 552 l 1,18,19
 532 548 532 548 498.5 529.5 c 128,-1,20
 465 511 465 511 443 478.5 c 128,-1,21
 421 446 421 446 409 401 c 128,-1,22
 397 356 397 356 393 299 c 2,23,-1
 369 -6 l 2,24,25
 364 -63 364 -63 345 -109 c 128,-1,26
 326 -155 326 -155 296 -188 c 128,-1,27
 266 -221 266 -221 228 -240.5 c 128,-1,28
 190 -260 190 -260 147 -264 c 0,29,30
 124 -266 124 -266 103.5 -267.5 c 128,-1,31
 83 -269 83 -269 66 -268 c 1,32,-1
 74 -177 l 1,33,34
 115 -177 115 -177 144.5 -172 c 128,-1,35
 174 -167 174 -167 194.5 -150.5 c 128,-1,36
 215 -134 215 -134 229 -103.5 c 128,-1,37
 243 -73 243 -73 252 -21 c 0,38,39
 259 18 259 18 262.5 60.5 c 128,-1,40
 266 103 266 103 268.5 147 c 128,-1,41
 271 191 271 191 273 235 c 128,-1,42
 275 279 275 279 278 320 c 0,43,44
 284 392 284 392 307 443.5 c 128,-1,45
 330 495 330 495 359 528.5 c 128,-1,46
 388 562 388 562 418.5 579 c 128,-1,47
 449 596 449 596 469 598 c 1,48,49
 426 614 426 614 398 640.5 c 128,-1,50
 370 667 370 667 354 700 c 128,-1,51
 338 733 338 733 331.5 771 c 128,-1,52
 325 809 325 809 325 849 c 0,53,54
 325 856 325 856 325 863.5 c 128,-1,55
 325 871 325 871 326 879 c 2,56,-1
 350 1192 l 2,57,58
 351 1199 351 1199 351 1205 c 128,-1,59
 351 1211 351 1211 351 1217 c 0,60,61
 351 1289 351 1289 315 1330 c 128,-1,62
 279 1371 279 1371 193 1375 c 1,0,-1
EndSplineSet
EndChar

StartChar: asciitilde
Encoding: 126 126 93
Width: 1458
Flags: W
LayerCount: 2
Fore
SplineSet
553 693 m 0,0,1
 590 693 590 693 632 680.5 c 128,-1,2
 674 668 674 668 717.5 649.5 c 128,-1,3
 761 631 761 631 804 609.5 c 128,-1,4
 847 588 847 588 887 569.5 c 128,-1,5
 927 551 927 551 961.5 538.5 c 128,-1,6
 996 526 996 526 1022 526 c 0,7,8
 1060 526 1060 526 1094 541 c 128,-1,9
 1128 556 1128 556 1156 581 c 128,-1,10
 1184 606 1184 606 1204 638 c 128,-1,11
 1224 670 1224 670 1235 704 c 1,12,-1
 1313 678 l 1,13,14
 1296 623 1296 623 1267.5 576.5 c 128,-1,15
 1239 530 1239 530 1200.5 496.5 c 128,-1,16
 1162 463 1162 463 1114 444.5 c 128,-1,17
 1066 426 1066 426 1011 426 c 0,18,19
 981 426 981 426 944.5 438.5 c 128,-1,20
 908 451 908 451 868 469.5 c 128,-1,21
 828 488 828 488 786 509.5 c 128,-1,22
 744 531 744 531 702 549.5 c 128,-1,23
 660 568 660 568 620 580.5 c 128,-1,24
 580 593 580 593 545 593 c 0,25,26
 501 593 501 593 464 577.5 c 128,-1,27
 427 562 427 562 397.5 536.5 c 128,-1,28
 368 511 368 511 347.5 478 c 128,-1,29
 327 445 327 445 316 410 c 1,30,-1
 246 443 l 1,31,32
 261 492 261 492 288.5 537.5 c 128,-1,33
 316 583 316 583 354.5 617.5 c 128,-1,34
 393 652 393 652 442.5 672.5 c 128,-1,35
 492 693 492 693 553 693 c 0,0,1
EndSplineSet
EndChar

StartChar: dieresis
Encoding: 168 168 95
Width: 743
Flags: W
LayerCount: 2
Fore
SplineSet
425 1293 m 1,0,-1
 306 1293 l 1,1,-1
 319 1421 l 1,2,-1
 436 1421 l 1,3,-1
 425 1293 l 1,0,-1
798 1293 m 1,4,-1
 678 1293 l 1,5,-1
 693 1421 l 1,6,-1
 811 1421 l 1,7,-1
 798 1293 l 1,4,-1
EndSplineSet
EndChar

StartChar: ring
Encoding: 730 730 97
Width: 605
Flags: W
LayerCount: 2
Fore
SplineSet
677 1378 m 0,0,1
 677 1404 677 1404 666 1427.5 c 128,-1,2
 655 1451 655 1451 635.5 1469 c 128,-1,3
 616 1487 616 1487 589.5 1498 c 128,-1,4
 563 1509 563 1509 531 1509 c 0,5,6
 501 1509 501 1509 472.5 1497 c 128,-1,7
 444 1485 444 1485 421.5 1465 c 128,-1,8
 399 1445 399 1445 385.5 1418.5 c 128,-1,9
 372 1392 372 1392 372 1364 c 0,10,11
 372 1304 372 1304 410.5 1267 c 128,-1,12
 449 1230 449 1230 514 1230 c 0,13,14
 545 1230 545 1230 574.5 1242 c 128,-1,15
 604 1254 604 1254 626.5 1274.5 c 128,-1,16
 649 1295 649 1295 663 1322 c 128,-1,17
 677 1349 677 1349 677 1378 c 0,0,1
332 1358 m 0,18,19
 332 1399 332 1399 349 1434 c 128,-1,20
 366 1469 366 1469 394.5 1494.5 c 128,-1,21
 423 1520 423 1520 461 1534.5 c 128,-1,22
 499 1549 499 1549 541 1549 c 0,23,24
 579 1549 579 1549 611.5 1536.5 c 128,-1,25
 644 1524 644 1524 668 1501.5 c 128,-1,26
 692 1479 692 1479 705.5 1448.5 c 128,-1,27
 719 1418 719 1418 719 1382 c 0,28,29
 719 1343 719 1343 702 1307.5 c 128,-1,30
 685 1272 685 1272 656 1246 c 128,-1,31
 627 1220 627 1220 589 1204.5 c 128,-1,32
 551 1189 551 1189 509 1189 c 0,33,34
 472 1189 472 1189 439.5 1201.5 c 128,-1,35
 407 1214 407 1214 383 1236.5 c 128,-1,36
 359 1259 359 1259 345.5 1290 c 128,-1,37
 332 1321 332 1321 332 1358 c 0,18,19
EndSplineSet
EndChar

StartChar: cedilla
Encoding: 184 184 99
Width: 529
Flags: W
LayerCount: 2
Fore
SplineSet
57 -342 m 1,0,1
 90 -353 90 -353 123.5 -358 c 128,-1,2
 157 -363 157 -363 190 -363 c 0,3,4
 271 -363 271 -363 304.5 -335.5 c 128,-1,5
 338 -308 338 -308 338 -263 c 0,6,7
 338 -238 338 -238 328 -220.5 c 128,-1,8
 318 -203 318 -203 299.5 -192.5 c 128,-1,9
 281 -182 281 -182 254.5 -177.5 c 128,-1,10
 228 -173 228 -173 196 -174 c 1,11,12
 197 -174 197 -174 199.5 -174 c 128,-1,13
 202 -174 202 -174 202 -175 c 1,14,15
 199 -175 199 -175 195 -176 c 0,16,17
 185 -178 185 -178 165 -179 c 1,18,-1
 207 -20 l 1,19,-1
 254 -20 l 1,20,-1
 227 -130 l 1,21,22
 234 -130 234 -130 240.5 -129.5 c 128,-1,23
 247 -129 247 -129 254 -129 c 0,24,25
 293 -129 293 -129 326.5 -136 c 128,-1,26
 360 -143 360 -143 385 -158 c 128,-1,27
 410 -173 410 -173 424 -197 c 128,-1,28
 438 -221 438 -221 438 -256 c 0,29,30
 438 -295 438 -295 420 -324.5 c 128,-1,31
 402 -354 402 -354 369.5 -373.5 c 128,-1,32
 337 -393 337 -393 293.5 -402.5 c 128,-1,33
 250 -412 250 -412 199 -412 c 0,34,35
 157 -412 157 -412 120 -407 c 128,-1,36
 83 -402 83 -402 48 -393 c 1,37,-1
 57 -342 l 1,0,1
EndSplineSet
EndChar

StartChar: acute
Encoding: 180 180 101
Width: 607
Flags: W
LayerCount: 2
Fore
SplineSet
661 1508 m 1,0,-1
 820 1508 l 1,1,-1
 512 1216 l 1,2,-1
 432 1216 l 1,3,-1
 661 1508 l 1,0,-1
EndSplineSet
EndChar

StartChar: tilde
Encoding: 732 732 103
Width: 663
Flags: W
LayerCount: 2
Fore
SplineSet
801 1451 m 1,0,-1
 863 1451 l 1,1,2
 856 1412 856 1412 840 1377.5 c 128,-1,3
 824 1343 824 1343 799 1318 c 128,-1,4
 774 1293 774 1293 742 1278.5 c 128,-1,5
 710 1264 710 1264 672 1264 c 0,6,7
 648 1264 648 1264 619 1275 c 128,-1,8
 590 1286 590 1286 557 1299.5 c 128,-1,9
 524 1313 524 1313 488 1324 c 128,-1,10
 452 1335 452 1335 416 1335 c 0,11,12
 365 1335 365 1335 333 1313.5 c 128,-1,13
 301 1292 301 1292 293 1247 c 1,14,-1
 235 1247 l 1,15,16
 249 1329 249 1329 300 1379 c 128,-1,17
 351 1429 351 1429 429 1429 c 0,18,19
 459 1429 459 1429 488 1417.5 c 128,-1,20
 517 1406 517 1406 548 1392.5 c 128,-1,21
 579 1379 579 1379 612 1368 c 128,-1,22
 645 1357 645 1357 682 1357 c 0,23,24
 728 1357 728 1357 760 1380.5 c 128,-1,25
 792 1404 792 1404 801 1451 c 1,0,-1
EndSplineSet
EndChar

StartChar: circumflex
Encoding: 710 710 109
Width: 699
Flags: W
LayerCount: 2
Fore
SplineSet
237 1214 m 1,0,-1
 469 1510 l 1,1,-1
 604 1510 l 1,2,-1
 789 1214 l 1,3,-1
 710 1214 l 1,4,-1
 530 1454 l 1,5,-1
 311 1214 l 1,6,-1
 237 1214 l 1,0,-1
EndSplineSet
EndChar

StartChar: dotlessi
Encoding: 305 305 119
Width: 503
Flags: W
LayerCount: 2
Fore
SplineSet
314 0 m 1,0,-1
 193 0 l 1,1,-1
 276 1026 l 1,2,-1
 397 1026 l 1,3,-1
 314 0 l 1,0,-1
EndSplineSet
EndChar

StartChar: dagger
Encoding: 8224 8224 133
Width: 1022
Flags: W
LayerCount: 2
Fore
SplineSet
539 968 m 1,0,-1
 205 968 l 1,1,-1
 214 1066 l 1,2,-1
 549 1066 l 1,3,-1
 580 1467 l 1,4,-1
 695 1467 l 1,5,-1
 661 1066 l 1,6,-1
 1002 1066 l 1,7,-1
 993 968 l 1,8,-1
 657 968 l 1,9,-1
 597 116 l 1,10,-1
 480 116 l 1,11,-1
 539 968 l 1,0,-1
EndSplineSet
EndChar

StartChar: degree
Encoding: 176 176 134
Width: 844
Flags: W
LayerCount: 2
Fore
SplineSet
299 1155 m 0,0,1
 299 1112 299 1112 313.5 1076 c 128,-1,2
 328 1040 328 1040 354.5 1013.5 c 128,-1,3
 381 987 381 987 418 972.5 c 128,-1,4
 455 958 455 958 500 958 c 0,5,6
 548 958 548 958 591.5 976 c 128,-1,7
 635 994 635 994 668 1025 c 128,-1,8
 701 1056 701 1056 720 1098 c 128,-1,9
 739 1140 739 1140 739 1188 c 0,10,11
 739 1231 739 1231 723.5 1267.5 c 128,-1,12
 708 1304 708 1304 681 1331 c 128,-1,13
 654 1358 654 1358 616.5 1373 c 128,-1,14
 579 1388 579 1388 534 1388 c 0,15,16
 487 1388 487 1388 444.5 1369.5 c 128,-1,17
 402 1351 402 1351 369.5 1319 c 128,-1,18
 337 1287 337 1287 318 1244.5 c 128,-1,19
 299 1202 299 1202 299 1155 c 0,0,1
822 1193 m 0,20,21
 822 1130 822 1130 795 1074 c 128,-1,22
 768 1018 768 1018 723 976.5 c 128,-1,23
 678 935 678 935 618.5 910.5 c 128,-1,24
 559 886 559 886 494 886 c 0,25,26
 435 886 435 886 384.5 906 c 128,-1,27
 334 926 334 926 296 961.5 c 128,-1,28
 258 997 258 997 236.5 1045 c 128,-1,29
 215 1093 215 1093 215 1149 c 0,30,31
 215 1212 215 1212 241.5 1268.5 c 128,-1,32
 268 1325 268 1325 312.5 1367.5 c 128,-1,33
 357 1410 357 1410 416 1435 c 128,-1,34
 475 1460 475 1460 540 1460 c 0,35,36
 600 1460 600 1460 651.5 1439 c 128,-1,37
 703 1418 703 1418 741 1381.5 c 128,-1,38
 779 1345 779 1345 800.5 1296.5 c 128,-1,39
 822 1248 822 1248 822 1193 c 0,20,21
EndSplineSet
EndChar

StartChar: cent
Encoding: 162 162 135
Width: 1189
Flags: W
LayerCount: 2
Fore
SplineSet
785 1128 m 1,0,-1
 849 1369 l 1,1,-1
 930 1369 l 1,2,-1
 862 1128 l 1,3,4
 905 1121 905 1121 943 1105 c 128,-1,5
 981 1089 981 1089 1010.5 1066 c 128,-1,6
 1040 1043 1040 1043 1060 1013 c 128,-1,7
 1080 983 1080 983 1089 949 c 1,8,-1
 1037 890 l 1,9,10
 1017 944 1017 944 968.5 975 c 128,-1,11
 920 1006 920 1006 844 1020 c 1,12,-1
 639 172 l 1,13,14
 678 163 678 163 721 163 c 0,15,16
 763 163 763 163 805.5 172 c 128,-1,17
 848 181 848 181 886 200 c 128,-1,18
 924 219 924 219 954.5 246.5 c 128,-1,19
 985 274 985 274 1005 312 c 1,20,-1
 1060 257 l 1,21,22
 1040 207 1040 207 1006 170 c 128,-1,23
 972 133 972 133 927 109 c 128,-1,24
 882 85 882 85 829.5 73 c 128,-1,25
 777 61 777 61 721 61 c 0,26,27
 670 61 670 61 621 70 c 1,28,-1
 554 -165 l 1,29,-1
 471 -165 l 1,30,-1
 544 80 l 1,31,32
 466 96 466 96 406 137.5 c 128,-1,33
 346 179 346 179 305.5 239 c 128,-1,34
 265 299 265 299 244 375 c 128,-1,35
 223 451 223 451 223 536 c 0,36,37
 223 655 223 655 262 762.5 c 128,-1,38
 301 870 301 870 374 951 c 128,-1,39
 447 1032 447 1032 551 1080 c 128,-1,40
 655 1128 655 1128 785 1128 c 1,0,-1
567 191 m 1,41,-1
 768 1024 l 1,42,43
 678 1019 678 1019 601.5 984 c 128,-1,44
 525 949 525 949 469.5 888 c 128,-1,45
 414 827 414 827 383 742 c 128,-1,46
 352 657 352 657 352 552 c 0,47,48
 352 486 352 486 366.5 428 c 128,-1,49
 381 370 381 370 408.5 323 c 128,-1,50
 436 276 436 276 476 242 c 128,-1,51
 516 208 516 208 567 191 c 1,41,-1
EndSplineSet
EndChar

StartChar: sterling
Encoding: 163 163 136
Width: 1189
Flags: W
LayerCount: 2
Fore
SplineSet
1109 1275 m 1,0,1
 1087 1291 1087 1291 1057.5 1305.5 c 128,-1,2
 1028 1320 1028 1320 995 1331 c 128,-1,3
 962 1342 962 1342 927 1348 c 128,-1,4
 892 1354 892 1354 858 1354 c 0,5,6
 769 1354 769 1354 708 1328.5 c 128,-1,7
 647 1303 647 1303 608.5 1253.5 c 128,-1,8
 570 1204 570 1204 550.5 1131 c 128,-1,9
 531 1058 531 1058 525 963 c 1,10,-1
 513 826 l 1,11,-1
 856 826 l 1,12,-1
 846 715 l 1,13,-1
 503 715 l 1,14,-1
 482 509 l 2,15,16
 473 416 473 416 465 353 c 128,-1,17
 457 290 457 290 443 246 c 128,-1,18
 429 202 429 202 406 170.5 c 128,-1,19
 383 139 383 139 344 110 c 1,20,-1
 1093 110 l 1,21,-1
 1084 0 l 1,22,-1
 134 0 l 1,23,-1
 144 110 l 1,24,25
 181 119 181 119 214 133.5 c 128,-1,26
 247 148 247 148 273 177.5 c 128,-1,27
 299 207 299 207 317.5 255.5 c 128,-1,28
 336 304 336 304 344 380 c 2,29,-1
 379 715 l 1,30,-1
 189 715 l 1,31,-1
 199 826 l 1,32,-1
 387 826 l 1,33,34
 391 904 391 904 400.5 982 c 128,-1,35
 410 1060 410 1060 430.5 1131 c 128,-1,36
 451 1202 451 1202 484 1263 c 128,-1,37
 517 1324 517 1324 569 1368.5 c 128,-1,38
 621 1413 621 1413 694 1438.5 c 128,-1,39
 767 1464 767 1464 866 1464 c 0,40,41
 912 1464 912 1464 957 1455.5 c 128,-1,42
 1002 1447 1002 1447 1041.5 1431.5 c 128,-1,43
 1081 1416 1081 1416 1114 1395 c 128,-1,44
 1147 1374 1147 1374 1170 1350 c 1,45,-1
 1109 1275 l 1,0,1
EndSplineSet
EndChar

StartChar: section
Encoding: 167 167 137
Width: 1097
Flags: W
LayerCount: 2
Fore
SplineSet
937 1366 m 1,0,1
 921 1375 921 1375 897 1382 c 128,-1,2
 873 1389 873 1389 845.5 1394.5 c 128,-1,3
 818 1400 818 1400 788 1403 c 128,-1,4
 758 1406 758 1406 731 1406 c 0,5,6
 675 1406 675 1406 627.5 1396.5 c 128,-1,7
 580 1387 580 1387 545 1366 c 128,-1,8
 510 1345 510 1345 490 1313 c 128,-1,9
 470 1281 470 1281 470 1236 c 0,10,11
 470 1204 470 1204 481.5 1178.5 c 128,-1,12
 493 1153 493 1153 520 1129 c 128,-1,13
 547 1105 547 1105 590.5 1080 c 128,-1,14
 634 1055 634 1055 698 1025 c 1,15,16
 752 1001 752 1001 801 975 c 128,-1,17
 850 949 850 949 887.5 917.5 c 128,-1,18
 925 886 925 886 947 847.5 c 128,-1,19
 969 809 969 809 969 760 c 0,20,21
 969 710 969 710 949.5 668 c 128,-1,22
 930 626 930 626 898 591.5 c 128,-1,23
 866 557 866 557 823.5 529.5 c 128,-1,24
 781 502 781 502 735 480 c 1,25,26
 772 462 772 462 803 441 c 128,-1,27
 834 420 834 420 856.5 394 c 128,-1,28
 879 368 879 368 892 335.5 c 128,-1,29
 905 303 905 303 905 262 c 0,30,31
 905 187 905 187 870 129 c 128,-1,32
 835 71 835 71 777 31 c 128,-1,33
 719 -9 719 -9 642.5 -30 c 128,-1,34
 566 -51 566 -51 484 -51 c 0,35,36
 418 -51 418 -51 354.5 -38.5 c 128,-1,37
 291 -26 291 -26 234 -2 c 1,38,-1
 241 109 l 1,39,40
 300 80 300 80 363.5 67.5 c 128,-1,41
 427 55 427 55 490 55 c 0,42,43
 557 55 557 55 609.5 69.5 c 128,-1,44
 662 84 662 84 698.5 109.5 c 128,-1,45
 735 135 735 135 754.5 169 c 128,-1,46
 774 203 774 203 774 242 c 0,47,48
 774 279 774 279 757.5 306 c 128,-1,49
 741 333 741 333 709.5 355.5 c 128,-1,50
 678 378 678 378 631.5 399 c 128,-1,51
 585 420 585 420 526 444 c 0,52,53
 497 455 497 455 498 455 c 2,54,-1
 506 451 l 1,55,56
 451 474 451 474 406 501 c 128,-1,57
 361 528 361 528 329.5 561 c 128,-1,58
 298 594 298 594 281 633.5 c 128,-1,59
 264 673 264 673 264 721 c 0,60,61
 264 773 264 773 283 814.5 c 128,-1,62
 302 856 302 856 334.5 889 c 128,-1,63
 367 922 367 922 409 947 c 128,-1,64
 451 972 451 972 498 991 c 1,65,66
 462 1012 462 1012 432.5 1035.5 c 128,-1,67
 403 1059 403 1059 383 1087 c 128,-1,68
 363 1115 363 1115 352 1148 c 128,-1,69
 341 1181 341 1181 341 1222 c 0,70,71
 341 1294 341 1294 372.5 1348 c 128,-1,72
 404 1402 404 1402 458 1438 c 128,-1,73
 512 1474 512 1474 584 1491.5 c 128,-1,74
 656 1509 656 1509 737 1509 c 0,75,76
 799 1509 799 1509 847 1500 c 128,-1,77
 895 1491 895 1491 946 1474 c 1,78,-1
 937 1366 l 1,0,1
646 525 m 1,79,80
 677 543 677 543 710.5 565 c 128,-1,81
 744 587 744 587 771.5 613.5 c 128,-1,82
 799 640 799 640 816.5 671 c 128,-1,83
 834 702 834 702 834 740 c 0,84,85
 834 776 834 776 818 802.5 c 128,-1,86
 802 829 802 829 775 849 c 128,-1,87
 748 869 748 869 711.5 886.5 c 128,-1,88
 675 904 675 904 634 922 c 0,89,90
 611 932 611 932 602.5 936.5 c 128,-1,91
 594 941 594 941 591 943 c 128,-1,92
 588 945 588 945 587 945.5 c 128,-1,93
 586 946 586 946 579 949 c 1,94,95
 545 932 545 932 512.5 912 c 128,-1,96
 480 892 480 892 454.5 867 c 128,-1,97
 429 842 429 842 413.5 811 c 128,-1,98
 398 780 398 780 398 741 c 0,99,100
 398 700 398 700 416 670 c 128,-1,101
 434 640 434 640 467 615.5 c 128,-1,102
 500 591 500 591 545.5 570 c 128,-1,103
 591 549 591 549 646 525 c 1,79,80
EndSplineSet
EndChar

StartChar: bullet
Encoding: 8226 8226 138
Width: 989
Flags: W
LayerCount: 2
Fore
SplineSet
886 725 m 0,0,1
 886 658 886 658 857 598.5 c 128,-1,2
 828 539 828 539 779 494 c 128,-1,3
 730 449 730 449 666 423 c 128,-1,4
 602 397 602 397 532 397 c 0,5,6
 469 397 469 397 414.5 419.5 c 128,-1,7
 360 442 360 442 319.5 480.5 c 128,-1,8
 279 519 279 519 256 571 c 128,-1,9
 233 623 233 623 233 682 c 0,10,11
 233 749 233 749 262.5 808.5 c 128,-1,12
 292 868 292 868 341.5 913 c 128,-1,13
 391 958 391 958 455 984 c 128,-1,14
 519 1010 519 1010 589 1010 c 0,15,16
 652 1010 652 1010 706.5 987.5 c 128,-1,17
 761 965 761 965 800.5 926.5 c 128,-1,18
 840 888 840 888 863 836 c 128,-1,19
 886 784 886 784 886 725 c 0,0,1
EndSplineSet
EndChar

StartChar: paragraph
Encoding: 182 182 139
Width: 1214
Flags: W
LayerCount: 2
Fore
SplineSet
458 -154 m 1,0,-1
 540 814 l 1,1,-1
 524 814 l 2,2,3
 459 814 459 814 402.5 836.5 c 128,-1,4
 346 859 346 859 304 899.5 c 128,-1,5
 262 940 262 940 238 997.5 c 128,-1,6
 214 1055 214 1055 214 1125 c 0,7,8
 214 1225 214 1225 257.5 1291 c 128,-1,9
 301 1357 301 1357 375 1396 c 128,-1,10
 449 1435 449 1435 547 1451 c 128,-1,11
 645 1467 645 1467 753 1467 c 2,12,-1
 1126 1467 l 1,13,-1
 1116 1377 l 1,14,-1
 1030 1377 l 1,15,-1
 907 -154 l 1,16,-1
 812 -154 l 1,17,-1
 947 1377 l 1,18,-1
 691 1377 l 1,19,-1
 557 -154 l 1,20,-1
 458 -154 l 1,0,-1
EndSplineSet
EndChar

StartChar: germandbls
Encoding: 223 223 140
Width: 1257
Flags: W
LayerCount: 2
Fore
SplineSet
316 0 m 1,0,-1
 195 0 l 1,1,-1
 280 1093 l 2,2,3
 287 1192 287 1192 321.5 1272.5 c 128,-1,4
 356 1353 356 1353 414.5 1410 c 128,-1,5
 473 1467 473 1467 554 1498.5 c 128,-1,6
 635 1530 635 1530 735 1530 c 0,7,8
 824 1530 824 1530 893.5 1507 c 128,-1,9
 963 1484 963 1484 1010.5 1444 c 128,-1,10
 1058 1404 1058 1404 1083 1349.5 c 128,-1,11
 1108 1295 1108 1295 1108 1233 c 0,12,13
 1108 1183 1108 1183 1090.5 1138 c 128,-1,14
 1073 1093 1073 1093 1045.5 1053.5 c 128,-1,15
 1018 1014 1018 1014 982.5 980.5 c 128,-1,16
 947 947 947 947 911.5 920 c 128,-1,17
 876 893 876 893 843 873 c 128,-1,18
 810 853 810 853 786 841 c 1,19,20
 774 833 774 833 770 828 c 128,-1,21
 766 823 766 823 766 815 c 0,22,23
 766 798 766 798 788 791 c 1,24,25
 861 761 861 761 935.5 724 c 128,-1,26
 1010 687 1010 687 1070 636 c 128,-1,27
 1130 585 1130 585 1168 518 c 128,-1,28
 1206 451 1206 451 1206 361 c 0,29,30
 1206 275 1206 275 1171.5 204 c 128,-1,31
 1137 133 1137 133 1081 82.5 c 128,-1,32
 1025 32 1025 32 953 4.5 c 128,-1,33
 881 -23 881 -23 806 -23 c 0,34,35
 721 -23 721 -23 645.5 12 c 128,-1,36
 570 47 570 47 516 126 c 1,37,-1
 564 193 l 1,38,39
 610 133 610 133 676 104 c 128,-1,40
 742 75 742 75 812 75 c 0,41,42
 861 75 861 75 906.5 92 c 128,-1,43
 952 109 952 109 986.5 142 c 128,-1,44
 1021 175 1021 175 1041.5 224 c 128,-1,45
 1062 273 1062 273 1062 337 c 0,46,47
 1062 419 1062 419 1027 481.5 c 128,-1,48
 992 544 992 544 936 594 c 128,-1,49
 880 644 880 644 809.5 686.5 c 128,-1,50
 739 729 739 729 668 772 c 1,51,-1
 695 895 l 1,52,53
 746 918 746 918 794.5 951.5 c 128,-1,54
 843 985 843 985 880.5 1028 c 128,-1,55
 918 1071 918 1071 941 1122 c 128,-1,56
 964 1173 964 1173 964 1232 c 0,57,58
 964 1326 964 1326 899.5 1379 c 128,-1,59
 835 1432 835 1432 724 1432 c 0,60,61
 641 1432 641 1432 582.5 1405.5 c 128,-1,62
 524 1379 524 1379 485 1330.5 c 128,-1,63
 446 1282 446 1282 425 1212.5 c 128,-1,64
 404 1143 404 1143 397 1057 c 2,65,-1
 316 0 l 1,0,-1
EndSplineSet
EndChar

StartChar: registered
Encoding: 174 174 141
Width: 1829
Flags: W
LayerCount: 2
Fore
SplineSet
785 689 m 1,0,-1
 751 282 l 1,1,-1
 653 282 l 1,2,-1
 722 1198 l 1,3,-1
 983 1198 l 2,4,5
 1187 1198 1187 1198 1284 1138 c 128,-1,6
 1381 1078 1381 1078 1381 969 c 0,7,8
 1381 918 1381 918 1362 871 c 128,-1,9
 1343 824 1343 824 1304 787 c 128,-1,10
 1265 750 1265 750 1205.5 726.5 c 128,-1,11
 1146 703 1146 703 1065 700 c 1,12,13
 1099 679 1099 679 1136.5 628.5 c 128,-1,14
 1174 578 1174 578 1210 516 c 128,-1,15
 1246 454 1246 454 1278.5 391 c 128,-1,16
 1311 328 1311 328 1335 282 c 1,17,-1
 1217 282 l 1,18,-1
 1111 494 l 2,19,20
 1074 567 1074 567 1037 615 c 128,-1,21
 1000 663 1000 663 957 689 c 1,22,-1
 785 689 l 1,0,-1
793 774 m 1,23,-1
 946 774 l 2,24,25
 1021 774 1021 774 1081.5 779.5 c 128,-1,26
 1142 785 1142 785 1184.5 803.5 c 128,-1,27
 1227 822 1227 822 1249.5 857 c 128,-1,28
 1272 892 1272 892 1272 951 c 0,29,30
 1272 1002 1272 1002 1254.5 1034 c 128,-1,31
 1237 1066 1237 1066 1199.5 1083 c 128,-1,32
 1162 1100 1162 1100 1103 1106 c 128,-1,33
 1044 1112 1044 1112 961 1112 c 2,34,-1
 815 1112 l 1,35,-1
 793 774 l 1,23,-1
936 51 m 0,36,37
 1043 51 1043 51 1143 77 c 128,-1,38
 1243 103 1243 103 1329.5 150 c 128,-1,39
 1416 197 1416 197 1487 263 c 128,-1,40
 1558 329 1558 329 1609 409.5 c 128,-1,41
 1660 490 1660 490 1688 582.5 c 128,-1,42
 1716 675 1716 675 1716 775 c 0,43,44
 1716 911 1716 911 1665 1028.5 c 128,-1,45
 1614 1146 1614 1146 1523.5 1232 c 128,-1,46
 1433 1318 1433 1318 1308.5 1367 c 128,-1,47
 1184 1416 1184 1416 1036 1416 c 0,48,49
 930 1416 930 1416 830.5 1390.5 c 128,-1,50
 731 1365 731 1365 644.5 1318 c 128,-1,51
 558 1271 558 1271 486 1205 c 128,-1,52
 414 1139 414 1139 363 1058.5 c 128,-1,53
 312 978 312 978 283.5 885 c 128,-1,54
 255 792 255 792 255 691 c 0,55,56
 255 554 255 554 305.5 437 c 128,-1,57
 356 320 356 320 447 234.5 c 128,-1,58
 538 149 538 149 662.5 100 c 128,-1,59
 787 51 787 51 936 51 c 0,36,37
928 -32 m 0,60,61
 821 -32 821 -32 723 -6.5 c 128,-1,62
 625 19 625 19 541 65.5 c 128,-1,63
 457 112 457 112 388.5 177.5 c 128,-1,64
 320 243 320 243 272 323 c 128,-1,65
 224 403 224 403 197.5 495 c 128,-1,66
 171 587 171 587 171 687 c 0,67,68
 171 798 171 798 203.5 901 c 128,-1,69
 236 1004 236 1004 294.5 1094.5 c 128,-1,70
 353 1185 353 1185 434.5 1259.5 c 128,-1,71
 516 1334 516 1334 613 1387 c 128,-1,72
 710 1440 710 1440 819.5 1469.5 c 128,-1,73
 929 1499 929 1499 1044 1499 c 0,74,75
 1151 1499 1151 1499 1248 1473.5 c 128,-1,76
 1345 1448 1345 1448 1429 1401 c 128,-1,77
 1513 1354 1513 1354 1581 1288.5 c 128,-1,78
 1649 1223 1649 1223 1697.5 1143 c 128,-1,79
 1746 1063 1746 1063 1772 970.5 c 128,-1,80
 1798 878 1798 878 1798 779 c 0,81,82
 1798 668 1798 668 1765.5 565 c 128,-1,83
 1733 462 1733 462 1675 372 c 128,-1,84
 1617 282 1617 282 1536 207.5 c 128,-1,85
 1455 133 1455 133 1358.5 80 c 128,-1,86
 1262 27 1262 27 1152.5 -2.5 c 128,-1,87
 1043 -32 1043 -32 928 -32 c 0,60,61
EndSplineSet
EndChar

StartChar: trademark
Encoding: 8482 8482 142
Width: 1869
Flags: W
LayerCount: 2
Fore
SplineSet
1123 1467 m 1,0,-1
 1338 869 l 1,1,-1
 1665 1467 l 1,2,-1
 1816 1467 l 1,3,-1
 1748 711 l 1,4,-1
 1664 711 l 1,5,-1
 1732 1399 l 1,6,-1
 1349 711 l 1,7,-1
 1303 711 l 1,8,-1
 1055 1401 l 1,9,-1
 988 711 l 1,10,-1
 904 711 l 1,11,-1
 973 1467 l 1,12,-1
 1123 1467 l 1,0,-1
810 1467 m 1,13,-1
 791 1400 l 1,14,-1
 540 1400 l 1,15,-1
 476 711 l 1,16,-1
 390 711 l 1,17,-1
 454 1400 l 1,18,-1
 189 1400 l 1,19,-1
 196 1467 l 1,20,-1
 810 1467 l 1,13,-1
EndSplineSet
EndChar

StartChar: notequal
Encoding: 8800 8800 143
Width: 1351
Flags: W
LayerCount: 2
Fore
SplineSet
778 756 m 1,0,-1
 246 756 l 1,1,-1
 267 843 l 1,2,-1
 826 843 l 1,3,-1
 990 1123 l 1,4,-1
 1067 1111 l 1,5,-1
 913 843 l 1,6,-1
 1245 843 l 1,7,-1
 1223 756 l 1,8,-1
 864 756 l 1,9,-1
 666 423 l 1,10,-1
 1214 423 l 1,11,-1
 1192 337 l 1,12,-1
 617 337 l 1,13,-1
 449 52 l 1,14,-1
 374 64 l 1,15,-1
 533 337 l 1,16,-1
 215 337 l 1,17,-1
 236 423 l 1,18,-1
 580 423 l 1,19,-1
 778 756 l 1,0,-1
EndSplineSet
EndChar

StartChar: AE
Encoding: 198 198 144
Width: 2028
Flags: W
LayerCount: 2
Fore
SplineSet
1047 1342 m 1,0,-1
 509 521 l 1,1,-1
 1137 521 l 1,2,-1
 1137 1342 l 1,3,-1
 1047 1342 l 1,0,-1
979 1456 m 1,4,-1
 2002 1456 l 1,5,-1
 1993 1342 l 1,6,-1
 1256 1342 l 1,7,-1
 1256 804 l 1,8,-1
 1911 804 l 1,9,-1
 1899 691 l 1,10,-1
 1263 691 l 1,11,-1
 1263 114 l 1,12,-1
 1922 114 l 1,13,-1
 1913 0 l 1,14,-1
 1144 0 l 1,15,-1
 1144 407 l 1,16,-1
 442 407 l 1,17,-1
 179 0 l 1,18,-1
 33 0 l 1,19,-1
 979 1456 l 1,4,-1
EndSplineSet
EndChar

StartChar: Oslash
Encoding: 216 216 145
Width: 1663
Flags: W
LayerCount: 2
Fore
SplineSet
1609 801 m 0,0,1
 1609 621 1609 621 1555 469.5 c 128,-1,2
 1501 318 1501 318 1400.5 208.5 c 128,-1,3
 1300 99 1300 99 1157 38 c 128,-1,4
 1014 -23 1014 -23 836 -23 c 0,5,6
 726 -23 726 -23 633 1 c 1,7,-1
 574 -126 l 1,8,-1
 458 -126 l 1,9,-1
 533 37 l 1,10,11
 431 84 431 84 358 161 c 0,12,13
 275 250 275 250 231.5 375.5 c 128,-1,14
 188 501 188 501 188 656 c 0,15,16
 188 836 188 836 242 987.5 c 128,-1,17
 296 1139 296 1139 396.5 1249 c 128,-1,18
 497 1359 497 1359 641 1421 c 128,-1,19
 785 1483 785 1483 965 1483 c 0,20,21
 1086 1483 1086 1483 1186 1452 c 1,22,-1
 1238 1565 l 1,23,-1
 1359 1565 l 1,24,-1
 1287 1411 l 1,25,26
 1374 1366 1374 1366 1439 1297 c 0,27,28
 1522 1208 1522 1208 1565.5 1082 c 128,-1,29
 1609 956 1609 956 1609 801 c 0,0,1
325 669 m 0,30,31
 325 546 325 546 358 440.5 c 128,-1,32
 391 335 391 335 456 257 c 0,33,34
 510 193 510 193 586 151 c 1,35,-1
 1134 1341 l 1,36,37
 1052 1369 1052 1369 947 1369 c 0,38,39
 798 1369 798 1369 682 1311 c 128,-1,40
 566 1253 566 1253 486.5 1156 c 128,-1,41
 407 1059 407 1059 366 932.5 c 128,-1,42
 325 806 325 806 325 669 c 0,30,31
846 91 m 0,43,44
 998 91 998 91 1114 145.5 c 128,-1,45
 1230 200 1230 200 1308 296 c 128,-1,46
 1386 392 1386 392 1425.5 522.5 c 128,-1,47
 1465 653 1465 653 1465 805 c 0,48,49
 1465 923 1465 923 1433.5 1026 c 128,-1,50
 1402 1129 1402 1129 1337 1205 c 0,51,52
 1293 1257 1293 1257 1233 1294 c 1,53,-1
 684 111 l 1,54,55
 758 91 758 91 846 91 c 0,43,44
EndSplineSet
EndChar

StartChar: plusminus
Encoding: 177 177 146
Width: 1458
Flags: W
LayerCount: 2
Fore
SplineSet
221 0 m 1,0,-1
 230 107 l 1,1,-1
 1265 107 l 1,2,-1
 1255 0 l 1,3,-1
 221 0 l 1,0,-1
741 724 m 1,4,-1
 769 1110 l 1,5,-1
 874 1110 l 1,6,-1
 846 724 l 1,7,-1
 1311 724 l 1,8,-1
 1301 617 l 1,9,-1
 835 617 l 1,10,-1
 807 232 l 1,11,-1
 701 232 l 1,12,-1
 731 617 l 1,13,-1
 265 617 l 1,14,-1
 293 724 l 1,15,-1
 741 724 l 1,4,-1
EndSplineSet
EndChar

StartChar: lessequal
Encoding: 8804 8804 147
Width: 1351
Flags: W
LayerCount: 2
Fore
SplineSet
1181 9 m 1,0,-1
 190 9 l 1,1,-1
 211 100 l 1,2,-1
 1188 100 l 1,3,-1
 1181 9 l 1,0,-1
1155 241 m 1,4,-1
 270 682 l 1,5,-1
 277 747 l 1,6,-1
 1252 1213 l 1,7,-1
 1227 1110 l 1,8,-1
 407 721 l 1,9,-1
 406 707 l 1,10,-1
 1180 341 l 1,11,-1
 1155 241 l 1,4,-1
EndSplineSet
EndChar

StartChar: yen
Encoding: 165 165 148
Width: 1189
Flags: W
LayerCount: 2
Fore
SplineSet
582 704 m 1,0,-1
 166 1436 l 1,1,-1
 317 1436 l 1,2,-1
 557 980 l 1,3,-1
 666 765 l 1,4,-1
 797 958 l 1,5,-1
 1129 1436 l 1,6,-1
 1265 1436 l 1,7,-1
 736 704 l 1,8,-1
 1126 704 l 1,9,-1
 1116 596 l 1,10,-1
 711 596 l 1,11,-1
 695 401 l 1,12,-1
 1106 401 l 1,13,-1
 1097 292 l 1,14,-1
 684 292 l 1,15,-1
 658 0 l 1,16,-1
 530 0 l 1,17,-1
 556 292 l 1,18,-1
 148 292 l 1,19,-1
 176 401 l 1,20,-1
 566 401 l 1,21,-1
 582 596 l 1,22,-1
 169 596 l 1,23,-1
 179 704 l 1,24,-1
 582 704 l 1,0,-1
EndSplineSet
EndChar

StartChar: mu1
Encoding: 181 181 149
Width: 1182
Flags: W
LayerCount: 2
Fore
SplineSet
895 208 m 1,0,1
 845 91 845 91 766.5 34 c 128,-1,2
 688 -23 688 -23 575 -23 c 0,3,4
 388 -23 388 -23 336 134 c 1,5,-1
 280 -407 l 1,6,-1
 147 -407 l 1,7,-1
 260 1026 l 1,8,-1
 393 1026 l 1,9,-1
 343 396 l 2,10,11
 342 388 342 388 342 379.5 c 128,-1,12
 342 371 342 371 342 363 c 0,13,14
 342 302 342 302 360 253 c 128,-1,15
 378 204 378 204 411 170 c 128,-1,16
 444 136 444 136 490 118 c 128,-1,17
 536 100 536 100 592 100 c 0,18,19
 658 100 658 100 714.5 123.5 c 128,-1,20
 771 147 771 147 813 191 c 128,-1,21
 855 235 855 235 881.5 297 c 128,-1,22
 908 359 908 359 914 436 c 2,23,-1
 960 1026 l 1,24,-1
 1096 1026 l 1,25,-1
 1036 259 l 2,26,27
 1030 187 1030 187 1030 133 c 0,28,29
 1030 42 1030 42 1046 0 c 1,30,-1
 908 0 l 1,31,32
 903 13 903 13 900.5 31 c 128,-1,33
 898 49 898 49 896 68.5 c 128,-1,34
 894 88 894 88 893.5 107.5 c 128,-1,35
 893 127 893 127 893 145 c 0,36,37
 893 159 893 159 893 170.5 c 128,-1,38
 893 182 893 182 894 190 c 1,39,40
 894 200 894 200 895 208 c 1,0,1
EndSplineSet
EndChar

StartChar: partialdiff
Encoding: 8706 8706 150
Width: 1167
Flags: W
LayerCount: 2
Fore
SplineSet
510 77 m 0,0,1
 600 77 600 77 677.5 120.5 c 128,-1,2
 755 164 755 164 816.5 242 c 128,-1,3
 878 320 878 320 921 427 c 128,-1,4
 964 534 964 534 984 661 c 1,5,6
 973 710 973 710 949 754 c 128,-1,7
 925 798 925 798 888.5 830 c 128,-1,8
 852 862 852 862 802.5 881 c 128,-1,9
 753 900 753 900 690 900 c 0,10,11
 603 900 603 900 525 857.5 c 128,-1,12
 447 815 447 815 387.5 743 c 128,-1,13
 328 671 328 671 293.5 576 c 128,-1,14
 259 481 259 481 259 375 c 0,15,16
 259 308 259 308 276.5 253 c 128,-1,17
 294 198 294 198 326 159 c 128,-1,18
 358 120 358 120 404.5 98.5 c 128,-1,19
 451 77 451 77 510 77 c 0,0,1
1008 764 m 1,20,21
 1014 806 1014 806 1020.5 866 c 128,-1,22
 1027 926 1027 926 1027 992 c 0,23,24
 1027 1098 1027 1098 1004 1183 c 128,-1,25
 981 1268 981 1268 937 1327 c 128,-1,26
 893 1386 893 1386 830 1417.5 c 128,-1,27
 767 1449 767 1449 687 1449 c 0,28,29
 609 1449 609 1449 539.5 1426.5 c 128,-1,30
 470 1404 470 1404 422 1372 c 1,31,-1
 422 1467 l 1,32,33
 482 1502 482 1502 559.5 1527 c 128,-1,34
 637 1552 637 1552 725 1552 c 0,35,36
 824 1552 824 1552 903 1517 c 128,-1,37
 982 1482 982 1482 1036.5 1410 c 128,-1,38
 1091 1338 1091 1338 1120.5 1227 c 128,-1,39
 1150 1116 1150 1116 1150 964 c 0,40,41
 1150 845 1150 845 1131.5 726 c 128,-1,42
 1113 607 1113 607 1076 497 c 128,-1,43
 1039 387 1039 387 984 292 c 128,-1,44
 929 197 929 197 856.5 127 c 128,-1,45
 784 57 784 57 693.5 16.5 c 128,-1,46
 603 -24 603 -24 496 -24 c 0,47,48
 404 -24 404 -24 336 6 c 128,-1,49
 268 36 268 36 223 89 c 128,-1,50
 178 142 178 142 156 213.5 c 128,-1,51
 134 285 134 285 134 368 c 0,52,53
 134 501 134 501 178 617 c 128,-1,54
 222 733 222 733 296.5 818.5 c 128,-1,55
 371 904 371 904 469.5 953 c 128,-1,56
 568 1002 568 1002 677 1002 c 0,57,58
 755 1002 755 1002 813 979.5 c 128,-1,59
 871 957 871 957 911.5 922.5 c 128,-1,60
 952 888 952 888 976 845.5 c 128,-1,61
 1000 803 1000 803 1008 764 c 1,20,21
EndSplineSet
EndChar

StartChar: summation
Encoding: 8721 8721 151
Width: 1264
Flags: W
LayerCount: 2
Fore
SplineSet
936 564 m 1,0,-1
 305 -131 l 1,1,-1
 219 -225 l 1,2,-1
 1209 -225 l 1,3,-1
 1200 -341 l 1,4,-1
 44 -341 l 1,5,-1
 54 -273 l 1,6,-1
 784 549 l 1,7,-1
 203 1359 l 1,8,-1
 210 1439 l 1,9,-1
 1294 1439 l 1,10,-1
 1285 1328 l 1,11,-1
 386 1328 l 1,12,-1
 451 1238 l 1,13,-1
 936 564 l 1,0,-1
EndSplineSet
EndChar

StartChar: product
Encoding: 8719 8719 152
Width: 1568
Flags: W
LayerCount: 2
Fore
SplineSet
246 -341 m 1,0,-1
 369 1319 l 1,1,-1
 254 1319 l 1,2,-1
 266 1439 l 1,3,-1
 1568 1439 l 1,4,-1
 1553 1319 l 1,5,-1
 1428 1319 l 1,6,-1
 1307 -341 l 1,7,-1
 1182 -341 l 1,8,-1
 1303 1319 l 1,9,-1
 493 1319 l 1,10,-1
 372 -341 l 1,11,-1
 246 -341 l 1,0,-1
EndSplineSet
EndChar

StartChar: ordfeminine
Encoding: 170 170 153
Width: 745
Flags: W
LayerCount: 2
Fore
SplineSet
270 1429 m 1,0,1
 322 1463 322 1463 385 1478 c 128,-1,2
 448 1493 448 1493 519 1493 c 0,3,4
 576 1493 576 1493 622.5 1478 c 128,-1,5
 669 1463 669 1463 701 1433.5 c 128,-1,6
 733 1404 733 1404 748.5 1361 c 128,-1,7
 764 1318 764 1318 760 1263 c 2,8,-1
 733 933 l 2,9,10
 731 901 731 901 730.5 872.5 c 128,-1,11
 730 844 730 844 730 814 c 1,12,-1
 642 814 l 1,13,-1
 650 941 l 1,14,15
 635 912 635 912 608.5 885.5 c 128,-1,16
 582 859 582 859 546.5 839 c 128,-1,17
 511 819 511 819 469.5 807.5 c 128,-1,18
 428 796 428 796 383 796 c 0,19,20
 335 796 335 796 295 809 c 128,-1,21
 255 822 255 822 226 846 c 128,-1,22
 197 870 197 870 180.5 903.5 c 128,-1,23
 164 937 164 937 164 978 c 0,24,25
 164 1179 164 1179 411 1198 c 1,26,27
 480 1205 480 1205 543.5 1210.5 c 128,-1,28
 607 1216 607 1216 671 1220 c 1,29,30
 672 1233 672 1233 672 1244 c 128,-1,31
 672 1255 672 1255 672 1265 c 0,32,33
 672 1311 672 1311 663 1340.5 c 128,-1,34
 654 1370 654 1370 633.5 1387.5 c 128,-1,35
 613 1405 613 1405 581 1412 c 128,-1,36
 549 1419 549 1419 504 1419 c 0,37,38
 446 1419 446 1419 392.5 1409 c 128,-1,39
 339 1399 339 1399 294 1370 c 1,40,-1
 270 1429 l 1,0,1
412 865 m 0,41,42
 475 865 475 865 521.5 891 c 128,-1,43
 568 917 568 917 598.5 954.5 c 128,-1,44
 629 992 629 992 644.5 1033.5 c 128,-1,45
 660 1075 660 1075 661 1107 c 2,46,-1
 663 1157 l 1,47,48
 622 1148 622 1148 576 1143.5 c 128,-1,49
 530 1139 530 1139 484.5 1134 c 128,-1,50
 439 1129 439 1129 398 1121 c 128,-1,51
 357 1113 357 1113 325.5 1097 c 128,-1,52
 294 1081 294 1081 275 1054 c 128,-1,53
 256 1027 256 1027 256 984 c 0,54,55
 256 924 256 924 299 894.5 c 128,-1,56
 342 865 342 865 412 865 c 0,41,42
EndSplineSet
EndChar

StartChar: ordmasculine
Encoding: 186 186 154
Width: 824
Flags: W
LayerCount: 2
Fore
SplineSet
541 1492 m 0,0,1
 621 1492 621 1492 681 1468 c 128,-1,2
 741 1444 741 1444 781 1401.5 c 128,-1,3
 821 1359 821 1359 841 1300 c 128,-1,4
 861 1241 861 1241 861 1172 c 0,5,6
 861 1095 861 1095 835.5 1026.5 c 128,-1,7
 810 958 810 958 762 906.5 c 128,-1,8
 714 855 714 855 644 825 c 128,-1,9
 574 795 574 795 486 795 c 0,10,11
 405 795 405 795 344.5 819.5 c 128,-1,12
 284 844 284 844 243.5 887 c 128,-1,13
 203 930 203 930 183 989 c 128,-1,14
 163 1048 163 1048 163 1117 c 0,15,16
 163 1195 163 1195 188.5 1263.5 c 128,-1,17
 214 1332 214 1332 262.5 1383 c 128,-1,18
 311 1434 311 1434 381.5 1463 c 128,-1,19
 452 1492 452 1492 541 1492 c 0,0,1
256 1123 m 0,20,21
 256 1069 256 1069 270.5 1023 c 128,-1,22
 285 977 285 977 315 942.5 c 128,-1,23
 345 908 345 908 389.5 888.5 c 128,-1,24
 434 869 434 869 494 869 c 0,25,26
 559 869 559 869 610 893 c 128,-1,27
 661 917 661 917 696.5 957.5 c 128,-1,28
 732 998 732 998 750.5 1051.5 c 128,-1,29
 769 1105 769 1105 769 1163 c 0,30,31
 769 1217 769 1217 754 1263.5 c 128,-1,32
 739 1310 739 1310 709 1344.5 c 128,-1,33
 679 1379 679 1379 634 1399 c 128,-1,34
 589 1419 589 1419 530 1419 c 0,35,36
 465 1419 465 1419 414.5 1395 c 128,-1,37
 364 1371 364 1371 328.5 1330.5 c 128,-1,38
 293 1290 293 1290 274.5 1236.5 c 128,-1,39
 256 1183 256 1183 256 1123 c 0,20,21
EndSplineSet
EndChar

StartChar: ae
Encoding: 230 230 155
Width: 1807
Flags: W
LayerCount: 2
Fore
SplineSet
289 810 m 1,0,-1
 225 878 l 1,1,2
 256 925 256 925 299 958.5 c 128,-1,3
 342 992 342 992 395 1013 c 128,-1,4
 448 1034 448 1034 509.5 1043.5 c 128,-1,5
 571 1053 571 1053 639 1053 c 1,6,7
 699 1051 699 1051 752 1035 c 128,-1,8
 805 1019 805 1019 845.5 987.5 c 128,-1,9
 886 956 886 956 911 908.5 c 128,-1,10
 936 861 936 861 941 797 c 1,11,-1
 946 797 l 1,12,13
 980 864 980 864 1026.5 912 c 128,-1,14
 1073 960 1073 960 1127 991.5 c 128,-1,15
 1181 1023 1181 1023 1240.5 1038 c 128,-1,16
 1300 1053 1300 1053 1362 1053 c 0,17,18
 1465 1053 1465 1053 1541 1016.5 c 128,-1,19
 1617 980 1617 980 1666 918 c 128,-1,20
 1715 856 1715 856 1739 772.5 c 128,-1,21
 1763 689 1763 689 1763 595 c 0,22,23
 1763 547 1763 547 1757 498 c 1,24,-1
 977 498 l 1,25,26
 975 477 975 477 973.5 459 c 128,-1,27
 972 441 972 441 972 421 c 0,28,29
 972 348 972 348 989 285.5 c 128,-1,30
 1006 223 1006 223 1043 177 c 128,-1,31
 1080 131 1080 131 1138 105 c 128,-1,32
 1196 79 1196 79 1279 79 c 0,33,34
 1391 79 1391 79 1482.5 127 c 128,-1,35
 1574 175 1574 175 1634 258 c 1,36,-1
 1697 190 l 1,37,38
 1625 85 1625 85 1513.5 30 c 128,-1,39
 1402 -25 1402 -25 1258 -25 c 0,40,41
 1192 -25 1192 -25 1133 -8 c 128,-1,42
 1074 9 1074 9 1026 41.5 c 128,-1,43
 978 74 978 74 943 122.5 c 128,-1,44
 908 171 908 171 889 234 c 1,45,46
 854 159 854 159 808.5 110 c 128,-1,47
 763 61 763 61 706.5 31 c 128,-1,48
 650 1 650 1 583 -12 c 128,-1,49
 516 -25 516 -25 439 -28 c 1,50,51
 366 -28 366 -28 306.5 -8.5 c 128,-1,52
 247 11 247 11 204.5 47 c 128,-1,53
 162 83 162 83 138.5 135 c 128,-1,54
 115 187 115 187 115 252 c 0,55,56
 115 331 115 331 141.5 391 c 128,-1,57
 168 451 168 451 218.5 492.5 c 128,-1,58
 269 534 269 534 341.5 557 c 128,-1,59
 414 580 414 580 506 586 c 1,60,61
 596 595 596 595 679.5 598.5 c 128,-1,62
 763 602 763 602 857 604 c 1,63,-1
 857 618 l 2,64,65
 857 624 857 624 857.5 632 c 128,-1,66
 858 640 858 640 858 649 c 0,67,68
 858 713 858 713 848 768.5 c 128,-1,69
 838 824 838 824 811.5 864.5 c 128,-1,70
 785 905 785 905 738.5 928 c 128,-1,71
 692 951 692 951 619 951 c 0,72,73
 567 951 567 951 518.5 943.5 c 128,-1,74
 470 936 470 936 427 919 c 128,-1,75
 384 902 384 902 349 875.5 c 128,-1,76
 314 849 314 849 289 810 c 1,0,-1
848 498 m 1,77,-1
 671 495 l 2,78,79
 588 493 588 493 510.5 485 c 128,-1,80
 433 477 433 477 373.5 453 c 128,-1,81
 314 429 314 429 278 384.5 c 128,-1,82
 242 340 242 340 242 266 c 0,83,84
 242 215 242 215 261.5 179 c 128,-1,85
 281 143 281 143 314.5 119.5 c 128,-1,86
 348 96 348 96 391.5 85.5 c 128,-1,87
 435 75 435 75 483 75 c 0,88,89
 582 75 582 75 650 110.5 c 128,-1,90
 718 146 718 146 760.5 205 c 128,-1,91
 803 264 803 264 823.5 340.5 c 128,-1,92
 844 417 844 417 848 498 c 1,77,-1
983 600 m 1,93,-1
 1645 600 l 1,94,95
 1648 625 1648 625 1648 651 c 0,96,97
 1648 709 1648 709 1629.5 763.5 c 128,-1,98
 1611 818 1611 818 1574 859.5 c 128,-1,99
 1537 901 1537 901 1482 926 c 128,-1,100
 1427 951 1427 951 1354 951 c 0,101,102
 1273 951 1273 951 1207 922.5 c 128,-1,103
 1141 894 1141 894 1093 845.5 c 128,-1,104
 1045 797 1045 797 1017 733.5 c 128,-1,105
 989 670 989 670 983 600 c 1,93,-1
EndSplineSet
EndChar

StartChar: oslash
Encoding: 248 248 156
Width: 1238
Flags: W
LayerCount: 2
Fore
SplineSet
296 -175 m 1,0,-1
 389 27 l 1,1,2
 329 56 329 56 284 100.5 c 128,-1,3
 239 145 239 145 209 201 c 128,-1,4
 179 257 179 257 163.5 323.5 c 128,-1,5
 148 390 148 390 148 462 c 0,6,7
 148 583 148 583 186 690 c 128,-1,8
 224 797 224 797 297 877.5 c 128,-1,9
 370 958 370 958 475.5 1004.5 c 128,-1,10
 581 1051 581 1051 715 1051 c 0,11,12
 790 1051 790 1051 853 1036 c 1,13,-1
 924 1189 l 1,14,-1
 1045 1189 l 1,15,-1
 956 998 l 1,16,17
 1015 968 1015 968 1058.5 923 c 128,-1,18
 1102 878 1102 878 1131 821.5 c 128,-1,19
 1160 765 1160 765 1174 698.5 c 128,-1,20
 1188 632 1188 632 1188 559 c 0,21,22
 1188 442 1188 442 1150 336 c 128,-1,23
 1112 230 1112 230 1039.5 150.5 c 128,-1,24
 967 71 967 71 862 24 c 128,-1,25
 757 -23 757 -23 623 -23 c 0,26,27
 588 -23 588 -23 554.5 -19.5 c 128,-1,28
 521 -16 521 -16 489 -9 c 1,29,-1
 412 -175 l 1,30,-1
 296 -175 l 1,0,-1
700 951 m 0,31,32
 598 951 598 951 519 910.5 c 128,-1,33
 440 870 440 870 386.5 803.5 c 128,-1,34
 333 737 333 737 305 650.5 c 128,-1,35
 277 564 277 564 277 472 c 0,36,37
 277 419 277 419 286.5 369 c 128,-1,38
 296 319 296 319 316 274.5 c 128,-1,39
 336 230 336 230 365.5 193.5 c 128,-1,40
 395 157 395 157 436 130 c 1,41,-1
 808 938 l 1,42,43
 762 951 762 951 700 951 c 0,31,32
1058 550 m 0,44,45
 1058 661 1058 661 1021.5 750 c 128,-1,46
 985 839 985 839 907 893 c 1,47,-1
 533 87 l 1,48,49
 581 75 581 75 638 75 c 0,50,51
 741 75 741 75 819.5 114.5 c 128,-1,52
 898 154 898 154 951 220 c 128,-1,53
 1004 286 1004 286 1031 372 c 128,-1,54
 1058 458 1058 458 1058 550 c 0,44,45
EndSplineSet
EndChar

StartChar: logicalnot
Encoding: 172 172 158
Width: 1458
Flags: W
LayerCount: 2
Fore
SplineSet
1168 247 m 1,0,-1
 1206 684 l 1,1,-1
 272 684 l 1,2,-1
 282 789 l 1,3,-1
 1318 789 l 1,4,-1
 1273 247 l 1,5,-1
 1168 247 l 1,0,-1
EndSplineSet
EndChar

StartChar: radical
Encoding: 8730 8730 159
Width: 1314
Flags: W
LayerCount: 2
Fore
SplineSet
682 -78 m 1,0,-1
 762 183 l 1,1,-1
 1261 1618 l 1,2,-1
 1338 1618 l 1,3,-1
 725 -159 l 1,4,-1
 630 -159 l 1,5,-1
 352 718 l 1,6,-1
 171 690 l 1,7,-1
 171 768 l 1,8,-1
 431 816 l 1,9,-1
 612 198 l 1,10,-1
 682 -78 l 1,11,-1
 682 -78 l 1,0,-1
EndSplineSet
EndChar

StartChar: florin
Encoding: 402 402 160
Width: 702
Flags: W
LayerCount: 2
Fore
SplineSet
392 0 m 1,0,-1
 272 0 l 1,1,-1
 348 920 l 1,2,-1
 139 920 l 1,3,-1
 148 1026 l 1,4,-1
 355 1026 l 1,5,-1
 364 1160 l 1,6,7
 368 1247 368 1247 387.5 1321 c 128,-1,8
 407 1395 407 1395 451 1443 c 0,9,10
 535 1533 535 1533 680 1533 c 0,11,12
 702 1533 702 1533 718 1532 c 128,-1,13
 734 1531 734 1531 746.5 1528.5 c 128,-1,14
 759 1526 759 1526 770.5 1522.5 c 128,-1,15
 782 1519 782 1519 796 1515 c 1,16,-1
 788 1419 l 1,17,18
 776 1423 776 1423 755 1426 c 128,-1,19
 734 1429 734 1429 698 1429 c 0,20,21
 638 1429 638 1429 599 1413.5 c 128,-1,22
 560 1398 560 1398 536 1367 c 128,-1,23
 512 1336 512 1336 501 1291 c 128,-1,24
 490 1246 490 1246 486 1187 c 2,25,-1
 476 1026 l 1,26,-1
 733 1026 l 1,27,-1
 724 920 l 1,28,-1
 470 920 l 1,29,-1
 392 0 l 1,0,-1
EndSplineSet
EndChar

StartChar: approxequal
Encoding: 8776 8776 161
Width: 1351
Flags: W
LayerCount: 2
Fore
SplineSet
1164 521 m 1,0,-1
 1228 506 l 1,1,2
 1214 453 1214 453 1188 409.5 c 128,-1,3
 1162 366 1162 366 1126 335.5 c 128,-1,4
 1090 305 1090 305 1043.5 288 c 128,-1,5
 997 271 997 271 941 271 c 0,6,7
 883 271 883 271 823 295.5 c 128,-1,8
 763 320 763 320 684 368 c 1,9,10
 632 402 632 402 585 422 c 128,-1,11
 538 442 538 442 486 442 c 0,12,13
 402 442 402 442 350.5 396.5 c 128,-1,14
 299 351 299 351 270 277 c 1,15,-1
 202 292 l 1,16,17
 235 402 235 402 313 464.5 c 128,-1,18
 391 527 391 527 501 527 c 0,19,20
 572 527 572 527 628 501.5 c 128,-1,21
 684 476 684 476 738 442 c 0,22,23
 802 401 802 401 852.5 378 c 128,-1,24
 903 355 903 355 956 355 c 0,25,26
 1030 355 1030 355 1079.5 398.5 c 128,-1,27
 1129 442 1129 442 1164 521 c 1,0,-1
1191 909 m 1,28,-1
 1255 890 l 1,29,30
 1241 838 1241 838 1215.5 795 c 128,-1,31
 1190 752 1190 752 1154 721 c 128,-1,32
 1118 690 1118 690 1071.5 673 c 128,-1,33
 1025 656 1025 656 968 656 c 0,34,35
 909 656 909 656 848.5 682.5 c 128,-1,36
 788 709 788 709 710 756 c 0,37,38
 657 788 657 788 609.5 807.5 c 128,-1,39
 562 827 562 827 515 827 c 0,40,41
 429 827 429 827 376 783 c 128,-1,42
 323 739 323 739 295 662 c 1,43,-1
 229 680 l 1,44,45
 264 789 264 789 341.5 851.5 c 128,-1,46
 419 914 419 914 528 914 c 0,47,48
 590 914 590 914 648 889.5 c 128,-1,49
 706 865 706 865 768 827 c 0,50,51
 803 805 803 805 832 789.5 c 128,-1,52
 861 774 861 774 886 763.5 c 128,-1,53
 911 753 911 753 934.5 748 c 128,-1,54
 958 743 958 743 983 743 c 0,55,56
 1057 743 1057 743 1108 785 c 128,-1,57
 1159 827 1159 827 1191 909 c 1,28,-1
EndSplineSet
EndChar

StartChar: guillemotleft
Encoding: 171 171 162
Width: 1156
Flags: W
LayerCount: 2
Fore
SplineSet
815 911 m 1,0,-1
 925 911 l 1,1,-1
 637 541 l 1,2,-1
 861 177 l 1,3,-1
 754 177 l 1,4,-1
 517 541 l 1,5,-1
 815 911 l 1,0,-1
516 911 m 1,6,-1
 622 911 l 1,7,-1
 336 541 l 1,8,-1
 560 177 l 1,9,-1
 453 177 l 1,10,-1
 216 541 l 1,11,-1
 516 911 l 1,6,-1
EndSplineSet
EndChar

StartChar: guillemotright
Encoding: 187 187 163
Width: 1156
Flags: W
LayerCount: 2
Fore
SplineSet
736 177 m 1,0,-1
 629 177 l 1,1,-1
 916 542 l 1,2,-1
 691 911 l 1,3,-1
 800 911 l 1,4,-1
 1038 542 l 1,5,-1
 736 177 l 1,0,-1
326 177 m 1,6,-1
 218 177 l 1,7,-1
 506 542 l 1,8,-1
 280 911 l 1,9,-1
 389 911 l 1,10,-1
 626 542 l 1,11,-1
 326 177 l 1,6,-1
EndSplineSet
EndChar

StartChar: OE
Encoding: 338 338 167
Width: 2099
Flags: W
LayerCount: 2
Fore
SplineSet
179 656 m 0,0,1
 179 837 179 837 233 988.5 c 128,-1,2
 287 1140 287 1140 387 1250 c 128,-1,3
 487 1360 487 1360 628 1421.5 c 128,-1,4
 769 1483 769 1483 943 1483 c 0,5,6
 1045 1483 1045 1483 1134.5 1462.5 c 128,-1,7
 1224 1442 1224 1442 1302 1384 c 1,8,9
 1305 1395 1305 1395 1308 1407 c 128,-1,10
 1311 1419 1311 1419 1313 1430 c 0,11,12
 1316 1442 1316 1442 1318 1455 c 1,13,-1
 2082 1456 l 1,14,-1
 2072 1342 l 1,15,-1
 1425 1342 l 1,16,-1
 1383 804 l 1,17,-1
 1993 804 l 1,18,-1
 1983 691 l 1,19,-1
 1373 691 l 1,20,-1
 1325 114 l 1,21,-1
 2007 114 l 1,22,-1
 1997 0 l 1,23,-1
 1189 0 l 1,24,-1
 1196 110 l 1,25,26
 1149 72 1149 72 1079 43 c 0,27,28
 1019 18 1019 18 930 -2.5 c 128,-1,29
 841 -23 841 -23 720 -23 c 0,30,31
 580 -23 580 -23 478 29 c 128,-1,32
 376 81 376 81 309.5 172 c 128,-1,33
 243 263 243 263 211 387.5 c 128,-1,34
 179 512 179 512 179 656 c 0,0,1
1285 1302 m 1,35,36
 1241 1320 1241 1320 1186 1335 c 0,37,38
 1139 1348 1139 1348 1075 1358.5 c 128,-1,39
 1011 1369 1011 1369 934 1369 c 0,40,41
 784 1369 784 1369 669 1310.5 c 128,-1,42
 554 1252 554 1252 475.5 1154.5 c 128,-1,43
 397 1057 397 1057 356.5 931 c 128,-1,44
 316 805 316 805 316 670 c 0,45,46
 316 514 316 514 349.5 402 c 128,-1,47
 383 290 383 290 442 217 c 128,-1,48
 501 144 501 144 582 109.5 c 128,-1,49
 663 75 663 75 758 75 c 0,50,51
 859 75 859 75 970 110.5 c 128,-1,52
 1081 146 1081 146 1196 215 c 1,53,-1
 1268 1038 l 1,54,-1
 1285 1302 l 1,35,36
EndSplineSet
EndChar

StartChar: oe
Encoding: 339 339 168
Width: 1970
Flags: W
LayerCount: 2
Fore
SplineSet
1933 491 m 1,0,-1
 1150 495 l 1,1,2
 1149 475 1149 475 1147.5 459.5 c 128,-1,3
 1146 444 1146 444 1146 427 c 0,4,5
 1146 352 1146 352 1164 287.5 c 128,-1,6
 1182 223 1182 223 1221 175.5 c 128,-1,7
 1260 128 1260 128 1320 101.5 c 128,-1,8
 1380 75 1380 75 1464 75 c 0,9,10
 1520 75 1520 75 1572 87.5 c 128,-1,11
 1624 100 1624 100 1670 122.5 c 128,-1,12
 1716 145 1716 145 1754.5 177 c 128,-1,13
 1793 209 1793 209 1821 248 c 1,14,-1
 1874 190 l 1,15,16
 1800 78 1800 78 1688 25 c 128,-1,17
 1576 -28 1576 -28 1439 -28 c 0,18,19
 1369 -28 1369 -28 1308.5 -11.5 c 128,-1,20
 1248 5 1248 5 1200.5 38.5 c 128,-1,21
 1153 72 1153 72 1119.5 122.5 c 128,-1,22
 1086 173 1086 173 1070 240 c 0,23,24
 1070 242 1070 242 1063.5 243 c 128,-1,25
 1057 244 1057 244 1058 246 c 1,26,27
 991 109 991 109 875 40.5 c 128,-1,28
 759 -28 759 -28 611 -28 c 0,29,30
 497 -28 497 -28 409.5 10 c 128,-1,31
 322 48 322 48 262.5 114 c 128,-1,32
 203 180 203 180 173 269.5 c 128,-1,33
 143 359 143 359 143 462 c 0,34,35
 143 582 143 582 182 689.5 c 128,-1,36
 221 797 221 797 294 878 c 128,-1,37
 367 959 367 959 472 1006 c 128,-1,38
 577 1053 577 1053 709 1053 c 0,39,40
 870 1053 870 1053 968.5 984.5 c 128,-1,41
 1067 916 1067 916 1114 781 c 1,42,43
 1176 915 1176 915 1283.5 984 c 128,-1,44
 1391 1053 1391 1053 1537 1053 c 0,45,46
 1637 1053 1637 1053 1712 1019.5 c 128,-1,47
 1787 986 1787 986 1837 925 c 128,-1,48
 1887 864 1887 864 1912 779.5 c 128,-1,49
 1937 695 1937 695 1937 592 c 0,50,51
 1937 560 1937 560 1936 535 c 128,-1,52
 1935 510 1935 510 1933 491 c 1,0,-1
1158 593 m 1,53,-1
 1808 593 l 1,54,55
 1809 607 1809 607 1810.5 621 c 128,-1,56
 1812 635 1812 635 1812 649 c 0,57,58
 1812 715 1812 715 1794.5 770.5 c 128,-1,59
 1777 826 1777 826 1741.5 866 c 128,-1,60
 1706 906 1706 906 1653 928.5 c 128,-1,61
 1600 951 1600 951 1529 951 c 0,62,63
 1448 951 1448 951 1382 921.5 c 128,-1,64
 1316 892 1316 892 1268.5 842.5 c 128,-1,65
 1221 793 1221 793 1192.5 728.5 c 128,-1,66
 1164 664 1164 664 1158 593 c 1,53,-1
1031 555 m 0,67,68
 1031 640 1031 640 1011 713 c 128,-1,69
 991 786 991 786 949 838.5 c 128,-1,70
 907 891 907 891 842.5 921 c 128,-1,71
 778 951 778 951 690 951 c 0,72,73
 590 951 590 951 512.5 911 c 128,-1,74
 435 871 435 871 381.5 803.5 c 128,-1,75
 328 736 328 736 300.5 648.5 c 128,-1,76
 273 561 273 561 273 466 c 0,77,78
 273 386 273 386 294.5 315 c 128,-1,79
 316 244 316 244 360 190.5 c 128,-1,80
 404 137 404 137 472 106 c 128,-1,81
 540 75 540 75 632 75 c 0,82,83
 733 75 733 75 808 115.5 c 128,-1,84
 883 156 883 156 932.5 222.5 c 128,-1,85
 982 289 982 289 1006.5 375.5 c 128,-1,86
 1031 462 1031 462 1031 555 c 0,67,68
EndSplineSet
EndChar

StartChar: endash
Encoding: 8211 8211 169
Width: 1085
Flags: W
LayerCount: 2
Fore
SplineSet
1128 508 m 1,0,-1
 49 508 l 1,1,-1
 59 610 l 1,2,-1
 1137 610 l 1,3,-1
 1128 508 l 1,0,-1
EndSplineSet
EndChar

StartChar: emdash
Encoding: 8212 8212 170
Width: 2171
Flags: W
LayerCount: 2
Fore
SplineSet
2232 508 m 1,0,-1
 42 508 l 1,1,-1
 52 610 l 1,2,-1
 2242 610 l 1,3,-1
 2232 508 l 1,0,-1
EndSplineSet
EndChar

StartChar: quotedblleft
Encoding: 8220 8220 171
Width: 1024
Flags: W
LayerCount: 2
Fore
SplineSet
355 1060 m 1,0,-1
 219 1060 l 1,1,-1
 402 1479 l 1,2,-1
 488 1479 l 1,3,-1
 355 1060 l 1,0,-1
646 1060 m 1,4,-1
 509 1060 l 1,5,-1
 689 1479 l 1,6,-1
 778 1479 l 1,7,-1
 646 1060 l 1,4,-1
EndSplineSet
EndChar

StartChar: quotedblright
Encoding: 8221 8221 172
Width: 1024
Flags: W
LayerCount: 2
Fore
SplineSet
385 1479 m 1,0,-1
 520 1479 l 1,1,-1
 342 1060 l 1,2,-1
 252 1060 l 1,3,-1
 385 1479 l 1,0,-1
659 1479 m 1,4,-1
 795 1479 l 1,5,-1
 615 1060 l 1,6,-1
 525 1060 l 1,7,-1
 659 1479 l 1,4,-1
EndSplineSet
EndChar

StartChar: quoteleft
Encoding: 8216 8216 173
Width: 553
Flags: W
LayerCount: 2
Fore
SplineSet
377 1060 m 1,0,-1
 242 1060 l 1,1,-1
 422 1479 l 1,2,-1
 510 1479 l 1,3,-1
 377 1060 l 1,0,-1
EndSplineSet
EndChar

StartChar: quoteright
Encoding: 8217 8217 174
Width: 553
Flags: W
LayerCount: 2
Fore
SplineSet
389 1479 m 1,0,-1
 523 1479 l 1,1,-1
 344 1060 l 1,2,-1
 255 1060 l 1,3,-1
 389 1479 l 1,0,-1
EndSplineSet
EndChar

StartChar: divide
Encoding: 247 247 175
Width: 1458
Flags: W
LayerCount: 2
Fore
SplineSet
257 504 m 1,0,-1
 266 608 l 1,1,-1
 1303 608 l 1,2,-1
 1293 504 l 1,3,-1
 257 504 l 1,0,-1
833 58 m 1,4,-1
 661 58 l 1,5,-1
 674 237 l 1,6,-1
 848 237 l 1,7,-1
 833 58 l 1,4,-1
901 875 m 1,8,-1
 729 875 l 1,9,-1
 742 1054 l 1,10,-1
 916 1054 l 1,11,-1
 901 875 l 1,8,-1
EndSplineSet
EndChar

StartChar: lozenge
Encoding: 9674 9674 176
Width: 1248
Flags: W
LayerCount: 2
Fore
SplineSet
1189 718 m 1,0,-1
 662 -48 l 1,1,-1
 584 -48 l 1,2,-1
 190 717 l 1,3,-1
 714 1486 l 1,4,-1
 793 1486 l 1,5,-1
 1189 718 l 1,0,-1
289 722 m 1,6,-1
 553 199 l 1,7,-1
 631 36 l 1,8,-1
 734 199 l 1,9,-1
 1088 717 l 1,10,-1
 819 1263 l 1,11,-1
 748 1412 l 1,12,-1
 649 1263 l 1,13,-1
 289 722 l 1,14,-1
 289 722 l 1,6,-1
EndSplineSet
EndChar

StartChar: fraction
Encoding: 8260 8260 179
Width: 368
Flags: W
LayerCount: 2
Fore
SplineSet
814 1452 m 1,0,-1
 -214 0 l 1,1,-1
 -312 0 l 1,2,-1
 718 1452 l 1,3,-1
 814 1452 l 1,0,-1
EndSplineSet
EndChar

StartChar: Euro
Encoding: 8364 8364 180
Width: 1190
Flags: W
LayerCount: 2
Fore
SplineSet
166 642 m 1,0,-1
 274 642 l 1,1,2
 274 666 274 666 276 708.5 c 128,-1,3
 278 751 278 751 286 812 c 1,4,-1
 162 812 l 1,5,-1
 186 919 l 1,6,-1
 310 919 l 1,7,8
 339 1036 339 1036 393.5 1136 c 128,-1,9
 448 1236 448 1236 525 1309 c 128,-1,10
 602 1382 602 1382 701 1423 c 128,-1,11
 800 1464 800 1464 919 1464 c 0,12,13
 1108 1464 1108 1464 1214 1358 c 1,14,-1
 1182 1225 l 1,15,16
 1144 1288 1144 1288 1070.5 1319 c 128,-1,17
 997 1350 997 1350 898 1350 c 0,18,19
 808 1350 808 1350 734 1314.5 c 128,-1,20
 660 1279 660 1279 602.5 1220 c 128,-1,21
 545 1161 545 1161 505 1082.5 c 128,-1,22
 465 1004 465 1004 443 919 c 1,23,-1
 1057 919 l 1,24,-1
 1032 812 l 1,25,-1
 420 812 l 1,26,27
 413 783 413 783 409 750 c 128,-1,28
 405 717 405 717 405 690 c 0,29,30
 405 676 405 676 406.5 664.5 c 128,-1,31
 408 653 408 653 408 642 c 1,32,-1
 1002 642 l 1,33,-1
 975 535 l 1,34,-1
 411 535 l 1,35,36
 415 437 415 437 437.5 355 c 128,-1,37
 460 273 460 273 505.5 214.5 c 128,-1,38
 551 156 551 156 621.5 123.5 c 128,-1,39
 692 91 692 91 793 91 c 0,40,41
 878 91 878 91 956.5 117 c 128,-1,42
 1035 143 1035 143 1104 194 c 1,43,-1
 1092 69 l 1,44,45
 1018 21 1018 21 935 0 c 128,-1,46
 852 -21 852 -21 766 -21 c 0,47,48
 644 -21 644 -21 554.5 19.5 c 128,-1,49
 465 60 465 60 405 133.5 c 128,-1,50
 345 207 345 207 313 309.5 c 128,-1,51
 281 412 281 412 276 535 c 1,52,-1
 141 535 l 1,53,-1
 166 642 l 1,0,-1
EndSplineSet
EndChar

StartChar: guilsinglleft
Encoding: 8249 8249 181
Width: 642
Flags: W
LayerCount: 2
Fore
SplineSet
473 911 m 1,0,-1
 582 911 l 1,1,-1
 293 541 l 1,2,-1
 516 177 l 1,3,-1
 410 177 l 1,4,-1
 173 541 l 1,5,-1
 473 911 l 1,0,-1
EndSplineSet
EndChar

StartChar: guilsinglright
Encoding: 8250 8250 182
Width: 642
Flags: W
LayerCount: 2
Fore
SplineSet
264 177 m 1,0,-1
 156 177 l 1,1,-1
 444 542 l 1,2,-1
 219 911 l 1,3,-1
 328 911 l 1,4,-1
 567 542 l 1,5,-1
 264 177 l 1,0,-1
EndSplineSet
EndChar

StartChar: daggerdbl
Encoding: 8225 8225 183
Width: 1022
Flags: W
LayerCount: 2
Fore
SplineSet
554 1020 m 1,0,-1
 205 1020 l 1,1,-1
 214 1118 l 1,2,-1
 570 1118 l 1,3,-1
 616 1467 l 1,4,-1
 716 1467 l 1,5,-1
 664 1118 l 1,6,-1
 1002 1118 l 1,7,-1
 993 1020 l 1,8,-1
 659 1020 l 1,9,-1
 603 546 l 1,10,-1
 952 546 l 1,11,-1
 943 451 l 1,12,-1
 587 451 l 1,13,-1
 551 116 l 1,14,-1
 438 116 l 1,15,-1
 483 451 l 1,16,-1
 153 451 l 1,17,-1
 162 546 l 1,18,-1
 496 546 l 1,19,-1
 554 1020 l 1,0,-1
EndSplineSet
EndChar

StartChar: periodcentered
Encoding: 183 183 184
Width: 444
Flags: W
LayerCount: 2
Fore
SplineSet
225 523 m 0,0,1
 205 523 205 523 188 531 c 128,-1,2
 171 539 171 539 157.5 553 c 128,-1,3
 144 567 144 567 136.5 585 c 128,-1,4
 129 603 129 603 129 624 c 0,5,6
 129 646 129 646 136.5 665 c 128,-1,7
 144 684 144 684 157.5 698 c 128,-1,8
 171 712 171 712 188 720.5 c 128,-1,9
 205 729 205 729 225 729 c 0,10,11
 246 729 246 729 264 720.5 c 128,-1,12
 282 712 282 712 295.5 698 c 128,-1,13
 309 684 309 684 317 665 c 128,-1,14
 325 646 325 646 325 624 c 0,15,16
 325 603 325 603 317 584.5 c 128,-1,17
 309 566 309 566 295.5 552.5 c 128,-1,18
 282 539 282 539 264 531 c 128,-1,19
 246 523 246 523 225 523 c 0,0,1
EndSplineSet
EndChar

StartChar: quotesinglbase
Encoding: 8218 8218 185
Width: 553
Flags: W
LayerCount: 2
Fore
SplineSet
272 170 m 1,0,-1
 406 170 l 1,1,-1
 227 -247 l 1,2,-1
 140 -247 l 1,3,-1
 272 170 l 1,0,-1
EndSplineSet
EndChar

StartChar: quotedblbase
Encoding: 8222 8222 186
Width: 1024
Flags: W
LayerCount: 2
Fore
SplineSet
324 170 m 1,0,-1
 459 170 l 1,1,-1
 277 -247 l 1,2,-1
 190 -247 l 1,3,-1
 324 170 l 1,0,-1
694 170 m 1,4,-1
 831 170 l 1,5,-1
 651 -247 l 1,6,-1
 562 -247 l 1,7,-1
 694 170 l 1,4,-1
EndSplineSet
EndChar

StartChar: perthousand
Encoding: 8240 8240 187
Width: 2386
Flags: W
LayerCount: 2
Fore
SplineSet
2056 589 m 0,0,1
 1997 589 1997 589 1951.5 564.5 c 128,-1,2
 1906 540 1906 540 1875 499.5 c 128,-1,3
 1844 459 1844 459 1828 406 c 128,-1,4
 1812 353 1812 353 1812 296 c 0,5,6
 1812 244 1812 244 1824.5 199.5 c 128,-1,7
 1837 155 1837 155 1862.5 122 c 128,-1,8
 1888 89 1888 89 1927.5 70.5 c 128,-1,9
 1967 52 1967 52 2020 52 c 0,10,11
 2079 52 2079 52 2124.5 76 c 128,-1,12
 2170 100 2170 100 2200.5 140.5 c 128,-1,13
 2231 181 2231 181 2247 234 c 128,-1,14
 2263 287 2263 287 2263 346 c 0,15,16
 2263 397 2263 397 2250.5 441.5 c 128,-1,17
 2238 486 2238 486 2212.5 519 c 128,-1,18
 2187 552 2187 552 2148 570.5 c 128,-1,19
 2109 589 2109 589 2056 589 c 0,0,1
2007 -27 m 0,20,21
 1935 -27 1935 -27 1879.5 -4.5 c 128,-1,22
 1824 18 1824 18 1786.5 59 c 128,-1,23
 1749 100 1749 100 1729.5 157.5 c 128,-1,24
 1710 215 1710 215 1710 286 c 0,25,26
 1710 369 1710 369 1734.5 439 c 128,-1,27
 1759 509 1759 509 1805 560 c 128,-1,28
 1851 611 1851 611 1917 640 c 128,-1,29
 1983 669 1983 669 2067 669 c 0,30,31
 2213 669 2213 669 2287.5 584.5 c 128,-1,32
 2362 500 2362 500 2362 351 c 0,33,34
 2362 270 2362 270 2337.5 201 c 128,-1,35
 2313 132 2313 132 2267 81.5 c 128,-1,36
 2221 31 2221 31 2155 2 c 128,-1,37
 2089 -27 2089 -27 2007 -27 c 0,20,21
462 768 m 0,38,39
 390 768 390 768 335 790.5 c 128,-1,40
 280 813 280 813 242.5 854 c 128,-1,41
 205 895 205 895 186 952.5 c 128,-1,42
 167 1010 167 1010 167 1081 c 0,43,44
 167 1164 167 1164 191 1234 c 128,-1,45
 215 1304 215 1304 260.5 1355 c 128,-1,46
 306 1406 306 1406 372.5 1434.5 c 128,-1,47
 439 1463 439 1463 523 1463 c 0,48,49
 596 1463 596 1463 651 1441 c 128,-1,50
 706 1419 706 1419 743 1377.5 c 128,-1,51
 780 1336 780 1336 798.5 1277.5 c 128,-1,52
 817 1219 817 1219 817 1146 c 0,53,54
 817 1065 817 1065 792.5 996 c 128,-1,55
 768 927 768 927 722.5 876.5 c 128,-1,56
 677 826 677 826 611 797 c 128,-1,57
 545 768 545 768 462 768 c 0,38,39
1189 -27 m 0,58,59
 1117 -27 1117 -27 1062 -4.5 c 128,-1,60
 1007 18 1007 18 969.5 59 c 128,-1,61
 932 100 932 100 913 157.5 c 128,-1,62
 894 215 894 215 894 286 c 0,63,64
 894 369 894 369 918 439 c 128,-1,65
 942 509 942 509 987.5 560 c 128,-1,66
 1033 611 1033 611 1099.5 640 c 128,-1,67
 1166 669 1166 669 1251 669 c 0,68,69
 1323 669 1323 669 1378 647 c 128,-1,70
 1433 625 1433 625 1470.5 584 c 128,-1,71
 1508 543 1508 543 1527 484 c 128,-1,72
 1546 425 1546 425 1546 351 c 0,73,74
 1546 270 1546 270 1521.5 201 c 128,-1,75
 1497 132 1497 132 1451 81.5 c 128,-1,76
 1405 31 1405 31 1338.5 2 c 128,-1,77
 1272 -27 1272 -27 1189 -27 c 0,58,59
1240 589 m 0,78,79
 1180 589 1180 589 1133.5 564.5 c 128,-1,80
 1087 540 1087 540 1056 499.5 c 128,-1,81
 1025 459 1025 459 1009 406 c 128,-1,82
 993 353 993 353 993 296 c 0,83,84
 993 244 993 244 1006 199.5 c 128,-1,85
 1019 155 1019 155 1045 122 c 128,-1,86
 1071 89 1071 89 1111 70.5 c 128,-1,87
 1151 52 1151 52 1204 52 c 0,88,89
 1263 52 1263 52 1308 76 c 128,-1,90
 1353 100 1353 100 1384 140.5 c 128,-1,91
 1415 181 1415 181 1430.5 234.5 c 128,-1,92
 1446 288 1446 288 1446 346 c 0,93,94
 1446 398 1446 398 1433 442.5 c 128,-1,95
 1420 487 1420 487 1394.5 519.5 c 128,-1,96
 1369 552 1369 552 1330.5 570.5 c 128,-1,97
 1292 589 1292 589 1240 589 c 0,78,79
513 1385 m 0,98,99
 453 1385 453 1385 407 1360.5 c 128,-1,100
 361 1336 361 1336 330 1295.5 c 128,-1,101
 299 1255 299 1255 283 1202 c 128,-1,102
 267 1149 267 1149 267 1092 c 0,103,104
 267 1040 267 1040 280 995 c 128,-1,105
 293 950 293 950 318.5 917 c 128,-1,106
 344 884 344 884 383 865.5 c 128,-1,107
 422 847 422 847 475 847 c 0,108,109
 535 847 535 847 580.5 871 c 128,-1,110
 626 895 626 895 656.5 935 c 128,-1,111
 687 975 687 975 703 1028 c 128,-1,112
 719 1081 719 1081 719 1140 c 0,113,114
 719 1192 719 1192 706 1236.5 c 128,-1,115
 693 1281 693 1281 667.5 1314 c 128,-1,116
 642 1347 642 1347 603.5 1366 c 128,-1,117
 565 1385 565 1385 513 1385 c 0,98,99
271 -21 m 1,118,-1
 1336 1452 l 1,119,-1
 1436 1452 l 1,120,-1
 371 -21 l 1,121,-1
 271 -21 l 1,118,-1
EndSplineSet
EndChar

StartChar: breve
Encoding: 728 728 203
Width: 629
Flags: W
LayerCount: 2
Fore
SplineSet
701 1470 m 1,0,1
 692 1417 692 1417 667.5 1378 c 128,-1,2
 643 1339 643 1339 606 1313.5 c 128,-1,3
 569 1288 569 1288 521.5 1275 c 128,-1,4
 474 1262 474 1262 417 1262 c 0,5,6
 301 1262 301 1262 234.5 1312.5 c 128,-1,7
 168 1363 168 1363 168 1470 c 1,8,-1
 208 1470 l 1,9,10
 211 1432 211 1432 230 1406.5 c 128,-1,11
 249 1381 249 1381 278 1364.5 c 128,-1,12
 307 1348 307 1348 343.5 1341 c 128,-1,13
 380 1334 380 1334 419 1334 c 256,14,15
 458 1334 458 1334 496 1342 c 128,-1,16
 534 1350 534 1350 567 1366.5 c 128,-1,17
 600 1383 600 1383 624.5 1409 c 128,-1,18
 649 1435 649 1435 661 1470 c 1,19,-1
 701 1470 l 1,0,1
EndSplineSet
EndChar

StartChar: dotaccent
Encoding: 729 729 204
Width: 524
Flags: W
LayerCount: 2
Fore
SplineSet
312 1293 m 1,0,-1
 323 1421 l 1,1,-1
 436 1421 l 1,2,-1
 426 1293 l 1,3,-1
 312 1293 l 1,0,-1
EndSplineSet
EndChar

StartChar: hungarumlaut
Encoding: 733 733 205
Width: 969
Flags: W
LayerCount: 2
Fore
SplineSet
574 1218 m 1,0,-1
 794 1503 l 1,1,-1
 917 1503 l 1,2,-1
 641 1218 l 1,3,-1
 574 1218 l 1,0,-1
294 1218 m 1,4,-1
 515 1503 l 1,5,-1
 635 1503 l 1,6,-1
 363 1218 l 1,7,-1
 294 1218 l 1,4,-1
EndSplineSet
EndChar

StartChar: ogonek
Encoding: 731 731 206
Width: 508
Flags: W
LayerCount: 2
Fore
SplineSet
273 -328 m 0,0,1
 300 -328 300 -328 319 -326.5 c 128,-1,2
 338 -325 338 -325 353 -323 c 128,-1,3
 368 -321 368 -321 380.5 -317.5 c 128,-1,4
 393 -314 393 -314 407 -309 c 1,5,-1
 403 -380 l 1,6,7
 389 -385 389 -385 370 -389.5 c 128,-1,8
 351 -394 351 -394 328.5 -398 c 128,-1,9
 306 -402 306 -402 282.5 -404 c 128,-1,10
 259 -406 259 -406 238 -406 c 0,11,12
 199 -406 199 -406 165 -396.5 c 128,-1,13
 131 -387 131 -387 106 -368.5 c 128,-1,14
 81 -350 81 -350 66.5 -323.5 c 128,-1,15
 52 -297 52 -297 52 -262 c 0,16,17
 52 -222 52 -222 71 -188 c 128,-1,18
 90 -154 90 -154 121.5 -125 c 128,-1,19
 153 -96 153 -96 193.5 -71 c 128,-1,20
 234 -46 234 -46 276 -25 c 1,21,-1
 380 -6 l 1,22,23
 330 -34 330 -34 288 -62.5 c 128,-1,24
 246 -91 246 -91 215.5 -119 c 128,-1,25
 185 -147 185 -147 168 -174.5 c 128,-1,26
 151 -202 151 -202 151 -228 c 0,27,28
 151 -252 151 -252 161.5 -270.5 c 128,-1,29
 172 -289 172 -289 189 -301.5 c 128,-1,30
 206 -314 206 -314 228 -321 c 128,-1,31
 250 -328 250 -328 273 -328 c 0,0,1
EndSplineSet
EndChar

StartChar: caron
Encoding: 711 711 207
Width: 699
Flags: W
LayerCount: 2
Fore
SplineSet
755 1509 m 1,0,-1
 514 1214 l 1,1,-1
 380 1214 l 1,2,-1
 184 1509 l 1,3,-1
 282 1509 l 1,4,-1
 444 1269 l 1,5,-1
 654 1509 l 1,6,-1
 755 1509 l 1,0,-1
EndSplineSet
EndChar

StartChar: uni00AF
Encoding: 175 175 208
Width: 850
Flags: W
LayerCount: 2
Fore
SplineSet
848 1430 m 1,0,-1
 11 1430 l 1,1,-1
 11 1529 l 1,2,-1
 848 1529 l 1,3,-1
 848 1430 l 1,0,-1
EndSplineSet
EndChar

StartChar: uni2206
Encoding: 8710 8710 209
Width: 1320
Flags: W
LayerCount: 2
Fore
SplineSet
1278 0 m 1,0,-1
 62 0 l 1,1,-1
 67 68 l 1,2,-1
 703 1445 l 1,3,-1
 860 1445 l 1,4,-1
 1283 68 l 1,5,-1
 1278 0 l 1,0,-1
1125 131 m 1,6,-1
 829 1139 l 1,7,-1
 786 1317 l 1,8,-1
 765 1317 l 1,9,-1
 692 1139 l 1,10,-1
 238 131 l 1,11,-1
 1125 131 l 1,6,-1
EndSplineSet
EndChar

StartChar: copyright
Encoding: 169 169 211
Width: 1829
Flags: W
LayerCount: 2
Fore
SplineSet
936 51 m 0,0,1
 1043 51 1043 51 1143 77 c 128,-1,2
 1243 103 1243 103 1329.5 150 c 128,-1,3
 1416 197 1416 197 1487 263 c 128,-1,4
 1558 329 1558 329 1609 409.5 c 128,-1,5
 1660 490 1660 490 1688 582.5 c 128,-1,6
 1716 675 1716 675 1716 775 c 0,7,8
 1716 911 1716 911 1665 1028.5 c 128,-1,9
 1614 1146 1614 1146 1523.5 1232 c 128,-1,10
 1433 1318 1433 1318 1308.5 1367 c 128,-1,11
 1184 1416 1184 1416 1036 1416 c 0,12,13
 930 1416 930 1416 830.5 1390.5 c 128,-1,14
 731 1365 731 1365 644.5 1318 c 128,-1,15
 558 1271 558 1271 486 1205 c 128,-1,16
 414 1139 414 1139 363 1058.5 c 128,-1,17
 312 978 312 978 283.5 885 c 128,-1,18
 255 792 255 792 255 691 c 0,19,20
 255 554 255 554 305.5 437 c 128,-1,21
 356 320 356 320 447 234.5 c 128,-1,22
 538 149 538 149 662.5 100 c 128,-1,23
 787 51 787 51 936 51 c 0,0,1
928 -32 m 0,24,25
 821 -32 821 -32 723 -6.5 c 128,-1,26
 625 19 625 19 541 65.5 c 128,-1,27
 457 112 457 112 388.5 177.5 c 128,-1,28
 320 243 320 243 272 323 c 128,-1,29
 224 403 224 403 197.5 495 c 128,-1,30
 171 587 171 587 171 687 c 0,31,32
 171 798 171 798 203.5 901 c 128,-1,33
 236 1004 236 1004 294.5 1094.5 c 128,-1,34
 353 1185 353 1185 434.5 1259.5 c 128,-1,35
 516 1334 516 1334 613 1387 c 128,-1,36
 710 1440 710 1440 819.5 1469.5 c 128,-1,37
 929 1499 929 1499 1044 1499 c 0,38,39
 1151 1499 1151 1499 1248 1473.5 c 128,-1,40
 1345 1448 1345 1448 1429 1401 c 128,-1,41
 1513 1354 1513 1354 1581 1288.5 c 128,-1,42
 1649 1223 1649 1223 1697.5 1143 c 128,-1,43
 1746 1063 1746 1063 1772 970.5 c 128,-1,44
 1798 878 1798 878 1798 779 c 0,45,46
 1798 668 1798 668 1765.5 565 c 128,-1,47
 1733 462 1733 462 1675 372 c 128,-1,48
 1617 282 1617 282 1536 207.5 c 128,-1,49
 1455 133 1455 133 1358.5 80 c 128,-1,50
 1262 27 1262 27 1152.5 -2.5 c 128,-1,51
 1043 -32 1043 -32 928 -32 c 0,24,25
1310 1068 m 1,52,53
 1272 1119 1272 1119 1203 1145 c 128,-1,54
 1134 1171 1134 1171 1046 1171 c 0,55,56
 948 1171 948 1171 869.5 1132.5 c 128,-1,57
 791 1094 791 1094 735.5 1028.5 c 128,-1,58
 680 963 680 963 650 875.5 c 128,-1,59
 620 788 620 788 620 690 c 0,60,61
 620 605 620 605 640.5 532.5 c 128,-1,62
 661 460 661 460 704.5 407.5 c 128,-1,63
 748 355 748 355 815.5 325 c 128,-1,64
 883 295 883 295 976 295 c 0,65,66
 1161 295 1161 295 1286 395 c 1,67,-1
 1309 298 l 1,68,69
 1239 244 1239 244 1149 220.5 c 128,-1,70
 1059 197 1059 197 953 197 c 0,71,72
 836 197 836 197 749.5 234 c 128,-1,73
 663 271 663 271 605 335.5 c 128,-1,74
 547 400 547 400 518.5 486.5 c 128,-1,75
 490 573 490 573 490 672 c 0,76,77
 490 794 490 794 527.5 903 c 128,-1,78
 565 1012 565 1012 636.5 1093.5 c 128,-1,79
 708 1175 708 1175 810.5 1223 c 128,-1,80
 913 1271 913 1271 1042 1271 c 0,81,82
 1158 1271 1158 1271 1241 1237.5 c 128,-1,83
 1324 1204 1324 1204 1368 1144 c 1,84,-1
 1310 1068 l 1,52,53
EndSplineSet
EndChar

StartChar: semicolon
Encoding: 59 59 212
Width: 540
Flags: W
LayerCount: 2
Fore
SplineSet
226 176 m 1,0,-1
 366 176 l 1,1,-1
 177 -265 l 1,2,-1
 86 -265 l 1,3,-1
 226 176 l 1,0,-1
391 769 m 1,4,-1
 219 769 l 1,5,-1
 232 948 l 1,6,-1
 406 948 l 1,7,-1
 391 769 l 1,4,-1
EndSplineSet
EndChar

StartChar: colon
Encoding: 58 58 213
Width: 540
Flags: W
LayerCount: 2
Fore
SplineSet
391 769 m 1,0,-1
 219 769 l 1,1,-1
 232 948 l 1,2,-1
 406 948 l 1,3,-1
 391 769 l 1,0,-1
359 -11 m 1,4,-1
 187 -11 l 1,5,-1
 200 168 l 1,6,-1
 374 168 l 1,7,-1
 359 -11 l 1,4,-1
EndSplineSet
EndChar

StartChar: exclamdown
Encoding: 161 161 214
Width: 737
Flags: W
LayerCount: 2
Fore
SplineSet
540 1059 m 1,0,-1
 362 1059 l 1,1,-1
 379 1234 l 1,2,-1
 564 1234 l 1,3,-1
 540 1059 l 1,0,-1
386 826 m 1,4,-1
 491 826 l 1,5,-1
 423 -256 l 1,6,-1
 275 -256 l 1,7,-1
 386 826 l 1,4,-1
EndSplineSet
EndChar

StartChar: ellipsis
Encoding: 8230 8230 216
Width: 1620
Flags: W
LayerCount: 2
Fore
SplineSet
359 -11 m 1,0,-1
 187 -11 l 1,1,-1
 200 168 l 1,2,-1
 374 168 l 1,3,-1
 359 -11 l 1,0,-1
899 -11 m 1,4,-1
 727 -11 l 1,5,-1
 740 168 l 1,6,-1
 914 168 l 1,7,-1
 899 -11 l 1,4,-1
1439 -11 m 1,8,-1
 1267 -11 l 1,9,-1
 1280 168 l 1,10,-1
 1454 168 l 1,11,-1
 1439 -11 l 1,8,-1
EndSplineSet
EndChar

StartChar: fi
Encoding: 64257 64257 217
Width: 1205
Flags: W
LayerCount: 2
Fore
SplineSet
476 1026 m 1,0,-1
 1099 1026 l 1,1,-1
 1016 0 l 1,2,-1
 895 0 l 1,3,-1
 971 944 l 1,4,-1
 472 944 l 1,5,-1
 392 0 l 1,6,-1
 272 0 l 1,7,-1
 350 944 l 1,8,-1
 141 944 l 1,9,-1
 148 1026 l 1,10,-1
 355 1026 l 1,11,-1
 364 1160 l 1,12,13
 368 1247 368 1247 387.5 1321 c 128,-1,14
 407 1395 407 1395 451 1443 c 0,15,16
 535 1533 535 1533 680 1533 c 0,17,18
 702 1533 702 1533 718 1532 c 128,-1,19
 734 1531 734 1531 746.5 1528.5 c 128,-1,20
 759 1526 759 1526 770.5 1522.5 c 128,-1,21
 782 1519 782 1519 796 1515 c 1,22,-1
 788 1419 l 1,23,24
 776 1423 776 1423 755 1426 c 128,-1,25
 734 1429 734 1429 698 1429 c 0,26,27
 638 1429 638 1429 599 1413.5 c 128,-1,28
 560 1398 560 1398 536 1367 c 128,-1,29
 512 1336 512 1336 501 1291 c 128,-1,30
 490 1246 490 1246 486 1187 c 2,31,-1
 476 1026 l 1,0,-1
1132 1478 m 1,32,-1
 1121 1354 l 1,33,-1
 1007 1354 l 1,34,-1
 1020 1478 l 1,35,-1
 1132 1478 l 1,32,-1
EndSplineSet
EndChar

StartChar: greaterequal
Encoding: 8805 8805 219
Width: 1351
Flags: W
LayerCount: 2
Fore
SplineSet
263 9 m 1,0,-1
 1254 9 l 1,1,-1
 1247 100 l 1,2,-1
 270 100 l 1,3,-1
 263 9 l 1,0,-1
325 241 m 1,4,-1
 1280 682 l 1,5,-1
 1283 747 l 1,6,-1
 382 1213 l 1,7,-1
 391 1110 l 1,8,-1
 1149 721 l 1,9,-1
 1148 707 l 1,10,-1
 316 341 l 1,11,-1
 325 241 l 1,4,-1
EndSplineSet
EndChar

StartChar: integral
Encoding: 8747 8747 220
Width: 702
Flags: W
LayerCount: 2
Fore
SplineSet
364 1160 m 2,0,1
 370 1241 370 1241 388 1309 c 128,-1,2
 406 1377 406 1377 442 1427 c 128,-1,3
 478 1477 478 1477 535.5 1505 c 128,-1,4
 593 1533 593 1533 680 1533 c 0,5,6
 702 1533 702 1533 718 1531.5 c 128,-1,7
 734 1530 734 1530 746.5 1528 c 128,-1,8
 759 1526 759 1526 770.5 1522.5 c 128,-1,9
 782 1519 782 1519 796 1515 c 1,10,-1
 788 1419 l 1,11,12
 776 1423 776 1423 755 1426 c 128,-1,13
 734 1429 734 1429 698 1429 c 0,14,15
 638 1429 638 1429 599 1413.5 c 128,-1,16
 560 1398 560 1398 536.5 1367 c 128,-1,17
 513 1336 513 1336 501.5 1291 c 128,-1,18
 490 1246 490 1246 486 1187 c 2,19,-1
 393 2 l 2,20,21
 387 -79 387 -79 369 -147 c 128,-1,22
 351 -215 351 -215 315 -265 c 128,-1,23
 279 -315 279 -315 221.5 -343 c 128,-1,24
 164 -371 164 -371 77 -371 c 0,25,26
 54 -371 54 -371 38.5 -369.5 c 128,-1,27
 23 -368 23 -368 10.5 -366 c 128,-1,28
 -2 -364 -2 -364 -13.5 -360.5 c 128,-1,29
 -25 -357 -25 -357 -39 -353 c 1,30,-1
 -31 -257 l 1,31,32
 -19 -261 -19 -261 2 -264 c 128,-1,33
 23 -267 23 -267 59 -267 c 0,34,35
 119 -267 119 -267 158 -251.5 c 128,-1,36
 197 -236 197 -236 220.5 -205 c 128,-1,37
 244 -174 244 -174 255 -129 c 128,-1,38
 266 -84 266 -84 271 -25 c 2,39,-1
 364 1160 l 2,0,1
EndSplineSet
EndChar

StartChar: pi
Encoding: 960 960 221
Width: 1468
Flags: W
LayerCount: 2
Fore
SplineSet
271 0 m 1,0,-1
 336 907 l 1,1,-1
 221 907 l 1,2,-1
 233 1027 l 1,3,-1
 1311 1027 l 1,4,-1
 1296 907 l 1,5,-1
 1171 907 l 1,6,-1
 1108 0 l 1,7,-1
 983 0 l 1,8,-1
 1046 907 l 1,9,-1
 460 907 l 1,10,-1
 397 0 l 1,11,-1
 271 0 l 1,0,-1
EndSplineSet
EndChar

StartChar: Omega
Encoding: 937 937 222
Width: 1603
Flags: W
LayerCount: 2
Fore
SplineSet
148 103 m 1,0,-1
 508 103 l 1,1,2
 438 149 438 149 380 213 c 128,-1,3
 322 277 322 277 280.5 356 c 128,-1,4
 239 435 239 435 216 526.5 c 128,-1,5
 193 618 193 618 193 720 c 0,6,7
 193 886 193 886 250.5 1021 c 128,-1,8
 308 1156 308 1156 408 1251 c 128,-1,9
 508 1346 508 1346 643.5 1397.5 c 128,-1,10
 779 1449 779 1449 935 1449 c 0,11,12
 1079 1449 1079 1449 1192 1402 c 128,-1,13
 1305 1355 1305 1355 1384 1272 c 128,-1,14
 1463 1189 1463 1189 1504.5 1074.5 c 128,-1,15
 1546 960 1546 960 1546 825 c 0,16,17
 1546 702 1546 702 1508 594 c 128,-1,18
 1470 486 1470 486 1409.5 394.5 c 128,-1,19
 1349 303 1349 303 1273 229.5 c 128,-1,20
 1197 156 1197 156 1122 103 c 1,21,-1
 1504 103 l 1,22,-1
 1496 0 l 1,23,-1
 990 0 l 1,24,-1
 996 96 l 1,25,26
 1085 152 1085 152 1161.5 226 c 128,-1,27
 1238 300 1238 300 1294 390 c 128,-1,28
 1350 480 1350 480 1382 584 c 128,-1,29
 1414 688 1414 688 1414 804 c 0,30,31
 1414 913 1414 913 1383.5 1011 c 128,-1,32
 1353 1109 1353 1109 1291 1183 c 128,-1,33
 1229 1257 1229 1257 1136 1300 c 128,-1,34
 1043 1343 1043 1343 919 1343 c 0,35,36
 790 1343 790 1343 680.5 1297 c 128,-1,37
 571 1251 571 1251 491.5 1167.5 c 128,-1,38
 412 1084 412 1084 367.5 967 c 128,-1,39
 323 850 323 850 323 709 c 0,40,41
 323 611 323 611 345 521 c 128,-1,42
 367 431 367 431 407.5 352.5 c 128,-1,43
 448 274 448 274 505 209 c 128,-1,44
 562 144 562 144 633 96 c 1,45,-1
 626 0 l 1,46,-1
 120 0 l 1,47,-1
 148 103 l 1,0,-1
EndSplineSet
EndChar

StartChar: Lslash
Encoding: 321 321 223
Width: 1120
Flags: W
LayerCount: 2
Fore
SplineSet
1067 0 m 1,0,-1
 224 0 l 1,1,-1
 274 618 l 1,2,-1
 16 508 l 1,3,-1
 26 610 l 1,4,-1
 283 719 l 1,5,-1
 343 1456 l 1,6,-1
 469 1456 l 1,7,-1
 414 775 l 1,8,-1
 894 980 l 1,9,-1
 885 878 l 1,10,-1
 406 674 l 1,11,-1
 362 114 l 1,12,-1
 1077 114 l 1,13,-1
 1067 0 l 1,0,-1
EndSplineSet
EndChar

StartChar: lslash
Encoding: 322 322 224
Width: 503
Flags: W
LayerCount: 2
Fore
SplineSet
433 1508 m 1,0,-1
 374 758 l 1,1,-1
 617 862 l 1,2,-1
 608 760 l 1,3,-1
 366 657 l 1,4,-1
 314 0 l 1,5,-1
 193 0 l 1,6,-1
 241 604 l 1,7,-1
 16 508 l 1,8,-1
 26 610 l 1,9,-1
 249 705 l 1,10,-1
 314 1508 l 1,11,-1
 433 1508 l 1,0,-1
EndSplineSet
EndChar

StartChar: Eth
Encoding: 208 208 228
Width: 1546
Flags: W
LayerCount: 2
Fore
SplineSet
67 688 m 1,0,-1
 77 790 l 1,1,-1
 275 790 l 1,2,-1
 330 1456 l 1,3,-1
 629 1456 l 2,4,5
 757 1456 757 1456 871 1445 c 128,-1,6
 985 1434 985 1434 1081 1405.5 c 128,-1,7
 1177 1377 1177 1377 1253 1328.5 c 128,-1,8
 1329 1280 1329 1280 1382.5 1205.5 c 128,-1,9
 1436 1131 1436 1131 1464 1028 c 128,-1,10
 1492 925 1492 925 1492 787 c 0,11,12
 1492 608 1492 608 1431.5 462.5 c 128,-1,13
 1371 317 1371 317 1257.5 214 c 128,-1,14
 1144 111 1144 111 981.5 55.5 c 128,-1,15
 819 0 819 0 616 0 c 2,16,-1
 211 0 l 1,17,-1
 267 688 l 1,18,-1
 67 688 l 1,0,-1
349 114 m 1,19,-1
 644 114 l 2,20,21
 824 114 824 114 957.5 163.5 c 128,-1,22
 1091 213 1091 213 1179 301 c 128,-1,23
 1267 389 1267 389 1310 511 c 128,-1,24
 1353 633 1353 633 1353 777 c 0,25,26
 1353 935 1353 935 1306.5 1043 c 128,-1,27
 1260 1151 1260 1151 1169.5 1217.5 c 128,-1,28
 1079 1284 1079 1284 945.5 1313 c 128,-1,29
 812 1342 812 1342 638 1342 c 2,30,-1
 449 1342 l 1,31,-1
 404 790 l 1,32,-1
 620 790 l 1,33,-1
 610 688 l 1,34,-1
 395 688 l 1,35,-1
 349 114 l 1,19,-1
EndSplineSet
EndChar

StartChar: multiply
Encoding: 215 215 229
Width: 1458
Flags: W
LayerCount: 2
Fore
SplineSet
1118 911 m 1,0,-1
 1192 837 l 1,1,-1
 858 554 l 1,2,-1
 1189 272 l 1,3,-1
 1118 200 l 1,4,-1
 779 487 l 1,5,-1
 440 200 l 1,6,-1
 368 272 l 1,7,-1
 699 554 l 1,8,-1
 366 837 l 1,9,-1
 440 911 l 1,10,-1
 779 622 l 1,11,-1
 1118 911 l 1,0,-1
1192 275 m 1,12,-1
 1189 272 l 1,13,-1
 1190 272 l 1,14,-1
 1192 275 l 1,12,-1
368 272 m 1,15,-1
 366 275 l 1,16,-1
 368 272 l 1,15,-1
EndSplineSet
EndChar

StartChar: minus
Encoding: 8722 8722 231
Width: 1458
Flags: W
LayerCount: 2
Fore
SplineSet
1306 684 m 1,0,-1
 272 684 l 1,1,-1
 282 789 l 1,2,-1
 1318 789 l 1,3,-1
 1306 684 l 1,0,-1
EndSplineSet
EndChar

StartChar: thorn
Encoding: 254 254 233
Width: 1239
Flags: W
LayerCount: 2
Fore
SplineSet
266 -443 m 1,0,-1
 145 -443 l 1,1,-1
 266 1083 l 1,2,-1
 279 1342 l 1,3,-1
 402 1342 l 1,4,-1
 364 818 l 1,5,6
 399 879 399 879 444.5 923.5 c 128,-1,7
 490 968 490 968 544 996 c 128,-1,8
 598 1024 598 1024 659 1037.5 c 128,-1,9
 720 1051 720 1051 787 1051 c 0,10,11
 890 1051 890 1051 965.5 1014.5 c 128,-1,12
 1041 978 1041 978 1090.5 914.5 c 128,-1,13
 1140 851 1140 851 1164 765.5 c 128,-1,14
 1188 680 1188 680 1188 582 c 0,15,16
 1188 464 1188 464 1155.5 355 c 128,-1,17
 1123 246 1123 246 1059 162 c 128,-1,18
 995 78 995 78 899.5 27.5 c 128,-1,19
 804 -23 804 -23 678 -23 c 0,20,21
 428 -23 428 -23 314 194 c 1,22,-1
 266 -443 l 1,0,-1
335 429 m 0,23,24
 335 357 335 357 356 292.5 c 128,-1,25
 377 228 377 228 419 180 c 128,-1,26
 461 132 461 132 522.5 103.5 c 128,-1,27
 584 75 584 75 665 75 c 0,28,29
 767 75 767 75 841 116.5 c 128,-1,30
 915 158 915 158 962.5 227 c 128,-1,31
 1010 296 1010 296 1033 386 c 128,-1,32
 1056 476 1056 476 1056 573 c 0,33,34
 1056 648 1056 648 1039.5 716 c 128,-1,35
 1023 784 1023 784 985.5 836.5 c 128,-1,36
 948 889 948 889 887 920 c 128,-1,37
 826 951 826 951 738 951 c 0,38,39
 624 951 624 951 546.5 907 c 128,-1,40
 469 863 469 863 422 790.5 c 128,-1,41
 375 718 375 718 355 623.5 c 128,-1,42
 335 529 335 529 335 429 c 0,23,24
EndSplineSet
EndChar

StartChar: eth
Encoding: 240 240 234
Width: 1190
Flags: W
LayerCount: 2
Fore
SplineSet
1329 1026 m 1,0,-1
 1339 1128 l 1,1,-1
 1126 1128 l 1,2,3
 1082 1269 1082 1269 994.5 1374 c 128,-1,4
 907 1479 907 1479 771 1539 c 1,5,-1
 704 1445 l 1,6,7
 813 1405 813 1405 884 1321 c 128,-1,8
 955 1237 955 1237 993 1128 c 1,9,-1
 796 1128 l 1,10,-1
 786 1026 l 1,11,-1
 1021 1026 l 1,12,13
 1041 931 1041 931 1040.5 831.5 c 128,-1,14
 1040 732 1040 732 1022 638 c 1,15,16
 985 762 985 762 886.5 828 c 128,-1,17
 788 894 788 894 637 894 c 0,18,19
 524 894 524 894 430 855 c 128,-1,20
 336 816 336 816 268 748 c 128,-1,21
 200 680 200 680 162 588 c 128,-1,22
 124 496 124 496 124 389 c 0,23,24
 124 301 124 301 153.5 225.5 c 128,-1,25
 183 150 183 150 238 95 c 128,-1,26
 293 40 293 40 372.5 8.5 c 128,-1,27
 452 -23 452 -23 553 -23 c 0,28,29
 698 -23 698 -23 812.5 37 c 128,-1,30
 927 97 927 97 1006 207 c 128,-1,31
 1085 317 1085 317 1127 473.5 c 128,-1,32
 1169 630 1169 630 1169 824 c 0,33,34
 1169 930 1169 930 1151 1026 c 1,35,-1
 1329 1026 l 1,0,-1
652 785 m 0,36,37
 718 785 718 785 773.5 767 c 128,-1,38
 829 749 829 749 872 717.5 c 128,-1,39
 915 686 915 686 944 642 c 128,-1,40
 973 598 973 598 984 546 c 1,41,42
 983 525 983 525 983 516 c 128,-1,43
 983 507 983 507 983 502.5 c 128,-1,44
 983 498 983 498 982.5 495 c 128,-1,45
 982 492 982 492 980 484 c 0,46,47
 963 405 963 405 929 333 c 128,-1,48
 895 261 895 261 842.5 206.5 c 128,-1,49
 790 152 790 152 719 119.5 c 128,-1,50
 648 87 648 87 557 87 c 0,51,52
 487 87 487 87 431.5 110.5 c 128,-1,53
 376 134 376 134 337 175 c 128,-1,54
 298 216 298 216 277 272 c 128,-1,55
 256 328 256 328 256 394 c 0,56,57
 256 471 256 471 279.5 541.5 c 128,-1,58
 303 612 303 612 352 666 c 128,-1,59
 401 720 401 720 475.5 752.5 c 128,-1,60
 550 785 550 785 652 785 c 0,36,37
EndSplineSet
EndChar

StartChar: brokenbar
Encoding: 166 166 236
Width: 500
Flags: W
LayerCount: 2
Fore
SplineSet
257 763 m 1,0,-1
 321 1564 l 1,1,-1
 435 1564 l 1,2,-1
 371 763 l 1,3,-1
 257 763 l 1,0,-1
341 394 m 1,4,-1
 268 -510 l 1,5,-1
 155 -510 l 1,6,-1
 227 394 l 1,7,-1
 341 394 l 1,4,-1
EndSplineSet
EndChar

StartChar: currency
Encoding: 164 164 237
Width: 1238
Flags: W
LayerCount: 2
Fore
SplineSet
648 1051 m 0,0,1
 714 1051 714 1051 771 1034 c 1,2,-1
 894 1301 l 1,3,-1
 935 1285 l 1,4,-1
 811 1018 l 1,5,6
 902 976 902 976 946 891 c 128,-1,7
 990 806 990 806 990 695 c 0,8,9
 990 639 990 639 978 586.5 c 128,-1,10
 966 534 966 534 942.5 487.5 c 128,-1,11
 919 441 919 441 884.5 402.5 c 128,-1,12
 850 364 850 364 806 336 c 1,13,-1
 935 56 l 1,14,-1
 899 40 l 1,15,-1
 771 316 l 1,16,17
 729 296 729 296 682 285 c 128,-1,18
 635 274 635 274 581 274 c 0,19,20
 520 274 520 274 472 287 c 1,21,-1
 357 40 l 1,22,-1
 321 56 l 1,23,-1
 433 301 l 1,24,25
 385 320 385 320 348.5 352.5 c 128,-1,26
 312 385 312 385 287.5 427 c 128,-1,27
 263 469 263 469 250.5 519 c 128,-1,28
 238 569 238 569 238 625 c 0,29,30
 238 687 238 687 252 744.5 c 128,-1,31
 266 802 266 802 293 851.5 c 128,-1,32
 320 901 320 901 359.5 940.5 c 128,-1,33
 399 980 399 980 450 1006 c 1,34,-1
 321 1285 l 1,35,-1
 362 1301 l 1,36,-1
 490 1023 l 1,37,38
 525 1037 525 1037 564 1044 c 128,-1,39
 603 1051 603 1051 648 1051 c 0,0,1
896 689 m 0,40,41
 896 749 896 749 881 802 c 128,-1,42
 866 855 866 855 834 894 c 128,-1,43
 802 933 802 933 753 956 c 128,-1,44
 704 979 704 979 637 979 c 0,45,46
 563 979 563 979 506 950 c 128,-1,47
 449 921 449 921 410 872.5 c 128,-1,48
 371 824 371 824 351 761.5 c 128,-1,49
 331 699 331 699 331 632 c 0,50,51
 331 574 331 574 347 522 c 128,-1,52
 363 470 363 470 395.5 430.5 c 128,-1,53
 428 391 428 391 477 368 c 128,-1,54
 526 345 526 345 592 345 c 0,55,56
 667 345 667 345 723.5 373.5 c 128,-1,57
 780 402 780 402 818.5 450 c 128,-1,58
 857 498 857 498 876.5 560 c 128,-1,59
 896 622 896 622 896 689 c 0,40,41
EndSplineSet
EndChar

StartChar: mu
Encoding: 956 956 238
Width: 1217
Flags: W
LayerCount: 2
Fore
SplineSet
1006 1026 m 1,0,-1
 1126 1026 l 1,1,-1
 1063 237 l 2,2,3
 1060 205 1060 205 1057.5 164.5 c 128,-1,4
 1055 124 1055 124 1053 87 c 0,5,6
 1050 44 1050 44 1049 0 c 1,7,-1
 925 0 l 1,8,-1
 940 203 l 1,9,10
 876 85 876 85 777 31 c 128,-1,11
 678 -23 678 -23 544 -23 c 0,12,13
 456 -23 456 -23 396 0.5 c 128,-1,14
 336 24 336 24 297 65 c 1,15,-1
 278 -166 l 1,16,-1
 161 -166 l 1,17,-1
 260 1026 l 1,18,-1
 381 1026 l 1,19,-1
 324 352 l 2,20,21
 312 213 312 213 382.5 144 c 128,-1,22
 453 75 453 75 595 75 c 0,23,24
 677 75 677 75 742.5 102.5 c 128,-1,25
 808 130 808 130 855 178 c 128,-1,26
 902 226 902 226 928.5 291.5 c 128,-1,27
 955 357 955 357 959 433 c 1,28,-1
 1006 1026 l 1,0,-1
EndSplineSet
EndChar

StartChar: periodcentered
Encoding: 65537 -1 239
Width: 444
Flags: W
LayerCount: 2
Fore
SplineSet
225 523 m 0,0,1
 205 523 205 523 188 531 c 128,-1,2
 171 539 171 539 157.5 553 c 128,-1,3
 144 567 144 567 136.5 585 c 128,-1,4
 129 603 129 603 129 624 c 0,5,6
 129 646 129 646 136.5 665 c 128,-1,7
 144 684 144 684 157.5 698 c 128,-1,8
 171 712 171 712 188 720.5 c 128,-1,9
 205 729 205 729 225 729 c 0,10,11
 246 729 246 729 264 720.5 c 128,-1,12
 282 712 282 712 295.5 698 c 128,-1,13
 309 684 309 684 317 665 c 128,-1,14
 325 646 325 646 325 624 c 0,15,16
 325 603 325 603 317 584.5 c 128,-1,17
 309 566 309 566 295.5 552.5 c 128,-1,18
 282 539 282 539 264 531 c 128,-1,19
 246 523 246 523 225 523 c 0,0,1
EndSplineSet
EndChar

StartChar: Thorn
Encoding: 222 222 240
Width: 1274
Flags: W
LayerCount: 2
Fore
SplineSet
350 0 m 1,0,-1
 224 0 l 1,1,-1
 343 1456 l 1,2,-1
 468 1456 l 1,3,-1
 452 1237 l 1,4,-1
 649 1237 l 2,5,6
 730 1237 730 1237 806.5 1230 c 128,-1,7
 883 1223 883 1223 951.5 1206 c 128,-1,8
 1020 1189 1020 1189 1077 1160 c 128,-1,9
 1134 1131 1134 1131 1175 1087.5 c 128,-1,10
 1216 1044 1216 1044 1239 983 c 128,-1,11
 1262 922 1262 922 1262 842 c 0,12,13
 1262 720 1262 720 1210 633.5 c 128,-1,14
 1158 547 1158 547 1071 491.5 c 128,-1,15
 984 436 984 436 870.5 410 c 128,-1,16
 757 384 757 384 633 384 c 2,17,-1
 387 384 l 1,18,-1
 350 0 l 1,0,-1
397 498 m 1,19,-1
 687 498 l 2,20,21
 782 498 782 498 862 517.5 c 128,-1,22
 942 537 942 537 1000.5 578 c 128,-1,23
 1059 619 1059 619 1092 682 c 128,-1,24
 1125 745 1125 745 1125 832 c 256,25,26
 1125 919 1125 919 1093 975.5 c 128,-1,27
 1061 1032 1061 1032 1003 1064.5 c 128,-1,28
 945 1097 945 1097 863.5 1110 c 128,-1,29
 782 1123 782 1123 684 1123 c 2,30,-1
 444 1123 l 1,31,-1
 397 498 l 1,19,-1
EndSplineSet
EndChar

StartChar: uni030F
Encoding: 783 783 241
Width: 969
Flags: W
LayerCount: 2
Fore
SplineSet
570 1218 m 1,0,-1
 294 1503 l 1,1,-1
 417 1503 l 1,2,-1
 637 1218 l 1,3,-1
 570 1218 l 1,0,-1
848 1218 m 1,4,-1
 576 1503 l 1,5,-1
 696 1503 l 1,6,-1
 917 1218 l 1,7,-1
 848 1218 l 1,4,-1
EndSplineSet
EndChar

StartChar: uni0326
Encoding: 806 806 242
Width: 540
Flags: W
LayerCount: 2
Fore
SplineSet
226 -100 m 1,0,-1
 366 -100 l 1,1,-1
 177 -541 l 1,2,-1
 86 -541 l 1,3,-1
 226 -100 l 1,0,-1
EndSplineSet
EndChar

StartChar: uni0311
Encoding: 785 785 243
Width: 629
Flags: W
LayerCount: 2
Fore
SplineSet
168 1262 m 1,0,1
 177 1315 177 1315 201.5 1354 c 128,-1,2
 226 1393 226 1393 263 1418.5 c 128,-1,3
 300 1444 300 1444 347.5 1457 c 128,-1,4
 395 1470 395 1470 452 1470 c 0,5,6
 568 1470 568 1470 634.5 1419.5 c 128,-1,7
 701 1369 701 1369 701 1262 c 1,8,-1
 661 1262 l 1,9,10
 658 1300 658 1300 639 1325.5 c 128,-1,11
 620 1351 620 1351 591 1367.5 c 128,-1,12
 562 1384 562 1384 525.5 1391 c 128,-1,13
 489 1398 489 1398 450 1398 c 256,14,15
 411 1398 411 1398 373 1390 c 128,-1,16
 335 1382 335 1382 302 1365.5 c 128,-1,17
 269 1349 269 1349 244.5 1323 c 128,-1,18
 220 1297 220 1297 208 1262 c 1,19,-1
 168 1262 l 1,0,1
EndSplineSet
EndChar

StartChar: twosuperior
Encoding: 178 178 272
Width: 1190
Flags: W
LayerCount: 2
Fore
SplineSet
352 628 m 1,0,-1
 359 715 l 1,1,2
 387 739 387 739 417 765 c 128,-1,3
 447 791 447 791 476 815 c 0,4,5
 542 871 542 871 606.5 927.5 c 128,-1,6
 671 984 671 984 721.5 1039 c 128,-1,7
 772 1094 772 1094 803 1146.5 c 128,-1,8
 834 1199 834 1199 834 1248 c 0,9,10
 834 1305 834 1305 792.5 1340 c 128,-1,11
 751 1375 751 1375 678 1375 c 0,12,13
 610 1375 610 1375 556.5 1341.5 c 128,-1,14
 503 1308 503 1308 471 1251 c 1,15,-1
 417 1306 l 1,16,17
 452 1378 452 1378 525 1417 c 128,-1,18
 598 1456 598 1456 692 1456 c 0,19,20
 743 1456 743 1456 786.5 1442 c 128,-1,21
 830 1428 830 1428 861.5 1402 c 128,-1,22
 893 1376 893 1376 911 1339 c 128,-1,23
 929 1302 929 1302 929 1257 c 0,24,25
 929 1190 929 1190 897 1128 c 128,-1,26
 865 1066 865 1066 809 1004 c 128,-1,27
 753 942 753 942 678 878 c 128,-1,28
 603 814 603 814 516 744 c 2,29,-1
 474 710 l 1,30,-1
 886 710 l 1,31,-1
 881 628 l 1,32,-1
 352 628 l 1,0,-1
EndSplineSet
EndChar

StartChar: threesuperior
Encoding: 179 179 273
Width: 1190
Flags: W
LayerCount: 2
Fore
SplineSet
368 1370 m 1,0,1
 411 1409 411 1409 475.5 1433 c 128,-1,2
 540 1457 540 1457 609 1457 c 0,3,4
 658 1457 658 1457 702.5 1444 c 128,-1,5
 747 1431 747 1431 781 1405.5 c 128,-1,6
 815 1380 815 1380 835.5 1342.5 c 128,-1,7
 856 1305 856 1305 856 1257 c 0,8,9
 856 1181 856 1181 813 1126.5 c 128,-1,10
 770 1072 770 1072 690 1051 c 1,11,12
 761 1031 761 1031 803.5 983 c 128,-1,13
 846 935 846 935 846 862 c 0,14,15
 846 804 846 804 821 757 c 128,-1,16
 796 710 796 710 753.5 677 c 128,-1,17
 711 644 711 644 654.5 626.5 c 128,-1,18
 598 609 598 609 536 609 c 0,19,20
 468 609 468 609 410 630 c 128,-1,21
 352 651 352 651 313 693 c 1,22,-1
 360 759 l 1,23,24
 395 724 395 724 440.5 706.5 c 128,-1,25
 486 689 486 689 538 689 c 0,26,27
 581 689 581 689 620.5 700.5 c 128,-1,28
 660 712 660 712 689 734 c 128,-1,29
 718 756 718 756 735.5 787.5 c 128,-1,30
 753 819 753 819 753 860 c 256,31,32
 753 901 753 901 737 929.5 c 128,-1,33
 721 958 721 958 691 975.5 c 128,-1,34
 661 993 661 993 618.5 1001 c 128,-1,35
 576 1009 576 1009 523 1009 c 1,36,37
 505 1008 505 1008 497 1008 c 128,-1,38
 489 1008 489 1008 484 1008 c 1,39,-1
 492 1091 l 1,40,-1
 520 1091 l 2,41,42
 572 1091 572 1091 615.5 1099 c 128,-1,43
 659 1107 659 1107 690.5 1126 c 128,-1,44
 722 1145 722 1145 739.5 1175.5 c 128,-1,45
 757 1206 757 1206 757 1251 c 0,46,47
 757 1315 757 1315 713.5 1344.5 c 128,-1,48
 670 1374 670 1374 600 1374 c 0,49,50
 542 1374 542 1374 492.5 1354.5 c 128,-1,51
 443 1335 443 1335 402 1303 c 1,52,-1
 368 1370 l 1,0,1
EndSplineSet
EndChar

StartChar: onesuperior
Encoding: 185 185 274
Width: 1190
Flags: W
LayerCount: 2
Fore
SplineSet
366 1349 m 1,0,1
 412 1363 412 1363 453.5 1384 c 128,-1,2
 495 1405 495 1405 533 1428 c 1,3,-1
 617 1440 l 1,4,-1
 562 708 l 1,5,-1
 686 708 l 1,6,-1
 678 628 l 1,7,-1
 341 628 l 1,8,-1
 349 711 l 1,9,-1
 474 711 l 1,10,-1
 522 1337 l 1,11,12
 482 1314 482 1314 439.5 1294.5 c 128,-1,13
 397 1275 397 1275 358 1260 c 1,14,-1
 366 1349 l 1,0,1
EndSplineSet
EndChar

StartChar: foursuperior
Encoding: 8308 8308 275
Width: 897
Flags: W
LayerCount: 2
Fore
SplineSet
434 639 m 1,0,-1
 449 835 l 1,1,-1
 57 835 l 1,2,-1
 64 903 l 1,3,-1
 473 1428 l 1,4,-1
 581 1428 l 1,5,-1
 539 906 l 1,6,-1
 658 906 l 1,7,-1
 654 835 l 1,8,-1
 533 835 l 1,9,10
 530 787 530 787 525.5 737.5 c 128,-1,11
 521 688 521 688 518 639 c 1,12,-1
 434 639 l 1,0,-1
453 906 m 1,13,-1
 486 1343 l 1,14,15
 473 1326 473 1326 462 1310 c 128,-1,16
 451 1294 451 1294 439 1277 c 1,17,-1
 147 906 l 1,18,-1
 453 906 l 1,13,-1
EndSplineSet
EndChar

